<svg width="182" height="64" viewBox="0 0 182 64" fill="none" xmlns="http://www.w3.org/2000/svg">
<path d="M82 35.5066C82 34.2077 80.7111 33.1325 79.2161 33.1325H70.5614V26.9174H78.0625C78.4133 26.935 78.7641 26.8841 79.0939 26.7679C79.4238 26.6516 79.7259 26.4723 79.9823 26.2408C80.2386 26.0092 80.4438 25.7302 80.5857 25.4203C80.7275 25.1105 80.8031 24.7762 80.8078 24.4376C80.7615 23.7716 80.4498 23.1487 79.9382 22.6992C79.4265 22.2497 78.7544 22.0086 78.0625 22.0261H70.5614V15.8607H78.823C79.1683 15.8869 79.5156 15.8457 79.8441 15.7395C80.1726 15.6334 80.4755 15.4644 80.7348 15.2428C80.994 15.0212 81.2043 14.7515 81.353 14.4497C81.5018 14.148 81.5859 13.8204 81.6005 13.4866C81.5622 12.8057 81.2511 12.1658 80.7329 11.702C80.2146 11.2382 79.5298 10.9866 78.823 11.0005H68.0546C67.2809 10.991 66.5329 11.2679 65.9646 11.7744C65.3963 12.2808 65.0511 12.9782 65 13.7228V35.2767C65 37.3463 66.7464 37.9989 68.6926 37.9989H79.2161C79.9265 38.0191 80.6166 37.7691 81.1375 37.3028C81.6584 36.8365 81.9682 36.1913 82 35.5066Z" fill="#004AAD"/>
<path d="M103.642 19.024C103.642 15.052 101.395 11.0002 94.3605 11.0002H87.8489C87.1167 10.9915 86.4099 11.2712 85.8782 11.7799C85.3465 12.2887 85.0315 12.9866 85 13.7259V35.5074C85.0252 36.1805 85.3089 36.8172 85.7909 37.2825C86.2728 37.7478 86.9151 38.0051 87.5816 37.9998C88.2565 38.0075 88.9085 37.7534 89.4035 37.2897C89.8985 36.826 90.1986 36.1881 90.2421 35.5074V26.8513H92.8116L99.0742 36.8027C99.3166 37.1756 99.6505 37.4785 100.043 37.6818C100.436 37.8852 100.875 37.9821 101.316 37.963C102.998 37.963 104.833 35.9617 103.594 34.0647L98.4364 26.2988C101.656 25.2306 103.642 22.7688 103.642 19.024ZM98.4 19.024C98.4 20.9885 97.015 22.0935 94.4334 22.0935H90.2421V15.8071H94.2087C97.6103 15.8071 98.4 17.4339 98.4 19.024Z" fill="#004AAD"/>
<path d="M120.267 36.3041C120.502 36.7256 120.836 37.0803 121.24 37.3358C121.643 37.5914 122.103 37.7397 122.577 37.7672C122.889 37.7798 123.2 37.7284 123.491 37.6161C123.783 37.5037 124.05 37.3327 124.275 37.1131C124.501 36.8935 124.682 36.6298 124.806 36.3377C124.93 36.0456 124.996 35.731 124.999 35.4125C125.008 35.1668 124.966 34.9219 124.875 34.6944C124.784 34.4668 124.646 34.262 124.47 34.0938C123.978 33.5915 123.751 33.3215 123.751 32.7438V20.3233C123.751 19.0047 122.885 18 121.139 18C119.394 18 118.527 19.0047 118.527 20.3233V31.9651C118.536 32.2135 118.56 32.4611 118.601 32.7061C117.692 33.1764 116.699 33.4521 115.682 33.5161C114.023 33.5161 113.224 32.3984 113.224 30.4204V20.3233C113.224 19.0047 112.277 18 110.612 18C108.946 18 108 19.0047 108 20.3233V30.4204C108 34.9478 110.458 37.9995 115.043 37.9995C116.917 38.0191 118.747 37.425 120.267 36.3041Z" fill="#004AAD"/>
<path d="M141.419 21.559V15.8177H146.14C148.15 15.8177 148.847 17.1226 148.847 18.5765C148.861 18.969 148.795 19.3602 148.651 19.7261C148.507 20.0921 148.289 20.425 148.01 20.7044C147.731 20.9839 147.398 21.2038 147.03 21.3508C146.662 21.4978 146.267 21.5686 145.87 21.559H141.419ZM145.983 26.4739C148.037 26.4739 149.581 27.7166 149.581 29.8789C149.581 31.8735 148.326 33.1348 145.751 33.1348H141.419V26.4739H145.983ZM145.406 38C151.365 38 155 34.4397 155 29.9597C155 26.6293 152.601 24.9019 150.203 23.945C152.526 22.839 154.265 21.1862 154.265 18.5144C154.265 14.6807 151.365 11.0023 145.563 11.0023H139.02C138.25 10.972 137.499 11.2456 136.933 11.7629C136.367 12.2803 136.031 12.999 136 13.7611V35.2288C136.033 35.9903 136.369 36.708 136.935 37.225C137.501 37.742 138.25 38.0162 139.02 37.9876L145.406 38Z" fill="#004AAD"/>
<path d="M177 27.6343V21.0554C177 15.7364 174.008 11.0008 165.347 11.0008H160.992C160.234 10.9834 159.498 11.2602 158.94 11.773C158.382 12.2858 158.045 12.9946 158 13.7503V35.2435C158.043 36.0003 158.38 36.7106 158.938 37.2248C159.496 37.7389 160.233 38.0166 160.992 37.9992H165.347C174.064 37.9992 177 33.0278 177 27.6343ZM171.631 27.6343C171.631 30.6569 170.213 33.1395 165.994 33.1395H163.388V15.8543H165.994C170.138 15.8543 171.631 18.1507 171.631 21.0554V27.6343Z" fill="#004AAD"/>
<path d="M69.8716 49.389V47.5622H66.902V45.7963H70V44H65V53H66.902V49.389H69.8716Z" fill="#004AAD"/>
<path d="M73 53H78V51.2037H74.9078V44H73V53Z" fill="#004AAD"/>
<path d="M83.4654 53H85.5346V48.7009L89 44H86.531L84.5 47.1116L82.469 44H80L83.4654 48.7009V53Z" fill="#004AAD"/>
<path d="M107 44H104.624L103.472 50.2027L101.559 44H99.4409L97.5214 50.2027L96.3763 44H94L95.8997 52.9878H98.4613L100.507 46.6939L102.532 53H105.1L107 44Z" fill="#004AAD"/>
<path d="M111 53V44H109V53H111Z" fill="#004AAD"/>
<path d="M117.115 45.7963H120V44H112V45.7963H114.892V53H117.121L117.115 45.7963Z" fill="#004AAD"/>
<path d="M126.908 44V47.5866H123.966V44H122V53H123.966V49.389H126.908V53H129V44H126.908Z" fill="#004AAD"/>
<path d="M139.613 51.2781C138.704 51.2781 137.919 50.7518 137.869 49.6082H136C136 51.9539 137.694 53 139.54 53C141.233 53 143 52.1683 143 49.9071C143 46.2489 138.179 47.4769 138.179 45.768C138.179 45.0468 138.902 44.7609 139.415 44.7609C140.335 44.7609 140.838 45.0858 140.94 46.0604H142.723C142.661 43.8707 141.12 43 139.398 43C137.874 43 136.282 43.9292 136.282 45.911C136.282 49.4587 141.103 48.2502 141.103 50.1215C141.098 51.0052 140.189 51.2781 139.613 51.2781Z" fill="#004AAD"/>
<path d="M149.467 45.7963H152V44H145V45.7963H147.527V53H149.479L149.467 45.7963Z" fill="#004AAD"/>
<path d="M156.465 53H158.535V48.7009L162 44H159.537L157.506 47.1116L155.475 44H153L156.465 48.7009V53Z" fill="#004AAD"/>
<path d="M164 53H169V51.2037H165.902V44H164V53Z" fill="#004AAD"/>
<path d="M177 51.2037H173.902V49.3769H176.872V47.5501H173.902V45.7963H177V44H172V53H177V51.2037Z" fill="#004AAD"/>
<path fill-rule="evenodd" clip-rule="evenodd" d="M27.0235 3.00562C21.8647 8.6492 21.6715 14.8745 26.4439 21.6816C24.9605 20.4787 21.614 16.2652 20.4686 13.8211C19.6337 19.2272 23.5529 25.6414 28.1827 28.2627C25.7885 27.7621 20.7757 24.0561 18.7781 21.3444C19.9615 26.9242 24.9156 32.1877 30.3769 32.7857C28.1137 33.3072 21.9107 31.7427 18.4193 29.4204C27.9826 42.4018 34.717 39.5302 39.5917 38.1813C35.1896 41.7552 24.512 41.1329 21.4657 40.4306C25.3986 44.8006 32.4538 42.8364 32.1916 44.0705C34.8722 48.3745 12.8511 55.7135 10.1429 57.7264C22.1763 54.2012 34.0649 51.3817 39.0915 48.4545C47.1127 43.782 47.8958 37.9171 45.3014 33.4775C40.3266 24.9843 23.7047 16.7484 27.0339 3.00909L27.0235 3.00562Z" fill="#38B6FF"/>
<path fill-rule="evenodd" clip-rule="evenodd" d="M47.1782 33.1542C50.09 41.9777 44.0456 49.6713 34.6617 51.2323C51.1595 53.7562 48.051 38.9948 59.1185 33.0152C54.4783 32.0278 53.6917 26.7956 47.1782 33.1612V33.1542Z" fill="#5CE1E6"/>
<path fill-rule="evenodd" clip-rule="evenodd" d="M18.6712 52.7585C15.0986 50.0817 12.2685 46.5247 10.4525 42.4287C8.63659 38.3327 7.89569 33.8351 8.30093 29.3675C8.70618 24.8999 10.244 20.6122 12.7668 16.9158C15.2895 13.2194 18.7127 10.2384 22.7077 8.25871C23.2528 6.6652 24.0534 5.17251 25.0778 3.84003C19.792 5.04768 14.9599 7.75538 11.1529 11.643C7.34585 15.5305 4.72319 20.4354 3.59501 25.7775C2.46682 31.1196 2.8803 36.6755 4.78654 41.7883C6.69278 46.9011 10.0121 51.3569 14.3519 54.6288C15.794 54.0031 17.2498 53.3877 18.6712 52.7585Z" fill="#5CE1E6"/>
<path fill-rule="evenodd" clip-rule="evenodd" d="M22.5972 55.199C20.8677 55.688 19.1427 56.1712 17.4223 56.6487C24.0132 60.4155 31.817 61.3962 39.1241 59.3762C46.4312 57.3561 52.6459 52.4999 56.4069 45.8714C52.904 51.3463 47.5196 55.3262 41.2854 57.0486C35.0511 58.7711 28.4053 58.1149 22.6214 55.2059L22.5972 55.199Z" fill="#5CE1E6"/>
<path fill-rule="evenodd" clip-rule="evenodd" d="M27.5445 6.41265C32.9121 4.9701 38.5954 5.27996 43.7772 7.29769C48.959 9.31542 53.3724 12.9371 56.3827 17.6419C53.8848 13.2248 50.2705 9.55319 45.9074 7.00064C41.5443 4.44809 36.5881 3.10567 31.543 3.10993C30.3378 3.11117 29.1338 3.18664 27.9378 3.33591C27.6958 4.34398 27.5639 5.37569 27.5445 6.41265Z" fill="#5CE1E6"/>
</svg>
