<svg width="200" height="200" viewBox="0 0 200 200" fill="none" xmlns="http://www.w3.org/2000/svg">
<rect width="200" height="200" rx="64" fill="url(#paint0_linear_155_35)"/>
<g clip-path="url(#clip0_155_35)">
<path d="M94.1512 85.5532C94.4941 85.3906 94.7671 85.2822 95.0121 85.1399C106.198 78.8599 117.383 72.5798 128.569 66.2998C128.8 66.171 129.017 66.0288 129.255 65.9136C130.585 65.2429 131.887 65.5749 132.58 66.7604C133.315 68.0002 132.979 69.328 131.67 70.0597C126.798 72.7966 121.912 75.5132 117.033 78.2366C109.698 82.3352 102.369 86.4406 95.0191 90.5122C94.2912 90.9119 94.0602 91.3454 94.0602 92.1381C94.0882 102.327 94.0602 112.509 94.1022 122.698C94.1022 124.236 93.5142 125.205 92.1282 125.957C85.7724 129.425 79.4516 132.955 73.1238 136.471C71.0099 137.643 69.1339 136.607 69.1339 134.229C69.1339 115.795 68.9729 97.3681 69.2039 78.9344C69.3089 70.4797 73.1448 63.7457 80.9496 59.3965C96.7131 50.6098 112.442 41.7622 128.177 32.9417C128.506 32.7587 128.828 32.5691 129.164 32.3997C130.578 31.6613 131.866 31.9593 132.587 33.172C133.343 34.4456 132.972 35.7531 131.593 36.5322C124.95 40.2447 118.286 43.9368 111.651 47.6696C108.354 49.5259 104.945 51.2534 101.858 53.4077C97.777 56.253 94.9631 60.0604 94.2352 65.0532C94.1512 65.6291 94.0952 66.2185 94.0952 66.8011C94.0882 72.8102 94.0952 78.8192 94.0952 84.8283C94.0952 85.0383 94.1302 85.2483 94.1582 85.5532H94.1512Z" fill="#262626"/>
<path d="M108.025 118.999C108.025 109.657 108.039 100.308 108.004 90.9661C108.004 89.5434 108.599 88.6017 109.817 87.9311C116.187 84.4083 122.549 80.8787 128.912 77.3424C129.969 76.753 131.033 76.5159 132.083 77.3017C132.881 77.8979 132.979 78.7583 132.979 79.6728C132.965 87.3281 132.979 94.9902 132.979 102.645C132.979 113.092 133.049 123.532 132.958 133.978C132.881 143.158 128.961 150.237 120.47 154.776C114.584 157.926 108.844 161.341 102.957 164.498C95.7822 168.345 88.3064 169.362 80.6906 165.785C73.2849 162.303 69.477 156.253 68.224 148.537C68.147 148.069 68.105 147.595 68.035 147.121C67.832 145.718 68.42 144.756 69.687 144.045C79.4447 138.591 89.1884 133.118 98.9391 127.651C100.437 126.81 101.774 127.068 102.565 128.335C103.342 129.574 102.915 130.882 101.41 131.722C92.2403 136.844 83.0706 141.958 73.8799 147.046C73.1309 147.459 72.9349 147.852 73.1169 148.686C74.1599 153.394 76.2318 157.506 80.3967 160.331C85.8285 164.017 91.6873 164.159 97.6791 161.815C103.615 159.491 108.011 152.866 108.025 146.369C108.039 137.243 108.025 128.118 108.025 118.999Z" fill="#262626"/>
</g>
<defs>
<linearGradient id="paint0_linear_155_35" x1="0" y1="0" x2="200" y2="196" gradientUnits="userSpaceOnUse">
<stop stop-color="#EBEBEB"/>
<stop offset="1" stop-color="white"/>
</linearGradient>
<clipPath id="clip0_155_35">
<rect width="65" height="136" fill="white" transform="translate(68 32)"/>
</clipPath>
</defs>
</svg>