<svg width="172" height="59" viewBox="0 0 172 59" fill="none" xmlns="http://www.w3.org/2000/svg">
<path d="M2.41323 12.1821H16.9851C17.127 12.1821 17.2588 12.2549 17.3343 12.375L24.4431 23.6778L32.3961 10.8083C32.3961 10.8083 34.059 8.35017 33.0469 3C33.0652 3.09705 33.927 3.47107 34.0278 3.53583C34.8025 4.03372 35.5029 4.6556 36.0829 5.37111C38.2088 7.9932 38.5684 11.974 36.7986 14.8387C35.7781 16.4906 34.7576 18.1424 33.7372 19.7943C30.5638 24.9311 27.3903 30.0679 24.2169 35.2047C21.9997 38.7938 19.7824 42.3829 17.5652 45.9719C17.4966 46.0829 17.4339 46.2019 17.3576 46.3079C17.3576 46.3079 16.0562 48.1155 15.6947 51.5858C15.6947 51.5858 10.4891 48.3323 16.7793 36.3304L2.0635 12.8135C1.89154 12.5387 2.08907 12.1821 2.41323 12.1821Z" fill="white"/>
<path d="M2.41323 12.1821H16.9851C17.127 12.1821 17.2588 12.2549 17.3343 12.375L24.4431 23.6778L32.3961 10.8083C32.3961 10.8083 34.059 8.35017 33.0469 3C33.0652 3.09705 33.927 3.47107 34.0278 3.53583C34.8025 4.03372 35.5029 4.6556 36.0829 5.37111C38.2088 7.9932 38.5684 11.974 36.7986 14.8387C35.7781 16.4906 34.7576 18.1424 33.7372 19.7943C30.5638 24.9311 27.3903 30.0679 24.2169 35.2047C21.9997 38.7938 19.7824 42.3829 17.5652 45.9719C17.4966 46.0829 17.4339 46.2019 17.3576 46.3079C17.3576 46.3079 16.0562 48.1155 15.6947 51.5858C15.6947 51.5858 10.4891 48.3323 16.7793 36.3304L2.0635 12.8135C1.89154 12.5387 2.08907 12.1821 2.41323 12.1821Z" fill="url(#paint0_linear_841_101)"/>
<path d="M18.6041 56.9844H30.3971C31.0759 56.9844 31.6262 56.4341 31.6262 55.7553V37.1258C33.9319 33.452 36.2377 29.7782 38.5434 26.1045C40.0695 23.673 41.5955 21.2415 43.1215 18.8099C43.6991 17.8896 44.2768 16.9693 44.8546 16.0486C46.146 13.9913 46.7791 12.2891 46.5549 9.82491C46.4416 8.58046 46.0898 7.35936 45.468 6.27197C45.1064 5.63975 44.6587 5.05977 44.146 4.54303C43.854 4.24887 42.1828 3.27297 42.1339 3C43.22 9.06792 39.6253 13.7556 36.6364 18.5828C33.4547 23.7214 30.273 28.8601 27.0913 33.9988C24.3482 38.4291 21.605 42.8594 18.8619 47.2898L18.6995 47.5522C17.8854 48.8669 17.4447 50.3785 17.4246 51.9247L17.3751 55.7393C17.3662 56.4243 17.919 56.9844 18.6041 56.9844Z" fill="white"/>
<path d="M18.6041 56.9844H30.3971C31.0759 56.9844 31.6262 56.4341 31.6262 55.7553V37.1258C33.9319 33.452 36.2377 29.7782 38.5434 26.1045C40.0695 23.673 41.5955 21.2415 43.1215 18.8099C43.6991 17.8896 44.2768 16.9693 44.8546 16.0486C46.146 13.9913 46.7791 12.2891 46.5549 9.82491C46.4416 8.58046 46.0898 7.35936 45.468 6.27197C45.1064 5.63975 44.6587 5.05977 44.146 4.54303C43.854 4.24887 42.1828 3.27297 42.1339 3C43.22 9.06792 39.6253 13.7556 36.6364 18.5828C33.4547 23.7214 30.273 28.8601 27.0913 33.9988C24.3482 38.4291 21.605 42.8594 18.8619 47.2898L18.6995 47.5522C17.8854 48.8669 17.4447 50.3785 17.4246 51.9247L17.3751 55.7393C17.3662 56.4243 17.919 56.9844 18.6041 56.9844Z" fill="url(#paint1_linear_841_101)"/>
<path d="M152.623 32.2391V27.5641H157.353V19.0391H163.623V27.5641H169.288V32.2391H163.623V47.4191C163.623 48.8857 163.77 49.8574 164.063 50.3341C164.466 50.9941 165.328 51.3241 166.648 51.3241C167.821 51.3241 168.701 51.2507 169.288 51.1041V55.9441C166.538 56.1641 165.181 56.2741 165.218 56.2741C162.138 56.2741 160.011 55.6507 158.838 54.4041C157.848 53.3774 157.353 51.5807 157.353 49.0141V32.2391H152.623Z" fill="#434343"/>
<path d="M142.381 56.0005V27.5655H148.651V56.0005H142.381ZM142.381 22.6705V16.7305H148.651V22.6705H142.381Z" fill="#434343"/>
<path d="M122.062 32.2405V27.5655H126.737V25.2005C126.737 21.9005 127.544 19.5721 129.158 18.2155C130.368 17.2255 132.183 16.7305 134.603 16.7305C136.619 16.7305 138.086 16.8588 139.002 17.1155V22.0105C138.196 21.7905 137.224 21.6805 136.087 21.6805C134.034 21.6805 133.007 22.6705 133.007 24.6505V27.5655H138.342V32.2405H133.007V56.0005H126.737V32.2405H122.062Z" fill="#434343"/>
<path d="M93.2852 55.9999V27.5649H99.2252V31.7449L99.3352 31.8549C101.352 28.4816 104.303 26.7949 108.19 26.7949C111.343 26.7949 113.8 27.6199 115.56 29.2699C117.357 30.9199 118.255 33.3216 118.255 36.4749V55.9999H111.985V38.1249C111.985 33.8716 110.133 31.7449 106.43 31.7449C104.377 31.7449 102.708 32.4599 101.425 33.8899C100.178 35.3199 99.5552 37.0983 99.5552 39.2249V55.9999H93.2852Z" fill="#434343"/>
<path d="M73.9492 55.9999V27.5649H79.8342V33.0649H79.9442C80.3109 31.4883 81.3192 30.0583 82.9692 28.7749C84.6192 27.4549 86.3792 26.7949 88.2492 26.7949C88.7259 26.7949 89.5142 26.8499 90.6142 26.9599V33.0099C89.1476 32.8266 88.2492 32.7349 87.9192 32.7349C85.6826 32.7349 83.8676 33.5783 82.4742 35.2649C80.9709 37.0249 80.2192 39.4266 80.2192 42.4699V55.9999H73.9492Z" fill="#434343"/>
<path d="M60.9327 46.4299V41.7549C60.126 42.2683 58.9527 42.6533 57.4127 42.9099C56.0193 43.0933 54.626 43.2766 53.2327 43.4599C49.8227 44.0466 48.1177 45.6233 48.1177 48.1899C48.1177 49.4366 48.8143 50.3899 50.2077 51.0499C51.271 51.5633 52.4993 51.8199 53.8927 51.8199C55.5793 51.8199 57.101 51.4166 58.4577 50.6099C60.1077 49.6199 60.9327 48.2266 60.9327 46.4299ZM67.2027 35.0449V49.6749C67.2027 51.1049 67.6977 51.8199 68.6877 51.8199C69.2743 51.8199 69.7877 51.7833 70.2277 51.7099V56.0549C68.871 56.5316 67.551 56.7699 66.2677 56.7699C63.481 56.7699 61.8677 55.6149 61.4277 53.3049C59.081 55.6149 55.7993 56.7699 51.5827 56.7699C48.8327 56.7699 46.5777 56.0733 44.8177 54.6799C42.8377 53.1766 41.8477 51.1049 41.8477 48.4649C41.8477 45.3116 43.021 43.0383 45.3677 41.6449C46.7977 40.8016 49.2727 40.1233 52.7927 39.6099C56.7527 39.0233 58.7327 38.7299 58.7327 38.7299C60.456 38.2166 61.3177 37.1716 61.3177 35.5949C61.3177 33.0283 59.356 31.7449 55.4327 31.7449C51.5093 31.7449 49.4193 33.2483 49.1627 36.2549H42.8927C43.2593 29.9483 47.5677 26.7949 55.8177 26.7949C58.9343 26.7949 61.5193 27.4183 63.5727 28.6649C65.9927 30.1316 67.2027 32.2583 67.2027 35.0449Z" fill="#434343"/>
<defs>
<linearGradient id="paint0_linear_841_101" x1="2" y1="51.5858" x2="37.9293" y2="51.5858" gradientUnits="userSpaceOnUse">
<stop stop-color="#495AFF"/>
<stop offset="1" stop-color="#0ACFFE"/>
</linearGradient>
<linearGradient id="paint1_linear_841_101" x1="17.375" y1="56.9844" x2="46.5993" y2="56.9844" gradientUnits="userSpaceOnUse">
<stop stop-color="#495AFF"/>
<stop offset="1" stop-color="#0ACFFE"/>
</linearGradient>
</defs>
</svg>
