<svg width="200" height="200" viewBox="0 0 200 200" fill="none" xmlns="http://www.w3.org/2000/svg">
<rect width="200" height="200" rx="48" fill="#004041"/>
<rect width="200" height="200" rx="48" fill="url(#paint0_linear_233_66)" fill-opacity="0.16"/>
<path fill-rule="evenodd" clip-rule="evenodd" d="M59.1913 60.7348H130.678C132.42 60.7348 133.833 62.1403 133.833 63.8722C133.833 65.6042 132.42 67.0096 130.678 67.0096H60.3029C60.7067 69.2324 61.1064 71.4572 61.5082 73.6799C61.9182 75.9574 62.3301 78.2349 62.7482 80.5408H120.266C122.008 80.5408 123.422 81.9463 123.422 83.6782C123.422 85.4102 122.008 86.8156 120.266 86.8156H63.8965C64.3431 89.2331 64.8061 91.6992 65.2895 94.2464C65.5872 95.806 65.9482 97.8158 66.2786 99.6471C67.5574 106.741 68.1896 110.242 69.8661 111.408C71.7119 112.692 75.9806 112.647 84.4017 112.562C87.2427 112.533 90.4203 112.499 92.1273 112.499C93.298 112.499 96.8651 112.525 100.092 112.548C110.787 112.625 116.273 112.663 119.569 110.917C122.887 109.161 125.016 104.835 129.385 95.9581L131.331 92.0034C134.584 85.4568 138.128 78.8393 141.669 72.2217C143.429 68.9363 145.189 65.6488 146.882 62.4242C147.112 61.9841 147.435 61.6272 147.812 61.3514C136.746 48.2968 120.179 40 101.662 40C84.8769 40 69.6928 46.8183 58.7549 57.8165C58.8813 58.7047 59.0241 59.6863 59.1913 60.7348Z" fill="#FFCC00"/>
<path fill-rule="evenodd" clip-rule="evenodd" d="M59.1913 60.7348H130.678C132.42 60.7348 133.833 62.1403 133.833 63.8722C133.833 65.6042 132.42 67.0096 130.678 67.0096H60.3029C60.7067 69.2324 61.1064 71.4572 61.5082 73.6799C61.9182 75.9574 62.3301 78.2349 62.7482 80.5408H120.266C122.008 80.5408 123.422 81.9463 123.422 83.6782C123.422 85.4102 122.008 86.8156 120.266 86.8156H63.8965C64.3431 89.2331 64.8061 91.6992 65.2895 94.2464C65.5872 95.806 65.9482 97.8158 66.2786 99.6471C67.5574 106.741 68.1896 110.242 69.8661 111.408C71.7119 112.692 75.9806 112.647 84.4017 112.562C87.2427 112.533 90.4203 112.499 92.1273 112.499C93.298 112.499 96.8651 112.525 100.092 112.548C110.787 112.625 116.273 112.663 119.569 110.917C122.887 109.161 125.016 104.835 129.385 95.9581L131.331 92.0034C134.584 85.4568 138.128 78.8393 141.669 72.2217C143.429 68.9363 145.189 65.6488 146.882 62.4242C147.112 61.9841 147.435 61.6272 147.812 61.3514C136.746 48.2968 120.179 40 101.662 40C84.8769 40 69.6928 46.8183 58.7549 57.8165C58.8813 58.7047 59.0241 59.6863 59.1913 60.7348Z" fill="url(#paint1_linear_233_66)"/>
<path fill-rule="evenodd" clip-rule="evenodd" d="M151.785 66.5878C150.257 69.4859 148.736 72.3272 147.217 75.1644C143.766 81.6096 140.313 88.0568 136.976 94.7737C135.712 97.3209 135.345 98.0632 135.03 98.7041C130.058 108.806 127.635 113.728 122.528 116.433C117.821 118.924 111.802 118.883 100.067 118.798C98.5151 118.788 96.8019 118.776 92.1274 118.776C88.0871 118.776 86.1557 118.796 84.4527 118.812C74.7059 118.914 69.7662 118.964 66.2685 116.533C62.4607 113.882 61.6775 109.544 60.0928 100.75C59.8399 99.3449 59.5585 97.7813 59.1037 95.3983C57.882 88.9734 56.6012 81.8793 55.3224 74.7831C54.7004 71.3294 54.0763 67.8756 53.4461 64.4238C53.4196 64.288 53.3971 64.1541 53.3727 64.0203C45.8061 74.0449 41.3232 86.5013 41.3232 100C41.3232 133.138 68.3386 160 101.662 160C134.986 160 162.001 133.138 162.001 100C162.001 87.6309 158.236 76.1379 151.785 66.5878ZM74.7773 145.937C69.0055 145.937 64.3248 141.283 64.3248 135.544C64.3248 129.804 69.0055 125.15 74.7773 125.15C80.5491 125.15 85.2298 129.804 85.2298 135.544C85.2298 141.283 80.5511 145.937 74.7773 145.937ZM113.43 142.8C109.4 142.8 106.133 139.551 106.133 135.544C106.133 131.536 109.4 128.287 113.43 128.287C117.46 128.287 120.725 131.536 120.725 135.544C120.725 139.551 117.46 142.8 113.43 142.8Z" fill="#FFCC00"/>
<path fill-rule="evenodd" clip-rule="evenodd" d="M151.785 66.5878C150.257 69.4859 148.736 72.3272 147.217 75.1644C143.766 81.6096 140.313 88.0568 136.976 94.7737C135.712 97.3209 135.345 98.0632 135.03 98.7041C130.058 108.806 127.635 113.728 122.528 116.433C117.821 118.924 111.802 118.883 100.067 118.798C98.5151 118.788 96.8019 118.776 92.1274 118.776C88.0871 118.776 86.1557 118.796 84.4527 118.812C74.7059 118.914 69.7662 118.964 66.2685 116.533C62.4607 113.882 61.6775 109.544 60.0928 100.75C59.8399 99.3449 59.5585 97.7813 59.1037 95.3983C57.882 88.9734 56.6012 81.8793 55.3224 74.7831C54.7004 71.3294 54.0763 67.8756 53.4461 64.4238C53.4196 64.288 53.3971 64.1541 53.3727 64.0203C45.8061 74.0449 41.3232 86.5013 41.3232 100C41.3232 133.138 68.3386 160 101.662 160C134.986 160 162.001 133.138 162.001 100C162.001 87.6309 158.236 76.1379 151.785 66.5878ZM74.7773 145.937C69.0055 145.937 64.3248 141.283 64.3248 135.544C64.3248 129.804 69.0055 125.15 74.7773 125.15C80.5491 125.15 85.2298 129.804 85.2298 135.544C85.2298 141.283 80.5511 145.937 74.7773 145.937ZM113.43 142.8C109.4 142.8 106.133 139.551 106.133 135.544C106.133 131.536 109.4 128.287 113.43 128.287C117.46 128.287 120.725 131.536 120.725 135.544C120.725 139.551 117.46 142.8 113.43 142.8Z" fill="url(#paint2_linear_233_66)"/>
<path d="M52.1265 62.0186C51.635 59.3253 51.3556 57.3784 51.1312 55.7945L51.119 55.6992C50.7539 53.1357 50.5581 51.785 50.4092 51.6492C50.2624 51.5153 48.6736 51.5782 45.3248 51.71C44.1928 51.7546 42.8977 51.8074 41.2192 51.8479C39.4836 51.8885 38.0417 50.5216 38.0009 48.7957C37.9601 47.0698 39.3347 45.638 41.0703 45.5974C42.4735 45.563 43.8665 45.5062 45.078 45.4595C50.1808 45.2567 52.6017 45.1634 54.6473 47.0151C56.4564 48.6517 56.7766 50.7872 57.3497 54.8129L57.366 54.9103C57.5108 55.9243 57.676 57.0783 57.8738 58.3275H129.361C131.102 58.3275 132.516 59.733 132.516 61.4649C132.516 63.1969 131.102 64.6023 129.361 64.6023H58.9854C59.3892 66.8251 59.7889 69.0499 60.1907 71.2726C60.6007 73.5501 61.0126 75.8276 61.4307 78.1335H118.949C120.691 78.1335 122.104 79.539 122.104 81.2709C122.104 83.0029 120.691 84.4083 118.949 84.4083H62.579C63.0256 86.8258 63.4886 89.2919 63.972 91.8391C64.2697 93.3967 64.6307 95.4085 64.9611 97.2398C66.2399 104.334 66.8721 107.834 68.5486 109.001C70.3944 110.284 74.6631 110.24 83.0842 110.154C85.9252 110.126 89.1028 110.092 90.8098 110.092C91.9805 110.092 95.5476 110.116 98.7741 110.14C109.469 110.215 114.956 110.256 118.251 108.51C121.57 106.753 123.699 102.428 128.068 93.5508L130.013 89.5961C133.266 83.0495 136.811 76.432 140.352 69.8144C142.112 66.529 143.872 63.2415 145.564 60.0169C146.368 58.4878 148.267 57.8956 149.805 58.6926C151.342 59.4916 151.938 61.3798 151.136 62.9089C149.38 66.2491 147.639 69.5021 145.897 72.7551C142.446 79.2003 138.993 85.6475 135.657 92.3644C134.392 94.9116 134.025 95.6539 133.711 96.2948C128.741 106.396 126.318 111.321 121.209 114.024C116.502 116.516 110.483 116.474 98.7476 116.391C97.1955 116.381 95.4824 116.368 90.8078 116.368C86.7675 116.368 84.8361 116.389 83.1331 116.405C73.3863 116.504 68.4466 116.555 64.9509 114.123C61.1411 111.473 60.36 107.135 58.7753 98.3431C58.5224 96.9376 58.241 95.374 57.7861 92.9911C56.5624 86.5662 55.2837 79.472 54.0029 72.3759C53.3808 68.9221 52.7567 65.4683 52.1265 62.0166V62.0186Z" fill="#2EA7AA"/>
<path fill-rule="evenodd" clip-rule="evenodd" d="M73.4598 122.745C79.2316 122.745 83.9123 127.399 83.9123 133.138C83.9123 138.878 79.2316 143.532 73.4598 143.532C67.688 143.532 63.0073 138.878 63.0073 133.138C63.0073 127.399 67.688 122.745 73.4598 122.745Z" fill="#2EA7AA"/>
<path fill-rule="evenodd" clip-rule="evenodd" d="M112.111 125.882C116.141 125.882 119.408 129.131 119.408 133.138C119.408 137.146 116.141 140.395 112.111 140.395C108.081 140.395 104.813 137.146 104.813 133.138C104.813 129.131 108.081 125.882 112.111 125.882Z" fill="#2EA7AA"/>
<defs>
<linearGradient id="paint0_linear_233_66" x1="200" y1="200" x2="200" y2="0" gradientUnits="userSpaceOnUse">
<stop stop-color="#FE5196"/>
<stop offset="1" stop-color="#F77062"/>
</linearGradient>
<linearGradient id="paint1_linear_233_66" x1="167.98" y1="41.4716" x2="65.4167" y2="143.344" gradientUnits="userSpaceOnUse">
<stop stop-color="#D3FFA7"/>
<stop offset="1" stop-color="#B8FE72"/>
</linearGradient>
<linearGradient id="paint2_linear_233_66" x1="189.33" y1="65.9658" x2="53.7532" y2="203.991" gradientUnits="userSpaceOnUse">
<stop stop-color="#D3FFA7"/>
<stop offset="1" stop-color="#B8FE72"/>
</linearGradient>
</defs>
</svg>