<svg width="203" height="48" viewBox="0 0 203 48" fill="none" xmlns="http://www.w3.org/2000/svg">
<path d="M61 27.1719C60.8906 26.7917 60.737 26.4557 60.5391 26.1641C60.3411 25.8672 60.099 25.6172 59.8125 25.4141C59.5313 25.2057 59.2083 25.0469 58.8438 24.9375C58.4844 24.8281 58.0859 24.7734 57.6484 24.7734C56.8307 24.7734 56.112 24.9766 55.4922 25.3828C54.8776 25.7891 54.3984 26.3802 54.0547 27.1562C53.7109 27.9271 53.5391 28.8698 53.5391 29.9844C53.5391 31.099 53.7083 32.0469 54.0469 32.8281C54.3854 33.6094 54.8646 34.2057 55.4844 34.6172C56.1042 35.0234 56.8359 35.2266 57.6797 35.2266C58.4453 35.2266 59.099 35.0911 59.6406 34.8203C60.1875 34.5443 60.6042 34.1562 60.8906 33.6562C61.1823 33.1562 61.3281 32.5651 61.3281 31.8828L62.0156 31.9844H57.8906V29.4375H64.5859V31.4531C64.5859 32.8594 64.2891 34.0677 63.6953 35.0781C63.1016 36.0833 62.2839 36.8594 61.2422 37.4062C60.2005 37.9479 59.0078 38.2187 57.6641 38.2187C56.1641 38.2187 54.8464 37.888 53.7109 37.2266C52.5755 36.5599 51.6901 35.6146 51.0547 34.3906C50.4245 33.1615 50.1094 31.7031 50.1094 30.0156C50.1094 28.7187 50.2969 27.5625 50.6719 26.5469C51.0521 25.526 51.5833 24.6615 52.2656 23.9531C52.9479 23.2448 53.7422 22.7057 54.6484 22.3359C55.5547 21.9661 56.5365 21.7812 57.5938 21.7812C58.5 21.7812 59.3438 21.9141 60.125 22.1797C60.9063 22.4401 61.599 22.8099 62.2031 23.2891C62.8125 23.7682 63.3099 24.3385 63.6953 25C64.0807 25.6562 64.3281 26.3802 64.4375 27.1719H61ZM72.2332 38.2344C70.9988 38.2344 69.9363 37.9844 69.0457 37.4844C68.1603 36.9792 67.478 36.2656 66.9988 35.3437C66.5197 34.4167 66.2801 33.3203 66.2801 32.0547C66.2801 30.8203 66.5197 29.737 66.9988 28.8047C67.478 27.8724 68.1525 27.1458 69.0223 26.625C69.8973 26.1042 70.9233 25.8438 72.1004 25.8438C72.8921 25.8438 73.629 25.9714 74.3113 26.2266C74.9988 26.4766 75.5978 26.8542 76.1082 27.3594C76.6238 27.8646 77.0249 28.5 77.3113 29.2656C77.5978 30.026 77.741 30.9167 77.741 31.9375V32.8516H67.6082V30.7891H74.6082C74.6082 30.3099 74.504 29.8854 74.2957 29.5156C74.0874 29.1458 73.7983 28.8568 73.4285 28.6484C73.0639 28.4349 72.6395 28.3281 72.1551 28.3281C71.6499 28.3281 71.202 28.4453 70.8113 28.6797C70.4259 28.9089 70.1238 29.2187 69.9051 29.6094C69.6863 29.9948 69.5743 30.4245 69.5691 30.8984V32.8594C69.5691 33.4531 69.6785 33.9661 69.8973 34.3984C70.1212 34.8307 70.4363 35.1641 70.8426 35.3984C71.2488 35.6328 71.7306 35.75 72.2879 35.75C72.6577 35.75 72.9962 35.6979 73.3035 35.5938C73.6108 35.4896 73.8738 35.3333 74.0926 35.125C74.3113 34.9167 74.478 34.6615 74.5926 34.3594L77.6707 34.5625C77.5145 35.3021 77.1941 35.9479 76.7098 36.5C76.2306 37.0469 75.6108 37.474 74.8504 37.7813C74.0952 38.0833 73.2228 38.2344 72.2332 38.2344ZM85.9957 26V28.5H78.7691V26H85.9957ZM80.4098 23.125H83.7379V34.3125C83.7379 34.6198 83.7848 34.8594 83.8785 35.0312C83.9723 35.1979 84.1025 35.3151 84.2691 35.3828C84.441 35.4505 84.6389 35.4844 84.8629 35.4844C85.0191 35.4844 85.1754 35.4714 85.3316 35.4453C85.4879 35.4141 85.6077 35.3906 85.691 35.375L86.2145 37.8516C86.0478 37.9036 85.8134 37.9635 85.5113 38.0313C85.2092 38.1042 84.8421 38.1484 84.4098 38.1641C83.6077 38.1953 82.9046 38.0885 82.3004 37.8437C81.7014 37.599 81.2353 37.2187 80.902 36.7031C80.5686 36.1875 80.4046 35.5365 80.4098 34.75V23.125ZM102.043 27.6016H98.6215C98.559 27.1589 98.4314 26.7656 98.2387 26.4219C98.046 26.0729 97.7986 25.776 97.4965 25.5312C97.1944 25.2865 96.8454 25.099 96.4496 24.9687C96.059 24.8385 95.6345 24.7734 95.1762 24.7734C94.348 24.7734 93.6267 24.9792 93.0121 25.3906C92.3975 25.7969 91.921 26.3906 91.5824 27.1719C91.2439 27.9479 91.0746 28.8906 91.0746 30C91.0746 31.1406 91.2439 32.099 91.5824 32.875C91.9262 33.651 92.4053 34.237 93.0199 34.6328C93.6345 35.0286 94.3454 35.2266 95.1527 35.2266C95.6059 35.2266 96.0251 35.1667 96.4105 35.0469C96.8012 34.9271 97.1475 34.7526 97.4496 34.5234C97.7517 34.2891 98.0017 34.0052 98.1996 33.6719C98.4027 33.3385 98.5434 32.9583 98.6215 32.5312L102.043 32.5469C101.955 33.2812 101.733 33.9896 101.379 34.6719C101.03 35.349 100.559 35.9557 99.9652 36.4922C99.3767 37.0234 98.6736 37.4453 97.8559 37.7578C97.0434 38.0651 96.1241 38.2187 95.098 38.2187C93.671 38.2187 92.3949 37.8958 91.2699 37.25C90.1501 36.6042 89.2647 35.6693 88.6137 34.4453C87.9678 33.2214 87.6449 31.7396 87.6449 30C87.6449 28.2552 87.973 26.7708 88.6293 25.5469C89.2855 24.3229 90.1762 23.3906 91.3012 22.75C92.4262 22.1042 93.6918 21.7812 95.098 21.7812C96.0251 21.7812 96.8845 21.9115 97.6762 22.1719C98.473 22.4323 99.1788 22.8125 99.7934 23.3125C100.408 23.8073 100.908 24.4141 101.293 25.1328C101.684 25.8516 101.934 26.6745 102.043 27.6016ZM109.529 38.2344C108.315 38.2344 107.265 37.9766 106.38 37.4609C105.5 36.9401 104.82 36.2161 104.341 35.2891C103.862 34.3568 103.622 33.276 103.622 32.0469C103.622 30.8073 103.862 29.724 104.341 28.7969C104.82 27.8646 105.5 27.1406 106.38 26.625C107.265 26.1042 108.315 25.8438 109.529 25.8438C110.742 25.8438 111.789 26.1042 112.669 26.625C113.555 27.1406 114.237 27.8646 114.716 28.7969C115.195 29.724 115.435 30.8073 115.435 32.0469C115.435 33.276 115.195 34.3568 114.716 35.2891C114.237 36.2161 113.555 36.9401 112.669 37.4609C111.789 37.9766 110.742 38.2344 109.529 38.2344ZM109.544 35.6562C110.096 35.6562 110.557 35.5 110.927 35.1875C111.297 34.8698 111.575 34.4375 111.763 33.8906C111.956 33.3437 112.052 32.7214 112.052 32.0234C112.052 31.3255 111.956 30.7031 111.763 30.1562C111.575 29.6094 111.297 29.1771 110.927 28.8594C110.557 28.5417 110.096 28.3828 109.544 28.3828C108.987 28.3828 108.518 28.5417 108.138 28.8594C107.763 29.1771 107.479 29.6094 107.286 30.1562C107.099 30.7031 107.005 31.3255 107.005 32.0234C107.005 32.7214 107.099 33.3437 107.286 33.8906C107.479 34.4375 107.763 34.8698 108.138 35.1875C108.518 35.5 108.987 35.6562 109.544 35.6562ZM117.299 38V26H120.471V28.1172H120.611C120.861 27.4141 121.278 26.8594 121.861 26.4531C122.445 26.0469 123.143 25.8438 123.955 25.8438C124.778 25.8438 125.479 26.0495 126.057 26.4609C126.635 26.8672 127.02 27.4193 127.213 28.1172H127.338C127.583 27.4297 128.025 26.8802 128.666 26.4687C129.312 26.0521 130.075 25.8438 130.955 25.8438C132.075 25.8438 132.984 26.2005 133.682 26.9141C134.385 27.6224 134.736 28.6276 134.736 29.9297V38H131.416V30.5859C131.416 29.9193 131.239 29.4193 130.885 29.0859C130.531 28.7526 130.088 28.5859 129.557 28.5859C128.952 28.5859 128.481 28.7786 128.143 29.1641C127.804 29.5443 127.635 30.0469 127.635 30.6719V38H124.408V30.5156C124.408 29.9271 124.239 29.4583 123.9 29.1094C123.567 28.7604 123.127 28.5859 122.58 28.5859C122.21 28.5859 121.877 28.6797 121.58 28.8672C121.288 29.0495 121.057 29.3073 120.885 29.6406C120.713 29.9687 120.627 30.3542 120.627 30.7969V38H117.299ZM137.065 38V26H140.237V28.1172H140.378C140.628 27.4141 141.044 26.8594 141.628 26.4531C142.211 26.0469 142.909 25.8438 143.721 25.8438C144.544 25.8438 145.245 26.0495 145.823 26.4609C146.401 26.8672 146.787 27.4193 146.979 28.1172H147.104C147.349 27.4297 147.792 26.8802 148.432 26.4687C149.078 26.0521 149.841 25.8438 150.721 25.8438C151.841 25.8438 152.75 26.2005 153.448 26.9141C154.151 27.6224 154.503 28.6276 154.503 29.9297V38H151.182V30.5859C151.182 29.9193 151.005 29.4193 150.651 29.0859C150.297 28.7526 149.854 28.5859 149.323 28.5859C148.719 28.5859 148.248 28.7786 147.909 29.1641C147.57 29.5443 147.401 30.0469 147.401 30.6719V38H144.175V30.5156C144.175 29.9271 144.005 29.4583 143.667 29.1094C143.333 28.7604 142.893 28.5859 142.346 28.5859C141.977 28.5859 141.643 28.6797 141.346 28.8672C141.055 29.0495 140.823 29.3073 140.651 29.6406C140.479 29.9687 140.393 30.3542 140.393 30.7969V38H137.065ZM162.3 38.2344C161.066 38.2344 160.004 37.9844 159.113 37.4844C158.227 36.9792 157.545 36.2656 157.066 35.3437C156.587 34.4167 156.347 33.3203 156.347 32.0547C156.347 30.8203 156.587 29.737 157.066 28.8047C157.545 27.8724 158.22 27.1458 159.089 26.625C159.964 26.1042 160.99 25.8438 162.168 25.8438C162.959 25.8438 163.696 25.9714 164.379 26.2266C165.066 26.4766 165.665 26.8542 166.175 27.3594C166.691 27.8646 167.092 28.5 167.379 29.2656C167.665 30.026 167.808 30.9167 167.808 31.9375V32.8516H157.675V30.7891H164.675C164.675 30.3099 164.571 29.8854 164.363 29.5156C164.155 29.1458 163.865 28.8568 163.496 28.6484C163.131 28.4349 162.707 28.3281 162.222 28.3281C161.717 28.3281 161.269 28.4453 160.879 28.6797C160.493 28.9089 160.191 29.2187 159.972 29.6094C159.754 29.9948 159.642 30.4245 159.636 30.8984V32.8594C159.636 33.4531 159.746 33.9661 159.964 34.3984C160.188 34.8307 160.504 35.1641 160.91 35.3984C161.316 35.6328 161.798 35.75 162.355 35.75C162.725 35.75 163.063 35.6979 163.371 35.5938C163.678 35.4896 163.941 35.3333 164.16 35.125C164.379 34.9167 164.545 34.6615 164.66 34.3594L167.738 34.5625C167.582 35.3021 167.261 35.9479 166.777 36.5C166.298 37.0469 165.678 37.474 164.918 37.7813C164.162 38.0833 163.29 38.2344 162.3 38.2344ZM169.68 38V26H172.907V28.0937H173.032C173.25 27.349 173.618 26.7865 174.133 26.4063C174.649 26.0208 175.243 25.8281 175.914 25.8281C176.081 25.8281 176.261 25.8385 176.454 25.8594C176.646 25.8802 176.815 25.9089 176.961 25.9453V28.8984C176.805 28.8516 176.589 28.8099 176.313 28.7734C176.037 28.737 175.784 28.7188 175.555 28.7188C175.065 28.7188 174.628 28.8255 174.243 29.0391C173.862 29.2474 173.56 29.5391 173.336 29.9141C173.118 30.2891 173.008 30.7214 173.008 31.2109V38H169.68ZM183.245 38.2344C182.016 38.2344 180.959 37.974 180.073 37.4531C179.193 36.9271 178.516 36.1979 178.042 35.2656C177.573 34.3333 177.339 33.2604 177.339 32.0469C177.339 30.8177 177.576 29.7396 178.05 28.8125C178.529 27.8802 179.209 27.1536 180.089 26.6328C180.969 26.1068 182.016 25.8438 183.23 25.8438C184.277 25.8438 185.193 26.0339 185.98 26.4141C186.766 26.7943 187.389 27.3281 187.847 28.0156C188.305 28.7031 188.558 29.5104 188.605 30.4375H185.464C185.376 29.8385 185.141 29.3568 184.761 28.9922C184.386 28.6224 183.894 28.4375 183.284 28.4375C182.769 28.4375 182.318 28.5781 181.933 28.8594C181.553 29.1354 181.256 29.5391 181.042 30.0703C180.829 30.6016 180.722 31.2448 180.722 32C180.722 32.7656 180.826 33.4167 181.034 33.9531C181.248 34.4896 181.547 34.8984 181.933 35.1797C182.318 35.4609 182.769 35.6016 183.284 35.6016C183.665 35.6016 184.006 35.5234 184.308 35.3672C184.615 35.2109 184.868 34.9844 185.066 34.6875C185.269 34.3854 185.402 34.0234 185.464 33.6016H188.605C188.553 34.5182 188.303 35.3255 187.855 36.0234C187.412 36.7161 186.8 37.2578 186.019 37.6484C185.238 38.0391 184.313 38.2344 183.245 38.2344ZM195.904 38.2344C194.67 38.2344 193.607 37.9844 192.717 37.4844C191.831 36.9792 191.149 36.2656 190.67 35.3437C190.191 34.4167 189.951 33.3203 189.951 32.0547C189.951 30.8203 190.191 29.737 190.67 28.8047C191.149 27.8724 191.824 27.1458 192.693 26.625C193.568 26.1042 194.594 25.8438 195.771 25.8438C196.563 25.8438 197.3 25.9714 197.982 26.2266C198.67 26.4766 199.269 26.8542 199.779 27.3594C200.295 27.8646 200.696 28.5 200.982 29.2656C201.269 30.026 201.412 30.9167 201.412 31.9375V32.8516H191.279V30.7891H198.279C198.279 30.3099 198.175 29.8854 197.967 29.5156C197.758 29.1458 197.469 28.8568 197.1 28.6484C196.735 28.4349 196.311 28.3281 195.826 28.3281C195.321 28.3281 194.873 28.4453 194.482 28.6797C194.097 28.9089 193.795 29.2187 193.576 29.6094C193.357 29.9948 193.245 30.4245 193.24 30.8984V32.8594C193.24 33.4531 193.35 33.9661 193.568 34.3984C193.792 34.8307 194.107 35.1641 194.514 35.3984C194.92 35.6328 195.402 35.75 195.959 35.75C196.329 35.75 196.667 35.6979 196.975 35.5938C197.282 35.4896 197.545 35.3333 197.764 35.125C197.982 34.9167 198.149 34.6615 198.264 34.3594L201.342 34.5625C201.186 35.3021 200.865 35.9479 200.381 36.5C199.902 37.0469 199.282 37.474 198.521 37.7813C197.766 38.0833 196.894 38.2344 195.904 38.2344Z" fill="white"/>
<g clip-path="url(#clip0_501_154)">
<path d="M41.9696 44.8622C42.2272 46.5862 41.0071 48.0002 39.2565 48.0002H2.7433C0.992669 48.0002 -0.227468 46.5862 0.0302003 44.8622L3.77398 13.4974C4.03164 11.7734 5.68376 10.3594 7.43439 10.3594H34.5654C36.316 10.3594 37.9606 11.7734 38.2258 13.4974L41.9696 44.8546V44.8622Z" fill="white"/>
<path d="M21 36.8772C15.5435 36.8772 10.0264 33.2099 10.0264 26.208C10.0264 25.3309 10.7387 24.6201 11.6179 24.6201C12.497 24.6201 13.2093 25.3309 13.2093 26.208C13.2093 31.3574 17.2487 33.7014 21 33.7014C24.7514 33.7014 28.7907 31.3574 28.7907 26.208C28.7907 25.3309 29.5031 24.6201 30.3822 24.6201C31.2613 24.6201 31.9737 25.3309 31.9737 26.208C31.9737 33.2099 26.449 36.8772 21 36.8772Z" fill="#3C79F5"/>
<path d="M30.3822 12.2571C29.5031 12.2571 28.7907 11.5463 28.7907 10.6692C28.7907 5.51985 24.7514 3.1758 21 3.1758C17.2487 3.1758 13.2093 5.51985 13.2093 10.6692C13.2093 11.5463 12.497 12.2571 11.6179 12.2571C10.7387 12.2571 10.0264 11.5463 10.0264 10.6692C10.0264 3.6673 15.5435 0 21 0C26.4565 0 31.9737 3.6673 31.9737 10.6692C31.9737 11.5463 31.2613 12.2571 30.3822 12.2571Z" fill="white"/>
<path d="M14.2324 20.1436C14.2324 21.5878 13.0577 22.7599 11.6102 22.7599C10.1627 22.7599 8.98804 21.5878 8.98804 20.1436C8.98804 18.6994 10.1627 17.5273 11.6102 17.5273C13.0577 17.5273 14.2324 18.6994 14.2324 20.1436Z" fill="#3C79F5"/>
<path d="M27.4872 22.533C26.9567 22.533 26.4414 22.2684 26.1382 21.792C25.6684 21.051 25.8882 20.068 26.6308 19.5992C26.7824 19.5009 30.4428 17.2476 33.8077 19.6521C34.5201 20.1663 34.6868 21.1569 34.1714 21.8676C33.6561 22.5784 32.6633 22.7448 31.9509 22.2306C30.3367 21.0737 28.3436 22.2684 28.3284 22.2835C28.0632 22.4499 27.7676 22.533 27.4796 22.533H27.4872Z" fill="#3C79F5"/>
</g>
<defs>
<clipPath id="clip0_501_154">
<rect width="42" height="48" fill="white"/>
</clipPath>
</defs>
</svg>
