<svg width="372" height="80" viewBox="0 0 372 80" fill="none" xmlns="http://www.w3.org/2000/svg">
<path fill-rule="evenodd" clip-rule="evenodd" d="M14.175 13.8232H61.9953C63.1605 13.8232 64.1059 14.7602 64.1059 15.9148C64.1059 17.0695 63.1605 18.0064 61.9953 18.0064H14.9186C15.1887 19.4883 15.4561 20.9714 15.7249 22.4533C15.9991 23.9716 16.2747 25.4899 16.5544 27.0272H55.0306C56.1957 27.0272 57.1411 27.9642 57.1411 29.1188C57.1411 30.2734 56.1957 31.2104 55.0306 31.2104H17.3225C17.6213 32.822 17.931 34.4661 18.2543 36.1643C18.4535 37.204 18.695 38.5439 18.916 39.7647C19.7714 44.4942 20.1943 46.8278 21.3158 47.6052C22.5505 48.461 25.406 48.4313 31.0392 48.3745C32.9397 48.3556 35.0653 48.3326 36.2072 48.3326C36.9903 48.3326 39.3765 48.3502 41.5348 48.365C48.6893 48.4164 52.3592 48.4421 54.564 47.278C56.7837 46.1071 58.208 43.2233 61.1304 37.3054L62.4319 34.6689C64.608 30.3045 66.9792 25.8929 69.3476 21.4812C70.525 19.2909 71.7024 17.0992 72.8348 14.9495C72.9889 14.6561 73.2045 14.4181 73.4569 14.2342C66.0542 5.53118 54.9719 0 42.5854 0C31.3571 0 21.1998 4.54555 13.8831 11.8776C13.9676 12.4698 14.0631 13.1242 14.175 13.8232Z" fill="#FFCC00"/>
<path fill-rule="evenodd" clip-rule="evenodd" d="M14.175 13.8232H61.9953C63.1605 13.8232 64.1059 14.7602 64.1059 15.9148C64.1059 17.0695 63.1605 18.0064 61.9953 18.0064H14.9186C15.1887 19.4883 15.4561 20.9714 15.7249 22.4533C15.9991 23.9716 16.2747 25.4899 16.5544 27.0272H55.0306C56.1957 27.0272 57.1411 27.9642 57.1411 29.1188C57.1411 30.2734 56.1957 31.2104 55.0306 31.2104H17.3225C17.6213 32.822 17.931 34.4661 18.2543 36.1643C18.4535 37.204 18.695 38.5439 18.916 39.7647C19.7714 44.4942 20.1943 46.8278 21.3158 47.6052C22.5505 48.461 25.406 48.4313 31.0392 48.3745C32.9397 48.3556 35.0653 48.3326 36.2072 48.3326C36.9903 48.3326 39.3765 48.3502 41.5348 48.365C48.6893 48.4164 52.3592 48.4421 54.564 47.278C56.7837 46.1071 58.208 43.2233 61.1304 37.3054L62.4319 34.6689C64.608 30.3045 66.9792 25.8929 69.3476 21.4812C70.525 19.2909 71.7024 17.0992 72.8348 14.9495C72.9889 14.6561 73.2045 14.4181 73.4569 14.2342C66.0542 5.53118 54.9719 0 42.5854 0C31.3571 0 21.1998 4.54555 13.8831 11.8776C13.9676 12.4698 14.0631 13.1242 14.175 13.8232Z" fill="url(#paint0_linear_233_98)"/>
<path fill-rule="evenodd" clip-rule="evenodd" d="M76.1147 17.7252C75.0928 19.6573 74.075 21.5515 73.0586 23.443C70.7502 27.7397 68.4404 32.0378 66.2084 36.5158C65.3626 38.2139 65.117 38.7088 64.9069 39.136C61.5807 45.8705 59.9599 49.1519 56.5437 50.9555C53.3948 52.6158 49.3688 52.5888 41.5186 52.532C40.4803 52.5253 39.3343 52.5171 36.2073 52.5171C33.5046 52.5171 32.2126 52.5307 31.0734 52.5415C24.5534 52.6091 21.249 52.6429 18.9093 51.0218C16.3621 49.2547 15.8382 46.3627 14.7781 40.5002C14.609 39.5633 14.4207 38.5209 14.1164 36.9322C13.2992 32.649 12.4424 27.9195 11.587 23.1888C11.1709 20.8862 10.7534 18.5837 10.3319 16.2826C10.3141 16.192 10.2991 16.1027 10.2827 16.0135C5.22116 22.6966 2.22241 31.0008 2.22241 40C2.22241 62.0923 20.294 80 42.5854 80C64.8769 80 82.9485 62.0923 82.9485 40C82.9485 31.7539 80.43 24.0919 76.1147 17.7252ZM24.6011 70.625C20.7402 70.625 17.6091 67.522 17.6091 63.6958C17.6091 59.8695 20.7402 56.7666 24.6011 56.7666C28.4621 56.7666 31.5932 59.8695 31.5932 63.6958C31.5932 67.522 28.4635 70.625 24.6011 70.625ZM50.4575 68.5334C47.7616 68.5334 45.576 66.3674 45.576 63.6958C45.576 61.0242 47.7616 58.8582 50.4575 58.8582C53.1534 58.8582 55.3376 61.0242 55.3376 63.6958C55.3376 66.3674 53.1534 68.5334 50.4575 68.5334Z" fill="#FFCC00"/>
<path fill-rule="evenodd" clip-rule="evenodd" d="M76.1147 17.7252C75.0928 19.6573 74.075 21.5515 73.0586 23.443C70.7502 27.7397 68.4404 32.0378 66.2084 36.5158C65.3626 38.2139 65.117 38.7088 64.9069 39.136C61.5807 45.8705 59.9599 49.1519 56.5437 50.9555C53.3948 52.6158 49.3688 52.5888 41.5186 52.532C40.4803 52.5253 39.3343 52.5171 36.2073 52.5171C33.5046 52.5171 32.2126 52.5307 31.0734 52.5415C24.5534 52.6091 21.249 52.6429 18.9093 51.0218C16.3621 49.2547 15.8382 46.3627 14.7781 40.5002C14.609 39.5633 14.4207 38.5209 14.1164 36.9322C13.2992 32.649 12.4424 27.9195 11.587 23.1888C11.1709 20.8862 10.7534 18.5837 10.3319 16.2826C10.3141 16.192 10.2991 16.1027 10.2827 16.0135C5.22116 22.6966 2.22241 31.0008 2.22241 40C2.22241 62.0923 20.294 80 42.5854 80C64.8769 80 82.9485 62.0923 82.9485 40C82.9485 31.7539 80.43 24.0919 76.1147 17.7252ZM24.6011 70.625C20.7402 70.625 17.6091 67.522 17.6091 63.6958C17.6091 59.8695 20.7402 56.7666 24.6011 56.7666C28.4621 56.7666 31.5932 59.8695 31.5932 63.6958C31.5932 67.522 28.4635 70.625 24.6011 70.625ZM50.4575 68.5334C47.7616 68.5334 45.576 66.3674 45.576 63.6958C45.576 61.0242 47.7616 58.8582 50.4575 58.8582C53.1534 58.8582 55.3376 61.0242 55.3376 63.6958C55.3376 66.3674 53.1534 68.5334 50.4575 68.5334Z" fill="url(#paint1_linear_233_98)"/>
<path d="M9.44905 14.6791C9.12025 12.8836 8.93334 11.5856 8.78327 10.5297L8.77508 10.4661C8.53087 8.75715 8.3999 7.8567 8.3003 7.76611C8.20207 7.67688 7.13928 7.71879 4.89909 7.80667C4.1419 7.83642 3.27556 7.87157 2.15274 7.89861C0.991711 7.92565 0.0271456 7.01438 -0.000140536 5.8638C-0.0274267 4.71321 0.892116 3.75868 2.05314 3.73163C2.99178 3.70865 3.92361 3.67079 4.73401 3.6397C8.1475 3.50449 9.76693 3.4423 11.1353 4.67671C12.3455 5.7678 12.5597 7.1915 12.943 9.87529L12.954 9.94019C13.0508 10.6162 13.1613 11.3855 13.2937 12.2184H61.114C62.2791 12.2184 63.2246 13.1553 63.2246 14.31C63.2246 15.4646 62.2791 16.4016 61.114 16.4016H14.0372C14.3073 17.8834 14.5748 19.3666 14.8435 20.8484C15.1177 22.3668 15.3933 23.8851 15.673 25.4224H54.1492C55.3143 25.4224 56.2598 26.3593 56.2598 27.514C56.2598 28.6686 55.3143 29.6056 54.1492 29.6056H16.4411C16.7399 31.2172 17.0496 32.8613 17.3729 34.5594C17.5721 35.5978 17.8136 36.939 18.0346 38.1599C18.8901 42.8893 19.313 45.2229 20.4345 46.0004C21.6691 46.8562 24.5246 46.8264 30.1579 46.7697C32.0583 46.7507 34.1839 46.7277 35.3259 46.7277C36.109 46.7277 38.4951 46.744 40.6535 46.7602C47.8079 46.8102 51.4779 46.8373 53.6826 45.6732C55.9023 44.5023 57.3267 41.6184 60.249 35.7005L61.5506 33.0641C63.7266 28.6997 66.0978 24.288 68.4662 19.8763C69.6436 17.686 70.821 15.4944 71.9534 13.3446C72.491 12.3252 73.7611 11.9304 74.7898 12.4617C75.8185 12.9944 76.2169 14.2532 75.6807 15.2726C74.506 17.4994 73.3409 19.6681 72.1758 21.8368C69.8674 26.1335 67.5576 30.4317 65.3256 34.9096C64.4797 36.6078 64.2342 37.1026 64.0241 37.5298C60.6992 44.2643 59.0785 47.5471 55.6609 49.3493C52.512 51.011 48.486 50.9826 40.6357 50.9272C39.5975 50.9204 38.4515 50.9123 35.3245 50.9123C32.6218 50.9123 31.3298 50.9258 30.1906 50.9366C23.6706 51.0029 20.3662 51.0367 18.0278 49.4156C15.4793 47.6485 14.9568 44.7565 13.8967 38.8954C13.7275 37.9584 13.5392 36.916 13.235 35.3274C12.4164 31.0441 11.561 26.3147 10.7042 21.5839C10.2881 19.2814 9.87062 16.9789 9.44905 14.6777V14.6791Z" fill="#1B8284"/>
<path fill-rule="evenodd" clip-rule="evenodd" d="M23.7196 55.1631C27.5806 55.1631 30.7117 58.266 30.7117 62.0923C30.7117 65.9185 27.5806 69.0215 23.7196 69.0215C19.8586 69.0215 16.7275 65.9185 16.7275 62.0923C16.7275 58.266 19.8586 55.1631 23.7196 55.1631Z" fill="#1B8284"/>
<path fill-rule="evenodd" clip-rule="evenodd" d="M49.5749 57.2547C52.2707 57.2547 54.4563 59.4206 54.4563 62.0923C54.4563 64.7639 52.2707 66.9299 49.5749 66.9299C46.879 66.9299 44.6934 64.7639 44.6934 62.0923C44.6934 59.4206 46.879 57.2547 49.5749 57.2547Z" fill="#1B8284"/>
<path d="M361.565 67.0528C358.675 67.0528 356.59 66.0932 355.31 64.1739C354.078 62.2066 353.462 59.6876 353.462 56.6167C353.462 55.5132 353.51 54.4336 353.605 53.378C353.747 52.3224 353.889 51.2668 354.031 50.2111C354.173 49.1555 354.315 48.1239 354.458 47.1163C354.6 46.1087 354.718 45.1491 354.813 44.2374C353.818 44.5253 352.823 44.6692 351.828 44.6692C350.785 44.6692 350.264 44.2374 350.264 43.3737C350.264 42.4621 350.667 41.3585 351.472 40.063C352.278 38.7195 353.273 37.4 354.458 36.1045C355.69 34.8089 356.898 33.7293 358.083 32.8657C359.315 31.954 360.357 31.4982 361.21 31.4982C362.252 31.4982 362.774 32.4098 362.774 34.2332C362.774 34.713 362.726 35.2168 362.632 35.7446C362.584 36.2244 362.513 36.7282 362.418 37.256C363.319 37.0641 364.219 36.8962 365.119 36.7522C366.067 36.6083 366.967 36.5363 367.82 36.5363C368.91 36.5363 369.739 36.7282 370.308 37.1121C370.924 37.4959 371.232 38.2397 371.232 39.3432C371.232 40.4948 370.948 41.6464 370.379 42.7979C369.858 43.9495 369.266 44.5253 368.602 44.5253C368.46 44.5253 368.223 44.5013 367.891 44.4533C367.56 44.4053 367.157 44.3334 366.683 44.2374C366.067 44.0934 365.285 43.9495 364.337 43.8056C363.39 43.6616 362.252 43.5896 360.926 43.5896C360.594 45.0771 360.286 46.6125 360.002 48.1959C359.765 49.7313 359.646 51.1228 359.646 52.3703C359.646 55.1533 360.333 57.0486 361.708 58.0562C363.082 59.0638 365.072 59.5676 367.678 59.5676C368.484 59.5676 369.052 59.7116 369.384 59.9995C369.716 60.2394 369.882 60.6952 369.882 61.367C369.882 62.9504 369.076 64.2939 367.465 65.3974C365.854 66.501 363.887 67.0528 361.565 67.0528Z" fill="white"/>
<path d="M331.153 67.0528C330.37 67.0528 329.734 66.9052 329.245 66.61C328.805 66.364 328.658 65.9212 328.805 65.2816C329.343 63.166 329.783 61.0257 330.126 58.8609C330.517 56.6469 330.713 54.5313 330.713 52.514C330.713 49.9064 330.541 48.0122 330.199 46.8314C329.905 45.6014 329.49 44.765 328.951 44.3221C328.413 43.8301 327.753 43.4611 326.97 43.2151C326.628 43.0675 326.31 42.8707 326.016 42.6247C325.771 42.3787 325.649 42.0343 325.649 41.5915C325.649 40.9027 325.918 40.1401 326.456 39.3037C326.995 38.4673 327.753 37.7539 328.731 37.1635C329.71 36.5239 330.835 36.2041 332.107 36.2041C333.77 36.2041 334.92 36.7945 335.556 37.9753C336.241 39.1069 336.583 40.6075 336.583 42.4771C337.464 40.5091 338.54 38.9593 339.812 37.8277C341.133 36.6469 342.772 36.0565 344.729 36.0565C346.05 36.0565 347.151 36.3517 348.031 36.9421C348.912 37.5325 349.352 38.4919 349.352 39.8203C349.352 41.1487 348.912 42.4033 348.031 43.5841C347.2 44.7158 346.343 45.2816 345.463 45.2816C345.316 45.2816 345.145 45.257 344.949 45.2078C344.754 45.1586 344.582 45.0356 344.436 44.8388C343.8 44.0515 343.017 43.6579 342.087 43.6579C340.668 43.6579 339.421 44.5928 338.345 46.4624C337.268 48.332 336.681 50.915 336.583 54.2115C336.632 55.4415 336.657 56.6961 336.657 57.9753C336.706 59.2545 336.73 60.1893 336.73 60.7797C336.73 62.6002 336.216 64.1008 335.189 65.2816C334.211 66.4624 332.865 67.0528 331.153 67.0528Z" fill="white"/>
<path d="M298.219 67.0528C295.227 67.0528 292.809 66.1469 290.964 64.3351C289.169 62.4744 288.271 59.8301 288.271 56.4024C288.271 53.954 288.745 51.5301 289.692 49.1307C290.69 46.6824 292.111 44.4788 293.955 42.5201C295.8 40.5615 298.019 38.9945 300.612 37.8193C303.205 36.6441 306.122 36.0565 309.363 36.0565C312.354 36.0565 314.897 36.5706 316.991 37.5989C319.136 38.5783 320.208 39.9249 320.208 41.6387C320.208 42.0794 320.158 42.6671 320.058 43.4016C319.958 44.0871 319.834 44.6502 319.684 45.0909C319.534 45.4827 319.31 45.8499 319.011 46.1927C318.762 46.4865 318.413 46.6334 317.964 46.6334C317.764 46.6334 317.39 46.56 316.842 46.4131C316.642 47.4414 316.493 48.4452 316.393 49.4245C316.293 50.4039 316.244 51.3832 316.244 52.3626C316.244 54.2233 316.518 55.8882 317.066 57.3573C317.665 58.7773 318.811 59.6587 320.507 60.0015C320.955 60.0994 321.304 60.2463 321.554 60.4422C321.853 60.6381 322.003 61.0543 322.003 61.6909C322.003 62.2295 321.853 62.9151 321.554 63.7475C321.304 64.58 320.781 65.3389 319.983 66.0245C319.235 66.6611 318.138 66.9794 316.692 66.9794C314.748 66.9794 313.252 66.2938 312.205 64.9227C311.158 63.5027 310.634 61.495 310.634 58.8997C309.288 61.2991 307.568 63.2578 305.473 64.7758C303.429 66.2938 301.011 67.0528 298.219 67.0528ZM300.612 59.4139C302.606 59.4139 304.352 58.8018 305.847 57.5776C307.393 56.3534 308.59 54.811 309.437 52.9502C309.986 51.775 310.41 50.5018 310.709 49.1307C311.008 47.7107 311.208 46.3151 311.307 44.944C310.46 44.5523 309.487 44.234 308.39 43.9892C307.293 43.7443 306.147 43.6219 304.95 43.6219C301.908 43.6219 299.39 44.5033 297.396 46.2662C295.451 48.029 294.479 50.2325 294.479 52.8767C294.479 54.8354 295.027 56.4269 296.124 57.6511C297.221 58.8263 298.717 59.4139 300.612 59.4139Z" fill="white"/>
<path d="M266.248 67.0528C262.803 67.0528 259.77 66.2719 257.149 64.7101C254.578 63.1483 252.588 60.9277 251.181 58.0481C249.774 55.1686 249.07 51.7522 249.07 47.7989C249.07 44.0408 249.677 40.4292 250.89 36.964C252.103 33.4988 253.85 30.3996 256.13 27.6665C258.411 24.9333 261.153 22.7615 264.355 21.1509C267.558 19.5403 271.173 18.735 275.201 18.735C278.209 18.735 280.684 19.1986 282.625 20.126C284.566 21.0533 285.536 22.4198 285.536 24.2256C285.536 25.1042 285.294 25.9827 284.808 26.8612C284.372 27.6909 283.789 28.3985 283.062 28.9842C282.334 29.5699 281.582 29.8627 280.805 29.8627C280.32 29.8627 279.932 29.7407 279.641 29.4967C278.33 28.6182 277.045 27.9837 275.783 27.5933C274.521 27.154 273.066 26.9344 271.416 26.9344C267.97 26.9344 265.059 27.7397 262.681 29.3503C260.304 30.9121 258.484 32.9863 257.222 35.573C256.009 38.1597 255.403 40.9661 255.403 43.992C255.403 46.9204 255.961 49.5071 257.077 51.7522C258.193 53.9972 259.745 55.7543 261.735 57.0232C263.725 58.2922 266.054 58.9266 268.723 58.9266C270.858 58.9266 272.92 58.5118 274.909 57.6821C276.947 56.8036 278.743 55.6078 280.296 54.0949C280.975 53.4604 281.654 53.1431 282.334 53.1431C282.916 53.1431 283.328 53.3872 283.571 53.8752C283.814 54.3633 283.935 54.8513 283.935 55.3394C283.935 56.1691 283.692 57.1208 283.207 58.1945C282.722 59.2195 281.97 60.2444 280.951 61.2693C279.155 63.0751 276.947 64.4905 274.327 65.5154C271.707 66.5404 269.014 67.0528 266.248 67.0528Z" fill="white"/>
<path d="M213.947 67.0528C213.275 67.0528 212.7 66.8804 212.22 66.5356C211.74 66.2401 211.548 65.8214 211.644 65.2796C212.364 61.3392 212.963 57.3496 213.443 53.3107C213.971 49.2225 214.235 45.1097 214.235 40.9723C214.235 37.3274 214.115 34.0273 213.875 31.072C213.635 28.1167 212.867 25.2846 211.572 22.5755C211.332 22.0337 211.14 21.5658 210.996 21.1718C210.852 20.7777 210.78 20.4083 210.78 20.0635C210.78 19.1277 211.308 18.2165 212.364 17.3299C213.467 16.4433 214.619 16 215.818 16C217.498 16 218.649 17.0836 219.273 19.2508C219.897 21.418 220.209 24.6196 220.209 28.8556C220.209 33.9288 219.921 38.3618 219.345 42.1544C218.769 45.8978 218.265 48.7546 217.834 50.7248L218.122 50.8725C219.081 48.262 220.233 45.8239 221.576 43.5582C222.968 41.2924 224.575 39.47 226.398 38.0909C228.222 36.7117 230.333 36.0222 232.732 36.0222C235.275 36.0222 237.194 36.8102 238.49 38.3864C239.833 39.9626 240.505 41.9081 240.505 44.2231C240.505 45.2082 240.409 46.1687 240.217 47.1045C240.025 47.9911 239.809 48.8531 239.569 49.6904C239.33 50.4785 239.114 51.2912 238.922 52.1285C238.73 52.9166 238.634 53.7293 238.634 54.5667C238.634 56.0936 238.994 57.3496 239.713 58.3347C240.433 59.2705 241.393 59.9355 242.592 60.3295C242.928 60.428 243.168 60.5758 243.312 60.7728C243.504 60.9206 243.6 61.2161 243.6 61.6594C243.6 62.1027 243.456 62.743 243.168 63.5803C242.88 64.4177 242.352 65.2057 241.585 65.9446C240.817 66.6341 239.689 66.9789 238.202 66.9789C236.283 66.9789 234.795 66.2894 233.74 64.9102C232.684 63.4818 232.156 61.6594 232.156 59.4429C232.156 58.3593 232.252 57.2511 232.444 56.1182C232.684 54.9853 232.948 53.9017 233.236 52.8674C233.476 51.833 233.692 50.8725 233.884 49.9859C234.076 49.0501 234.171 48.262 234.171 47.6217C234.171 45.356 233.02 44.2231 230.717 44.2231C228.797 44.2231 227.094 44.9373 225.607 46.3657C224.167 47.7448 222.92 49.518 221.864 51.6852C220.856 53.8032 220.017 55.9951 219.345 58.2608V60.7728C219.345 62.5952 218.817 64.0975 217.762 65.2796C216.754 66.4617 215.483 67.0528 213.947 67.0528Z" fill="white"/>
<path d="M191.735 67.0528C189.963 67.0528 188.311 66.7835 186.779 66.2448C185.247 65.7062 184.002 64.9472 183.044 63.9679C182.086 62.9885 181.607 61.8133 181.607 60.4422C181.607 59.7077 181.775 59.0222 182.11 58.3856C182.493 57.7 183.092 57.3573 183.906 57.3573C184.337 57.3573 184.792 57.4797 185.271 57.7245C186.133 58.2142 187.234 58.6794 188.575 59.1201C189.915 59.5118 191.328 59.7077 192.813 59.7077C194.488 59.7077 195.973 59.4629 197.266 58.9732C198.559 58.4835 199.205 57.798 199.205 56.9166C199.205 56.231 198.702 55.7413 197.697 55.4475C196.739 55.1537 195.111 54.8354 192.813 54.4927C191.232 54.1989 189.7 53.8561 188.216 53.4644C186.731 53.0726 185.51 52.4116 184.552 51.4812C183.595 50.5018 183.116 49.0818 183.116 47.221C183.116 45.4092 183.595 43.6709 184.552 42.006C185.558 40.2921 187.042 38.8721 189.006 37.7458C190.969 36.6196 193.363 36.0565 196.188 36.0565C197.673 36.0565 199.109 36.2278 200.498 36.5706C201.887 36.9134 203.036 37.4275 203.946 38.1131C204.856 38.7986 205.311 39.6556 205.311 40.6839C205.311 41.5653 204.999 42.3732 204.377 43.1078C203.802 43.8423 203.108 44.4544 202.294 44.944C201.528 45.3847 200.881 45.6051 200.354 45.6051C199.971 45.6051 199.516 45.3358 198.99 44.7971C198.176 44.1116 197.266 43.6464 196.26 43.4016C195.303 43.1078 194.345 42.9609 193.387 42.9609C191.951 42.9609 190.777 43.1812 189.868 43.6219C189.006 44.0626 188.575 44.6257 188.575 45.3113C188.575 45.9479 188.934 46.462 189.652 46.8538C190.418 47.2455 191.352 47.5393 192.453 47.7352C193.555 47.8821 194.608 48.029 195.614 48.1759C198.391 48.5676 200.594 49.2532 202.222 50.2325C203.85 51.1629 204.664 52.8278 204.664 55.2272C204.664 57.0879 204.137 58.9487 203.084 60.8095C202.078 62.6213 200.594 64.1148 198.631 65.29C196.715 66.4652 194.417 67.0528 191.735 67.0528Z" fill="white"/>
<path d="M161.458 67.0528C157.757 67.0528 154.86 65.9975 152.767 63.8869C150.722 61.7272 149.699 58.7331 149.699 54.9046C149.699 51.4196 150.454 48.2538 151.963 45.4069C153.473 42.56 155.493 40.3022 158.025 38.6334C160.606 36.9154 163.43 36.0565 166.497 36.0565C169.418 36.0565 171.756 36.7927 173.508 38.2652C175.261 39.6887 176.138 41.6029 176.138 44.008C176.138 45.9223 175.553 47.6893 174.385 49.3091C173.216 50.9288 171.658 52.2295 169.711 53.2112C167.763 54.1438 165.596 54.6101 163.211 54.6101C160.289 54.6101 157.904 53.9475 156.053 52.6222C156.102 54.8801 156.857 56.6961 158.317 58.0705C159.827 59.4448 161.75 60.132 164.087 60.132C165.499 60.132 166.935 59.8866 168.396 59.3957C169.905 58.8558 171.196 58.1441 172.267 57.2606C172.948 56.6716 173.581 56.3771 174.166 56.3771C174.653 56.3771 175.042 56.5489 175.334 56.8925C175.675 57.187 175.845 57.5797 175.845 58.0705C175.845 59.1503 174.92 60.5738 173.07 62.3408C169.808 65.4821 165.937 67.0528 161.458 67.0528ZM162.553 49.7508C164.306 49.7508 165.767 49.3827 166.935 48.6464C168.104 47.9102 168.688 46.9776 168.688 45.8487C168.688 44.9161 168.299 44.2044 167.52 43.7135C166.741 43.1736 165.669 42.9036 164.306 42.9036C162.505 42.9036 160.922 43.3945 159.559 44.3761C158.244 45.3087 157.295 46.634 156.711 48.3519C157.392 48.7937 158.269 49.1373 159.34 49.3827C160.411 49.6281 161.482 49.7508 162.553 49.7508Z" fill="white"/>
<path d="M130.589 67.0528C129.806 67.0528 129.17 66.9052 128.681 66.61C128.24 66.364 128.093 65.9212 128.24 65.2816C128.778 63.166 129.219 61.0257 129.561 58.8609C129.953 56.6469 130.148 54.5313 130.148 52.514C130.148 49.9064 129.977 48.0122 129.635 46.8314C129.341 45.6014 128.925 44.765 128.387 44.3221C127.849 43.8301 127.188 43.4611 126.406 43.2151C126.063 43.0675 125.745 42.8707 125.452 42.6247C125.207 42.3787 125.085 42.0343 125.085 41.5915C125.085 40.9027 125.354 40.1401 125.892 39.3037C126.43 38.4673 127.188 37.7539 128.167 37.1635C129.145 36.5239 130.271 36.2041 131.543 36.2041C133.206 36.2041 134.356 36.7945 134.992 37.9753C135.676 39.1069 136.019 40.6075 136.019 42.4771C136.9 40.5091 137.976 38.9593 139.248 37.8277C140.569 36.6469 142.208 36.0565 144.165 36.0565C145.486 36.0565 146.586 36.3517 147.467 36.9421C148.347 37.5325 148.788 38.4919 148.788 39.8203C148.788 41.1487 148.347 42.4033 147.467 43.5841C146.635 44.7158 145.779 45.2816 144.898 45.2816C144.752 45.2816 144.58 45.257 144.385 45.2078C144.189 45.1586 144.018 45.0356 143.871 44.8388C143.235 44.0515 142.452 43.6579 141.523 43.6579C140.104 43.6579 138.856 44.5928 137.78 46.4624C136.704 48.332 136.117 50.915 136.019 54.2115C136.068 55.4415 136.092 56.6961 136.092 57.9753C136.141 59.2545 136.166 60.1893 136.166 60.7797C136.166 62.6002 135.652 64.1008 134.625 65.2816C133.646 66.4624 132.301 67.0528 130.589 67.0528Z" fill="white"/>
<path d="M99.6014 66.1411C98.9979 66.1411 98.3693 66.0462 97.7156 65.8563C97.1121 65.6665 96.5841 65.2155 96.1315 64.5035C95.7292 63.7915 95.528 62.6997 95.528 61.2282C95.528 60.2789 95.6286 59.0447 95.8298 57.5258C96.0309 55.9593 96.3075 53.942 96.6595 51.4737C96.911 49.9072 97.1875 47.8186 97.4893 45.2079C97.8413 42.5497 98.0173 39.7729 98.0173 36.8774C98.0173 35.5957 97.967 34.2429 97.8664 32.8189C97.7659 31.3474 97.5647 30.0183 97.263 28.8316C96.6595 28.974 96.2069 29.0452 95.9052 29.0452C95.6035 29.0452 95.3772 28.974 95.2263 28.8316C95.0754 28.6417 95 28.3095 95 27.8348C95 26.8854 95.1006 25.9361 95.3017 24.9867C95.5532 23.9899 95.9303 23.1592 96.4332 22.4947C96.9361 21.8301 97.5144 21.3555 98.1682 21.0706C98.8722 20.7858 99.6014 20.596 100.356 20.501C101.613 20.3586 103.197 20.24 105.108 20.145C107.069 20.0026 109.106 19.884 111.218 19.789C113.38 19.6941 115.342 19.6466 117.102 19.6466C119.465 19.6466 121.2 19.6704 122.307 19.7178C123.463 19.7653 124.343 19.8365 124.947 19.9314C126.254 20.1213 126.908 20.7858 126.908 21.9251C126.908 22.732 126.732 23.4678 126.38 24.1323C126.078 24.7494 125.701 25.319 125.248 25.8411C124.695 26.6006 124.092 27.1465 123.438 27.4788C122.835 27.7636 122.03 27.8585 121.024 27.7636C120.169 27.6686 118.988 27.5974 117.479 27.55C116.021 27.455 114.336 27.4076 112.425 27.4076C111.62 27.4076 110.564 27.4313 109.257 27.4788C107.949 27.5262 106.566 27.5974 105.108 27.6924C105.058 29.3063 104.907 31.1575 104.655 33.2461C104.404 35.2872 104.127 37.3758 103.826 39.5118C105.183 39.4169 106.818 39.3457 108.729 39.2982C110.64 39.2033 112.601 39.1321 114.612 39.0846C116.624 39.0371 118.409 39.0134 119.968 39.0134C120.873 39.0134 121.527 39.1321 121.929 39.3694C122.332 39.5593 122.533 40.0102 122.533 40.7222C122.533 41.5292 122.307 42.4073 121.854 43.3567C121.452 44.2586 120.899 45.0418 120.194 45.7063C119.541 46.3709 118.837 46.6794 118.082 46.632C116.825 46.537 115.04 46.4658 112.727 46.4183C110.464 46.3709 108.075 46.3471 105.561 46.3471H103.147C103.046 47.3914 102.946 48.4357 102.845 49.48C102.795 50.4768 102.77 51.4024 102.77 52.2569C102.77 53.9182 102.946 55.3897 103.298 56.6714C103.65 57.9055 104.329 58.9735 105.334 59.8754C105.988 60.4925 106.315 61.2045 106.315 62.0115C106.315 63.0557 105.686 64.0051 104.429 64.8595C103.172 65.7139 101.563 66.1411 99.6014 66.1411Z" fill="white"/>
<defs>
<linearGradient id="paint0_linear_233_98" x1="86.9481" y1="0.981045" x2="18.5714" y2="69.129" gradientUnits="userSpaceOnUse">
<stop stop-color="#D3FFA7"/>
<stop offset="1" stop-color="#B8FE72"/>
</linearGradient>
<linearGradient id="paint1_linear_233_98" x1="101.23" y1="17.3105" x2="10.8515" y2="109.635" gradientUnits="userSpaceOnUse">
<stop stop-color="#D3FFA7"/>
<stop offset="1" stop-color="#B8FE72"/>
</linearGradient>
</defs>
</svg>