<svg width="168" height="60" viewBox="0 0 168 60" fill="none" xmlns="http://www.w3.org/2000/svg">
<path d="M13.5674 13.4881C13.2725 13.4199 12.9677 13.342 12.7121 13.2738V35.3417C13.3806 35.7117 14.0492 36.1013 14.7177 36.5006C19.9284 31.6312 28.6784 28.1643 30.0155 27.6481C30.5169 27.4533 31.0773 27.502 31.5492 27.7552C32.0112 28.0182 32.3258 28.4662 32.3848 28.9726C32.6208 30.9008 34.4396 47.9143 27.1643 52.3162C26.3483 52.8129 25.4635 53.1147 24.5197 53.2608H47.6629V16.8479C33.9579 20.6265 19.3287 15.7961 13.5773 13.4978L13.5674 13.4881Z" fill="#E4EBB1"/>
<path d="M21.0393 41.2433L21.8947 39.9481C22.4059 39.1787 23.4677 38.9547 24.2739 39.4319C25.0801 39.9091 25.3258 40.9219 24.8146 41.6815L23.3301 43.9117C24.1559 45.1193 24.7065 46.3756 24.9228 47.6708C28.1475 43.2689 28.2065 32.722 28.177 31.9916C24.441 33.6763 20.2823 36.0818 17.5983 38.4093C18.8371 39.2956 19.9972 40.2402 21.0295 41.2336L21.0393 41.2433Z" fill="#A6DB70"/>
<path d="M3.53935 35.5949C3.11659 41.6815 3.78513 53.4069 8.41575 56.0851C10.0379 57.02 12.2008 56.9031 14.8848 55.6858L9.25143 46.4925C8.76968 45.7134 9.0548 44.7103 9.88064 44.2623C10.1854 44.0967 10.5098 44.0286 10.8343 44.048C11.3947 44.0773 11.9354 44.3597 12.2402 44.8564L15.8876 50.8164L17.8441 54.0205C18.316 53.6991 18.7289 53.3777 19.1222 53.0563C24.5 45.8205 3.98176 35.7994 3.52952 35.6046L3.53935 35.5949Z" fill="#A6DB70"/>
<path d="M53.4342 9.75816C52.982 9.44652 52.4019 9.36861 51.871 9.54391C49.6098 10.2743 47.3485 10.8294 45.107 11.2579C44.3106 4.92777 38.6084 0 31.7067 0C24.805 0 19.1912 4.8596 18.3261 11.1216C14.1772 10.3717 11.6112 9.56338 11.5424 9.54391C11.0115 9.37835 10.4314 9.45626 9.97917 9.75816C9.52693 10.0698 9.26148 10.5567 9.26148 11.0826V33.5595C6.04659 32.0013 3.41176 30.9982 2.68423 30.7353C2.18283 30.5502 1.6126 30.5989 1.16036 30.8619C0.698282 31.1248 0.393507 31.5825 0.34435 32.0889C0.108395 34.2996 -1.71043 53.8452 6.57749 58.8314C7.86541 59.6105 9.29097 59.9903 10.8542 59.9903C13.0367 59.9903 15.4749 59.2306 18.1491 57.7309C18.1491 57.7309 18.1491 57.7309 18.1589 57.7309C18.8373 57.3413 19.4567 56.9518 20.0367 56.5525H52.4216C53.3752 56.5525 54.1519 55.8221 54.1519 54.9164V11.0924C54.1519 10.5665 53.8865 10.0698 53.4244 9.76789L53.4342 9.75816ZM31.7067 3.26246C36.9075 3.26246 41.194 7.01185 41.7053 11.813C34.1744 12.8258 27.1154 12.4071 21.7278 11.6669C22.3176 6.94368 26.5648 3.2722 31.7067 3.2722V3.26246ZM21.4525 49.8036C21.1969 50.758 20.5873 51.7124 19.5943 52.6473C19.4567 52.7836 19.2896 52.9102 19.1323 53.0368C18.7488 53.3582 18.3359 53.6893 17.8542 54.001L15.8977 50.7969L12.2502 44.8369C11.9455 44.3402 11.4047 44.0578 10.8443 44.0286C10.5199 44.0091 10.1856 44.0773 9.89069 44.2428C9.06485 44.6908 8.77974 45.6939 9.26148 46.473L14.8949 55.6663C12.2109 56.8934 10.0382 57.0394 8.4258 56.0656C4.02131 53.4167 3.32328 43.4053 3.51007 36.7051C3.52974 35.9747 3.55923 35.2638 3.59856 34.621C5.25024 35.3124 7.22637 36.2084 9.27131 37.2699C10.2839 37.7958 11.3162 38.3607 12.3289 38.9547C12.378 38.9839 12.4272 39.0131 12.4764 39.0424C13.4595 39.6267 14.4132 40.2402 15.3275 40.8732C16.7924 41.8958 18.1196 42.9768 19.1716 44.087C20.1154 45.0803 20.8331 46.1029 21.2362 47.1157C21.423 47.5734 21.5606 48.0409 21.5999 48.4986C21.6393 48.9369 21.5803 49.3654 21.4623 49.8036H21.4525ZM24.2839 39.4319C23.4778 38.9547 22.4061 39.1787 21.9047 39.9481L21.0494 41.2433C20.0269 40.25 18.857 39.3053 17.6182 38.4191C20.3022 36.1013 24.1758 33.8711 27.7151 32.2253C28.2067 31.9916 28.6884 31.7773 29.1603 31.5728C29.6224 38.1367 28.9932 47.3495 25.2966 49.5796C25.1983 49.638 25.0901 49.677 24.9918 49.7257C25.0508 49.2388 25.0803 48.7421 25.0311 48.2357C25.0115 48.0506 24.9721 47.8753 24.9426 47.6903C24.7264 46.3951 24.1758 45.129 23.3499 43.9312L24.8345 41.701C25.3457 40.9414 25.0999 39.9286 24.2938 39.4514L24.2839 39.4319ZM50.7011 53.2706H24.5101C25.4539 53.1245 26.3387 52.8226 27.1547 52.3259C34.43 47.9338 32.6112 30.9106 32.3752 28.9823C32.3162 28.4759 32.0016 28.0279 31.5396 27.765C31.0775 27.502 30.5073 27.4631 30.0058 27.6578C28.6589 28.174 19.9188 31.641 14.7081 36.5103C14.0396 36.1013 13.371 35.7215 12.7025 35.3514V13.2836C12.9581 13.3517 13.2629 13.4199 13.5578 13.4978C19.9089 15.0365 34.9904 17.7147 50.6912 13.3323V53.2803L50.7011 53.2706Z" fill="#0C6F3C"/>
<path d="M71.0913 38.5067C69.2135 38.5067 67.552 38.1074 66.1067 37.2991C64.6615 36.4908 63.5211 35.3806 62.6952 33.9588C61.8694 32.5369 61.4565 30.9106 61.4565 29.07C61.4565 27.2293 61.8694 25.5932 62.6952 24.1811C63.5211 22.769 64.6517 21.6491 66.1067 20.8408C67.552 20.0325 69.2135 19.6234 71.0913 19.6234C72.2121 19.6234 73.2542 19.789 74.198 20.1201C75.1419 20.4512 75.9874 20.9089 76.7149 21.4933C77.4424 22.0776 78.052 22.7398 78.5435 23.4897L75.5941 25.3108C75.2992 24.8434 74.9059 24.4246 74.4242 24.0643C73.9424 23.7039 73.4115 23.4118 72.8315 23.2073C72.2514 23.0028 71.6713 22.8956 71.0913 22.8956C69.9312 22.8956 68.9087 23.1586 68.014 23.6942C67.1194 24.2201 66.4213 24.9505 65.9101 25.8757C65.3989 26.8008 65.1433 27.8624 65.1433 29.0797C65.1433 30.297 65.389 31.3488 65.8904 32.2837C66.3919 33.2186 67.0997 33.9588 68.014 34.4847C68.9284 35.0203 69.9803 35.2832 71.1699 35.2832C72.1039 35.2832 72.9298 35.0982 73.6573 34.7379C74.3848 34.3678 74.9649 33.8614 75.3778 33.1992C75.8006 32.5369 76.007 31.7773 76.007 30.9008L79.4284 30.3749C79.4284 32.0987 79.0744 33.5595 78.3666 34.7768C77.6587 35.9942 76.6756 36.9193 75.4171 37.5523C74.1587 38.1854 72.7233 38.5067 71.0913 38.5067ZM71.7008 31.2027V28.4175H79.4382V30.6379L77.4916 31.2125H71.7008V31.2027Z" fill="#0C6F3C"/>
<path d="M88.5913 38.5067C87.2935 38.5067 86.1433 38.2146 85.1404 37.6303C84.1376 37.0459 83.3511 36.2474 82.7809 35.2151C82.2107 34.1925 81.9256 33.0044 81.9256 31.6702C81.9256 30.336 82.2205 29.1479 82.8104 28.1253C83.4003 27.1027 84.2065 26.2944 85.2289 25.7101C86.2514 25.1258 87.4312 24.8336 88.7683 24.8336C89.9087 24.8336 90.9705 25.1355 91.9438 25.7296C92.9171 26.3334 93.7036 27.2099 94.3034 28.359C94.9031 29.5179 95.198 30.9203 95.198 32.5661H91.6685C91.6882 31.417 91.5702 30.5015 91.3146 29.8198C91.059 29.1381 90.7051 28.6415 90.2528 28.3298C89.8006 28.0279 89.2598 27.8721 88.6503 27.8721C87.9621 27.8721 87.3919 28.0084 86.9101 28.2909C86.4382 28.5733 86.0843 28.992 85.8483 29.5569C85.6124 30.1217 85.4944 30.8521 85.4944 31.7578C85.4944 32.5369 85.6517 33.1894 85.9663 33.7153C86.2809 34.2412 86.7037 34.6307 87.2247 34.9034C87.7556 35.1761 88.3258 35.3027 88.9649 35.3027C89.6531 35.3027 90.2037 35.1566 90.6362 34.8645C91.0688 34.5723 91.3933 34.1828 91.6194 33.7153L94.8834 34.9716C94.5197 35.702 94.0379 36.335 93.448 36.8609C92.8581 37.3965 92.1601 37.7958 91.3539 38.0782C90.5477 38.3509 89.6236 38.497 88.5913 38.497V38.5067ZM84.1966 32.5856L84.2261 29.8977H93.4874V32.5856H84.1966Z" fill="#0C6F3C"/>
<path d="M97.1447 28.0863V25.1647H106.042V28.0863H97.1447ZM103.702 38.5165C102.247 38.5165 101.146 38.1561 100.399 37.4452C99.6517 36.7343 99.2781 35.7117 99.2781 34.397V21.1037H102.749V33.6471C102.749 34.2022 102.867 34.621 103.112 34.9132C103.358 35.2053 103.722 35.3417 104.194 35.3417C104.371 35.3417 104.558 35.3027 104.774 35.2248C104.98 35.1469 105.206 35.03 105.433 34.8742L106.642 37.455C106.219 37.7666 105.747 38.0198 105.236 38.2243C104.715 38.4191 104.204 38.5262 103.692 38.5262L103.702 38.5165Z" fill="#0C6F3C"/>
<path d="M110.407 38.1951V19.9448H114.015V38.1951H110.407ZM119.698 33.8127L110.565 20.646L112.246 20.1493L114.32 19.9448L121.507 30.5015L119.688 33.8127H119.698ZM119.698 33.8127L117.879 30.5015L125.066 19.9448L127.14 20.1493L128.772 20.5973L119.688 33.8127H119.698ZM125.381 38.1951V19.9448H128.959V38.1951H125.381Z" fill="#0C6F3C"/>
<path d="M137.788 38.5067C136.205 38.5067 134.986 38.1561 134.121 37.4647C133.256 36.7733 132.823 35.7896 132.823 34.5139C132.823 33.1212 133.295 32.0792 134.229 31.3683C135.163 30.6671 136.49 30.3165 138.191 30.3165H141.534V32.868H139.4C138.26 32.868 137.473 33.0044 137.031 33.2771C136.588 33.5497 136.372 33.9198 136.372 34.4068C136.372 34.7866 136.549 35.0885 136.903 35.3027C137.257 35.517 137.749 35.6241 138.378 35.6241C138.938 35.6241 139.44 35.4877 139.882 35.2248C140.324 34.9521 140.669 34.6113 140.924 34.1828C141.18 33.7543 141.308 33.316 141.308 32.868H142.232C142.232 34.6405 141.888 36.0234 141.19 37.0167C140.492 38.0101 139.371 38.5067 137.808 38.5067H137.788ZM141.416 38.1951L141.288 35.5657V31.602C141.288 30.8229 141.199 30.1509 141.022 29.6056C140.846 29.0602 140.58 28.6415 140.216 28.359C139.853 28.0766 139.381 27.9305 138.781 27.9305C138.25 27.9305 137.778 28.0474 137.355 28.2714C136.933 28.4954 136.579 28.8654 136.274 29.3621L133.118 28.2909C133.364 27.7358 133.728 27.1904 134.199 26.6645C134.671 26.1386 135.291 25.7004 136.058 25.3595C136.824 25.0187 137.758 24.8531 138.86 24.8531C140.177 24.8531 141.278 25.0868 142.163 25.5543C143.048 26.0217 143.716 26.7132 144.149 27.6286C144.591 28.5441 144.798 29.6543 144.778 30.9787L144.699 38.2048H141.406L141.416 38.1951Z" fill="#0C6F3C"/>
<path d="M148.603 38.1951V25.155H152.073V38.1951H148.603ZM151.051 31.3391C151.051 29.927 151.326 28.7681 151.876 27.8429C152.427 26.9177 153.135 26.236 154.01 25.788C154.875 25.34 155.789 25.1063 156.733 25.1063V28.4467C155.927 28.4467 155.17 28.5441 154.452 28.7291C153.744 28.9239 153.164 29.2355 152.732 29.664C152.289 30.1023 152.073 30.6574 152.073 31.3293H151.051V31.3391Z" fill="#0C6F3C"/>
<path d="M158.503 28.0863V25.1647H167.4V28.0863H158.503ZM165.06 38.5165C163.605 38.5165 162.504 38.1561 161.757 37.4452C161.01 36.7343 160.636 35.7117 160.636 34.397V21.1037H164.107V33.6471C164.107 34.2022 164.225 34.621 164.47 34.9132C164.716 35.2053 165.08 35.3417 165.552 35.3417C165.729 35.3417 165.916 35.3027 166.132 35.2248C166.338 35.1469 166.565 35.03 166.791 34.8742L168 37.455C167.577 37.7666 167.105 38.0198 166.594 38.2243C166.073 38.4191 165.562 38.5262 165.051 38.5262L165.06 38.5165Z" fill="#0C6F3C"/>
<path d="M64.4059 51.2449C63.8357 51.2449 63.3244 51.1183 62.8722 50.8554C62.4298 50.6022 62.0758 50.2418 61.8301 49.7841C61.5744 49.3264 61.4565 48.8005 61.4565 48.2162C61.4565 47.6319 61.5843 47.0865 61.8301 46.6385C62.0758 46.1808 62.4298 45.8302 62.8624 45.5673C63.3048 45.3043 63.8062 45.1777 64.3862 45.1777C64.9663 45.1777 65.4677 45.3043 65.9101 45.5673C66.3525 45.8302 66.6966 46.1808 66.9424 46.6385C67.1882 47.0962 67.316 47.6221 67.316 48.2065C67.316 48.7908 67.1882 49.3264 66.9424 49.7841C66.6966 50.2418 66.3525 50.6022 65.9101 50.8554C65.4775 51.1086 64.9663 51.2449 64.3961 51.2449H64.4059ZM64.4059 50.4853C64.809 50.4853 65.1629 50.3879 65.4677 50.1932C65.7725 49.9984 66.0183 49.7257 66.1952 49.3848C66.3722 49.044 66.4607 48.6544 66.4607 48.2065C66.4607 47.7585 66.3722 47.3689 66.1952 47.0281C66.0183 46.6872 65.7725 46.4145 65.4579 46.2198C65.1433 46.025 64.7893 45.9276 64.3764 45.9276C63.9635 45.9276 63.6095 46.025 63.2949 46.2198C62.9803 46.4145 62.7346 46.6872 62.5576 47.0281C62.3806 47.3689 62.2921 47.7682 62.2921 48.2065C62.2921 48.6447 62.3806 49.044 62.5674 49.3848C62.7444 49.7257 63 49.9984 63.3146 50.1932C63.6292 50.3879 64.0028 50.4853 64.4059 50.4853Z" fill="#404040"/>
<path d="M68.7514 51.1378V46.9502H69.5576V51.1378H68.7514ZM69.243 48.8882C69.243 48.4304 69.3315 48.0701 69.5084 47.778C69.6854 47.4955 69.9115 47.2813 70.1868 47.1449C70.4621 47.0086 70.757 46.9404 71.0618 46.9404V47.6903C70.8062 47.6903 70.5702 47.7293 70.3343 47.8072C70.0983 47.8851 69.9213 48.0019 69.7739 48.1772C69.6264 48.3428 69.5576 48.5765 69.5576 48.8687L69.243 48.8979V48.8882Z" fill="#404040"/>
<path d="M73.8834 51.0794C73.5 51.0794 73.1657 50.9917 72.8806 50.8164C72.5955 50.6411 72.3694 50.3977 72.2121 50.0763C72.0548 49.7549 71.9663 49.3946 71.9663 48.9856C71.9663 48.5765 72.0449 48.1772 72.2121 47.8656C72.3694 47.5442 72.5955 47.3008 72.8806 47.1157C73.1657 46.9404 73.5 46.843 73.8834 46.843C74.2374 46.843 74.5421 46.9307 74.7978 47.1157C75.0632 47.291 75.2598 47.5442 75.4073 47.8656C75.5548 48.187 75.6236 48.5668 75.6236 48.9953C75.6236 49.4238 75.5548 49.7744 75.4073 50.086C75.2598 50.3977 75.0632 50.6509 74.7978 50.8164C74.5323 50.9917 74.2275 51.0794 73.8834 51.0794ZM73.9621 52.92C73.677 52.92 73.4213 52.8908 73.1952 52.8421C72.9593 52.7934 72.7725 52.7252 72.6152 52.6668C72.4579 52.5986 72.3399 52.5402 72.2612 52.4915L72.566 51.8487C72.6348 51.8974 72.743 51.9461 72.8806 52.0045C73.0183 52.063 73.1756 52.1117 73.3525 52.1604C73.5295 52.1993 73.736 52.2188 73.9522 52.2188C74.2079 52.2188 74.4438 52.1701 74.6503 52.063C74.8567 51.9559 75.014 51.8 75.132 51.5858C75.25 51.3715 75.309 51.0891 75.309 50.7483V46.9599H76.1152V50.7288C76.1152 51.206 76.0267 51.615 75.8399 51.9364C75.6531 52.2675 75.4073 52.511 75.0829 52.6765C74.7683 52.8421 74.3947 52.9297 73.9817 52.9297L73.9621 52.92ZM74.0899 50.4074C74.3258 50.4074 74.5323 50.349 74.7093 50.2224C74.8862 50.0958 75.0239 49.9302 75.1222 49.716C75.2205 49.5017 75.2795 49.2485 75.2795 48.9758C75.2795 48.7031 75.2303 48.4499 75.1222 48.2357C75.0239 48.0214 74.8764 47.8559 74.6994 47.739C74.5225 47.6221 74.316 47.5637 74.0801 47.5637C73.8441 47.5637 73.618 47.6221 73.4213 47.739C73.2345 47.8559 73.0871 48.0214 72.9789 48.2357C72.8708 48.4499 72.8216 48.6934 72.8216 48.9758C72.8216 49.2582 72.8806 49.5017 72.9888 49.716C73.0969 49.9302 73.2444 50.1055 73.441 50.2224C73.6278 50.349 73.8441 50.4074 74.0997 50.4074H74.0899Z" fill="#404040"/>
<path d="M79.0744 51.2449C78.573 51.2449 78.1798 51.1281 77.9045 50.9041C77.6292 50.6801 77.4817 50.3684 77.4817 49.9594C77.4817 49.5309 77.6292 49.1998 77.9143 48.9758C78.2093 48.7518 78.6124 48.635 79.1236 48.635H80.3034V49.268H79.3497C78.9565 49.268 78.691 49.3264 78.5337 49.4433C78.3764 49.5601 78.2978 49.7257 78.2978 49.9399C78.2978 50.1347 78.3764 50.2905 78.5239 50.3977C78.6713 50.5048 78.8778 50.5632 79.1433 50.5632C79.3792 50.5632 79.5758 50.5145 79.743 50.4074C79.9101 50.3003 80.0379 50.1639 80.1362 49.9886C80.2247 49.8133 80.2739 49.6186 80.2739 49.3946H80.6573C80.6573 49.9692 80.5295 50.4171 80.264 50.7483C79.9986 51.0794 79.6053 51.2449 79.0843 51.2449H79.0744ZM80.3132 51.1475L80.2739 50.4171V48.9563C80.2739 48.6447 80.2345 48.3915 80.1657 48.187C80.0969 47.9825 79.9888 47.8267 79.8413 47.7195C79.6938 47.6124 79.507 47.5637 79.2711 47.5637C79.0548 47.5637 78.8581 47.6124 78.691 47.7C78.5239 47.7877 78.3862 47.9338 78.2781 48.1188L77.5506 47.8461C77.6489 47.6514 77.7865 47.4858 77.9438 47.3397C78.1011 47.1936 78.2879 47.067 78.514 46.9794C78.7402 46.8917 78.9958 46.8528 79.2907 46.8528C79.684 46.8528 80.0183 46.9307 80.2837 47.0768C80.5492 47.2229 80.7556 47.4566 80.8834 47.7487C81.0112 48.0506 81.0801 48.4207 81.0702 48.8589V51.1378H80.3132V51.1475Z" fill="#404040"/>
<path d="M82.5941 51.1378V46.9502H83.3511L83.4003 47.7195V51.1378H82.5941ZM85.5239 48.9953C85.5239 48.6155 85.4845 48.3233 85.3961 48.1285C85.3076 47.9338 85.1896 47.7877 85.0323 47.7098C84.875 47.6319 84.698 47.5929 84.4916 47.5832C84.1475 47.5832 83.882 47.7 83.6854 47.9435C83.4888 48.187 83.4003 48.5181 83.4003 48.9563H83.0562C83.0562 48.5181 83.125 48.1383 83.2528 47.8169C83.3806 47.5053 83.5674 47.2618 83.8132 47.0963C84.059 46.9307 84.3539 46.843 84.698 46.843C85.2093 46.843 85.6025 46.9989 85.8975 47.3105C86.1924 47.6221 86.3301 48.0993 86.3301 48.7421L85.5239 48.9953ZM85.5239 51.1378V48.9953L86.3301 48.7421V51.1378H85.5239Z" fill="#404040"/>
<path d="M88.2963 46.0639C88.1685 46.0639 88.0506 46.0153 87.9621 45.9179C87.8638 45.8205 87.8146 45.7036 87.8146 45.577C87.8146 45.4407 87.8638 45.3335 87.9621 45.2362C88.0604 45.1485 88.1685 45.0998 88.2963 45.0998C88.4242 45.0998 88.5421 45.1485 88.6405 45.2362C88.7388 45.3238 88.7781 45.4407 88.7781 45.577C88.7781 45.7134 88.7289 45.8205 88.6405 45.9179C88.552 46.0153 88.434 46.0639 88.2963 46.0639ZM87.8933 51.1378L87.9129 46.9502H88.7093V51.1378H87.8933Z" fill="#404040"/>
<path d="M92.3076 51.2449C91.8848 51.2449 91.5112 51.1475 91.1868 50.9625C90.8624 50.7775 90.6067 50.5145 90.4199 50.1834C90.2331 49.8523 90.1447 49.4725 90.1447 49.044C90.1447 48.6155 90.2331 48.2357 90.4199 47.9046C90.6067 47.5734 90.8525 47.3202 91.177 47.1255C91.5014 46.9307 91.875 46.843 92.2879 46.843C92.7008 46.843 93.0744 46.9404 93.3989 47.1255C93.7233 47.3105 93.9789 47.5832 94.1362 47.9338L93.4087 48.2357C93.3006 48.0312 93.1433 47.8656 92.9466 47.7487C92.75 47.6319 92.514 47.5734 92.2584 47.5734C92.0028 47.5734 91.7767 47.6319 91.5801 47.7585C91.3834 47.8851 91.2261 48.0506 91.118 48.2746C91.0098 48.4986 90.9508 48.7518 90.9508 49.0342C90.9508 49.3167 91.0098 49.5699 91.118 49.7841C91.2261 49.9984 91.3933 50.1737 91.5899 50.3003C91.7963 50.4269 92.0225 50.4853 92.2781 50.4853C92.5337 50.4853 92.7697 50.4171 92.9761 50.2905C93.1826 50.1639 93.3301 49.9789 93.4284 49.7549L94.1657 50.0471C93.9986 50.4171 93.7528 50.6996 93.4284 50.9138C93.0941 51.1183 92.7205 51.2254 92.3076 51.2254V51.2449Z" fill="#404040"/>
<path d="M97.7149 47.6124V46.9502H100.438V47.6124H97.7149ZM98.4719 51.1378V46.4827C98.4719 46.0445 98.5801 45.7036 98.7963 45.4796C99.0126 45.2556 99.3371 45.1388 99.7697 45.1388C99.8975 45.1388 100.045 45.1583 100.192 45.1972C100.34 45.2362 100.497 45.2946 100.654 45.3725L100.36 45.986C100.242 45.9276 100.133 45.8887 100.055 45.8692C99.9663 45.84 99.8876 45.8302 99.8287 45.8302C99.6419 45.8302 99.5042 45.8887 99.4157 46.0055C99.3272 46.1224 99.2781 46.3074 99.2781 46.5606V51.1281H98.4719V51.1378Z" fill="#404040"/>
<path d="M103.594 51.2449C103.171 51.2449 102.798 51.1475 102.473 50.9625C102.149 50.7775 101.903 50.5145 101.716 50.1834C101.529 49.8523 101.441 49.4725 101.441 49.044C101.441 48.6155 101.529 48.2357 101.716 47.9046C101.893 47.5734 102.149 47.3202 102.473 47.1255C102.798 46.9404 103.162 46.843 103.574 46.843C103.987 46.843 104.371 46.9404 104.695 47.1255C105.02 47.3105 105.265 47.5734 105.452 47.9046C105.629 48.2357 105.728 48.6155 105.728 49.044C105.728 49.4725 105.639 49.8523 105.452 50.1834C105.275 50.5145 105.02 50.7677 104.705 50.9625C104.39 51.1475 104.017 51.2449 103.614 51.2449H103.594ZM103.594 50.5145C103.85 50.5145 104.076 50.4561 104.263 50.3295C104.459 50.2029 104.607 50.0276 104.725 49.8133C104.833 49.5991 104.892 49.3459 104.892 49.0537C104.892 48.7616 104.833 48.5084 104.725 48.2941C104.617 48.0799 104.459 47.9046 104.253 47.778C104.056 47.6514 103.82 47.5929 103.574 47.5929C103.329 47.5929 103.083 47.6514 102.886 47.778C102.69 47.9046 102.532 48.0799 102.424 48.2941C102.316 48.5084 102.257 48.7713 102.257 49.0537C102.257 49.3361 102.316 49.5991 102.424 49.8133C102.532 50.0276 102.699 50.2029 102.896 50.3295C103.103 50.4561 103.329 50.5145 103.594 50.5145Z" fill="#404040"/>
<path d="M109.011 51.2449C108.588 51.2449 108.215 51.1475 107.89 50.9625C107.566 50.7775 107.32 50.5145 107.133 50.1834C106.947 49.8523 106.858 49.4725 106.858 49.044C106.858 48.6155 106.947 48.2357 107.133 47.9046C107.31 47.5734 107.566 47.3202 107.89 47.1255C108.215 46.9404 108.579 46.843 108.992 46.843C109.404 46.843 109.788 46.9404 110.112 47.1255C110.437 47.3105 110.683 47.5734 110.869 47.9046C111.046 48.2357 111.145 48.6155 111.145 49.044C111.145 49.4725 111.056 49.8523 110.869 50.1834C110.692 50.5145 110.437 50.7677 110.122 50.9625C109.808 51.1475 109.434 51.2449 109.031 51.2449H109.011ZM109.011 50.5145C109.267 50.5145 109.493 50.4561 109.68 50.3295C109.876 50.2029 110.024 50.0276 110.142 49.8133C110.25 49.5991 110.309 49.3459 110.309 49.0537C110.309 48.7616 110.25 48.5084 110.142 48.2941C110.034 48.0799 109.876 47.9046 109.67 47.778C109.473 47.6514 109.237 47.5929 108.992 47.5929C108.746 47.5929 108.5 47.6514 108.303 47.778C108.107 47.9046 107.949 48.0799 107.841 48.2941C107.733 48.5084 107.674 48.7713 107.674 49.0537C107.674 49.3361 107.733 49.5991 107.841 49.8133C107.949 50.0276 108.117 50.2029 108.313 50.3295C108.52 50.4561 108.746 50.5145 109.011 50.5145Z" fill="#404040"/>
<path d="M114.192 51.2449C113.809 51.2449 113.475 51.1475 113.19 50.9722C112.904 50.7872 112.678 50.534 112.521 50.2029C112.364 49.8718 112.275 49.492 112.275 49.0537C112.275 48.6155 112.354 48.2259 112.521 47.9046C112.678 47.5734 112.904 47.3202 113.19 47.1352C113.475 46.9502 113.809 46.8625 114.192 46.8625C114.546 46.8625 114.861 46.9599 115.117 47.1352C115.382 47.3202 115.579 47.5734 115.726 47.9046C115.864 48.2357 115.942 48.6155 115.942 49.0537C115.942 49.492 115.874 49.8718 115.726 50.2029C115.588 50.534 115.382 50.7872 115.117 50.9722C114.851 51.1573 114.546 51.2449 114.192 51.2449ZM114.379 50.5243C114.615 50.5243 114.822 50.4658 115.008 50.3392C115.185 50.2126 115.333 50.0373 115.431 49.8231C115.529 49.5991 115.579 49.3459 115.579 49.0537C115.579 48.7616 115.529 48.5084 115.431 48.2844C115.333 48.0604 115.185 47.8948 115.008 47.7682C114.831 47.6416 114.615 47.5832 114.369 47.5832C114.124 47.5832 113.897 47.6416 113.711 47.7682C113.514 47.8948 113.367 48.0701 113.258 48.2844C113.15 48.4986 113.101 48.7616 113.101 49.0537C113.101 49.3459 113.16 49.5991 113.268 49.8231C113.376 50.0471 113.534 50.2126 113.721 50.3392C113.917 50.4658 114.133 50.5243 114.379 50.5243ZM115.618 51.1475L115.588 50.3684V45.2849H116.385V51.1475H115.618Z" fill="#404040"/>
<path d="M118.715 51.2644C118.567 51.2644 118.44 51.2157 118.341 51.1086C118.243 51.0015 118.184 50.8846 118.184 50.7385C118.184 50.5924 118.233 50.4756 118.341 50.3782C118.44 50.2711 118.567 50.2224 118.715 50.2224C118.862 50.2224 118.98 50.2711 119.079 50.3782C119.177 50.4853 119.236 50.6022 119.236 50.7385C119.236 50.8749 119.187 51.0112 119.079 51.1086C118.971 51.2157 118.853 51.2644 118.715 51.2644ZM118.312 49.3751L118.272 45.2654H119.147L119.118 49.3751H118.322H118.312Z" fill="#404040"/>
<path d="M123.827 51.1378V45.2751H124.653V51.1378H123.827ZM124.594 48.8882V48.1383H125.892C126.098 48.1383 126.275 48.0896 126.442 48.0019C126.6 47.9046 126.737 47.7877 126.836 47.6221C126.934 47.4663 126.983 47.2813 126.983 47.0768C126.983 46.7651 126.875 46.5119 126.649 46.3172C126.433 46.1224 126.147 46.025 125.794 46.025H124.594V45.2751H125.823C126.216 45.2654 126.57 45.3335 126.865 45.4894C127.17 45.6452 127.406 45.8594 127.573 46.1321C127.74 46.4048 127.829 46.7262 127.829 47.0768C127.829 47.4274 127.74 47.739 127.553 48.0117C127.367 48.2844 127.121 48.4986 126.806 48.6544C126.492 48.8103 126.138 48.8882 125.744 48.8882H124.594ZM127.131 51.1378L125.725 48.7421L126.383 48.3038L128.065 51.1378H127.121H127.131Z" fill="#404040"/>
<path d="M131.348 51.2449C130.935 51.2449 130.572 51.1475 130.257 50.9625C129.942 50.7775 129.697 50.5145 129.51 50.1834C129.333 49.8523 129.235 49.4725 129.235 49.044C129.235 48.6155 129.323 48.2357 129.51 47.9046C129.687 47.5734 129.942 47.3202 130.257 47.1255C130.572 46.9307 130.945 46.843 131.348 46.843C131.732 46.843 132.076 46.9404 132.371 47.1352C132.666 47.33 132.902 47.6027 133.059 47.9533C133.226 48.3038 133.305 48.7226 133.305 49.2095H132.499C132.499 48.8492 132.459 48.5473 132.371 48.3038C132.282 48.0604 132.145 47.8753 131.968 47.7487C131.791 47.6221 131.574 47.5637 131.329 47.5637C131.063 47.5637 130.837 47.6221 130.64 47.739C130.444 47.8559 130.296 48.0312 130.198 48.2454C130.09 48.4694 130.041 48.7323 130.041 49.0537C130.041 49.3459 130.1 49.6088 130.218 49.8231C130.336 50.0373 130.493 50.2029 130.699 50.3295C130.906 50.4561 131.132 50.5048 131.397 50.5048C131.673 50.5048 131.899 50.4366 132.086 50.31C132.272 50.1834 132.41 50.0179 132.518 49.8133L133.236 50.1445C133.128 50.3587 132.98 50.5535 132.794 50.719C132.617 50.8846 132.4 51.0112 132.154 51.0988C131.909 51.1865 131.633 51.2352 131.329 51.2352L131.348 51.2449ZM129.765 49.2193V48.5668H132.872V49.2193H129.765Z" fill="#404040"/>
<path d="M135.969 51.2449C135.468 51.2449 135.074 51.1281 134.799 50.9041C134.524 50.6801 134.376 50.3684 134.376 49.9594C134.376 49.5309 134.524 49.1998 134.809 48.9758C135.104 48.7518 135.507 48.635 136.018 48.635H137.198V49.268H136.244C135.851 49.268 135.586 49.3264 135.428 49.4433C135.271 49.5601 135.192 49.7257 135.192 49.9399C135.192 50.1347 135.271 50.2905 135.419 50.3977C135.566 50.5048 135.772 50.5632 136.038 50.5632C136.264 50.5632 136.471 50.5145 136.638 50.4074C136.805 50.3003 136.933 50.1639 137.031 49.9886C137.129 49.8133 137.169 49.6186 137.169 49.3946H137.552C137.552 49.9692 137.424 50.4171 137.159 50.7483C136.893 51.0794 136.5 51.2449 135.979 51.2449H135.969ZM137.208 51.1475L137.169 50.4171V48.9563C137.169 48.6447 137.129 48.3915 137.06 48.187C136.992 47.9825 136.883 47.8267 136.736 47.7195C136.588 47.6124 136.402 47.5637 136.166 47.5637C135.949 47.5637 135.753 47.6124 135.586 47.7C135.419 47.7877 135.281 47.9338 135.173 48.1188L134.445 47.8461C134.544 47.6514 134.681 47.4858 134.838 47.3397C134.996 47.1936 135.183 47.067 135.409 46.9794C135.635 46.8917 135.89 46.8528 136.185 46.8528C136.579 46.8528 136.913 46.9307 137.178 47.0768C137.444 47.2229 137.65 47.4566 137.778 47.7487C137.916 48.0506 137.975 48.4207 137.965 48.8589V51.1378H137.198L137.208 51.1475Z" fill="#404040"/>
<path d="M139.489 51.1378V45.2751H140.295V51.1378H139.489Z" fill="#404040"/>
<path d="M144.08 47.6319V46.9404H146.803V47.6319H144.08ZM146.125 51.2352C145.702 51.2352 145.378 51.1281 145.142 50.9138C144.906 50.6996 144.798 50.3879 144.798 49.9886V45.6354H145.604V49.8718C145.604 50.0763 145.653 50.2321 145.761 50.349C145.869 50.4658 146.017 50.5145 146.213 50.5145C146.272 50.5145 146.331 50.5048 146.4 50.4853C146.469 50.4658 146.548 50.4171 146.646 50.349L146.951 50.9722C146.803 51.0696 146.666 51.1378 146.528 51.1865C146.39 51.2352 146.263 51.2547 146.125 51.2547V51.2352Z" fill="#404040"/>
<path d="M149.566 51.2449C149.065 51.2449 148.671 51.1281 148.396 50.9041C148.121 50.6801 147.973 50.3684 147.973 49.9594C147.973 49.5309 148.121 49.1998 148.406 48.9758C148.701 48.7518 149.104 48.635 149.615 48.635H150.795V49.268H149.841C149.448 49.268 149.183 49.3264 149.025 49.4433C148.868 49.5601 148.789 49.7257 148.789 49.9399C148.789 50.1347 148.868 50.2905 149.015 50.3977C149.163 50.5048 149.369 50.5632 149.635 50.5632C149.861 50.5632 150.067 50.5145 150.235 50.4074C150.402 50.3003 150.53 50.1639 150.628 49.9886C150.726 49.8133 150.765 49.6186 150.765 49.3946H151.149C151.149 49.9692 151.021 50.4171 150.756 50.7483C150.49 51.0794 150.097 51.2449 149.576 51.2449H149.566ZM150.805 51.1475L150.765 50.4171V48.9563C150.765 48.6447 150.726 48.3915 150.657 48.187C150.588 47.9825 150.48 47.8267 150.333 47.7195C150.185 47.6124 149.999 47.5637 149.763 47.5637C149.546 47.5637 149.35 47.6124 149.183 47.7C149.015 47.7877 148.878 47.9338 148.77 48.1188L148.042 47.8461C148.14 47.6514 148.278 47.4858 148.435 47.3397C148.593 47.1936 148.779 47.067 149.006 46.9794C149.232 46.8917 149.487 46.8528 149.782 46.8528C150.176 46.8528 150.51 46.9307 150.775 47.0768C151.041 47.2229 151.247 47.4566 151.375 47.7487C151.513 48.0506 151.572 48.4207 151.562 48.8589V51.1378H150.795L150.805 51.1475Z" fill="#404040"/>
<path d="M154.6 51.2449C154.305 51.2449 154.03 51.1962 153.803 51.1086C153.577 51.0209 153.371 50.9041 153.213 50.7483C153.056 50.5924 152.928 50.4269 152.85 50.2418L153.548 49.9399C153.636 50.1152 153.774 50.2516 153.951 50.3684C154.128 50.4756 154.334 50.534 154.551 50.534C154.796 50.534 154.993 50.4853 155.15 50.3977C155.308 50.31 155.386 50.1834 155.386 50.0179C155.386 49.8523 155.327 49.7354 155.209 49.6478C155.091 49.5601 154.914 49.4822 154.698 49.4335L154.305 49.3361C153.912 49.229 153.607 49.0732 153.39 48.8589C153.174 48.6447 153.066 48.4012 153.066 48.1383C153.066 47.7293 153.204 47.4176 153.469 47.1936C153.735 46.9696 154.128 46.8625 154.649 46.8625C154.905 46.8625 155.131 46.9015 155.347 46.9696C155.553 47.0378 155.74 47.1449 155.888 47.2813C156.035 47.4176 156.143 47.5734 156.202 47.7585L155.524 48.0604C155.455 47.8948 155.337 47.7682 155.18 47.6903C155.022 47.6124 154.826 47.5734 154.6 47.5734C154.374 47.5734 154.197 47.6221 154.069 47.7195C153.941 47.8169 153.872 47.9533 153.872 48.1285C153.872 48.2259 153.931 48.3136 154.039 48.4012C154.147 48.4889 154.315 48.5571 154.521 48.6155L154.973 48.7226C155.249 48.7908 155.475 48.8882 155.662 49.0245C155.838 49.1609 155.976 49.3167 156.065 49.4822C156.153 49.6575 156.202 49.8328 156.202 50.0179C156.202 50.2711 156.133 50.4853 155.996 50.6801C155.858 50.8651 155.671 51.0112 155.426 51.1086C155.19 51.206 154.914 51.2644 154.61 51.2644L154.6 51.2449Z" fill="#404040"/>
<path d="M157.126 47.6319V46.9404H159.85V47.6319H157.126ZM159.171 51.2352C158.749 51.2352 158.424 51.1281 158.188 50.9138C157.952 50.6996 157.844 50.3879 157.844 49.9886V45.6354H158.65V49.8718C158.65 50.0763 158.699 50.2321 158.808 50.349C158.916 50.4658 159.063 50.5145 159.26 50.5145C159.319 50.5145 159.378 50.5048 159.447 50.4853C159.515 50.4658 159.594 50.4171 159.692 50.349L159.997 50.9722C159.85 51.0696 159.712 51.1378 159.574 51.1865C159.437 51.2352 159.309 51.2547 159.171 51.2547V51.2352Z" fill="#404040"/>
<path d="M163.133 51.2449C162.72 51.2449 162.357 51.1475 162.042 50.9625C161.728 50.7775 161.482 50.5145 161.295 50.1834C161.118 49.8523 161.02 49.4725 161.02 49.044C161.02 48.6155 161.108 48.2357 161.295 47.9046C161.472 47.5734 161.728 47.3202 162.042 47.1255C162.357 46.9307 162.73 46.843 163.133 46.843C163.517 46.843 163.861 46.9404 164.156 47.1352C164.451 47.33 164.687 47.6027 164.844 47.9533C165.011 48.3038 165.09 48.7226 165.09 49.2095H164.284C164.284 48.8492 164.244 48.5473 164.156 48.3038C164.067 48.0604 163.93 47.8753 163.753 47.7487C163.576 47.6221 163.36 47.5637 163.114 47.5637C162.848 47.5637 162.622 47.6221 162.426 47.739C162.229 47.8559 162.081 48.0312 161.983 48.2454C161.875 48.4694 161.826 48.7323 161.826 49.0537C161.826 49.3459 161.885 49.6088 162.003 49.8231C162.121 50.0373 162.278 50.2029 162.485 50.3295C162.691 50.4561 162.917 50.5048 163.183 50.5048C163.458 50.5048 163.684 50.4366 163.871 50.31C164.058 50.1834 164.195 50.0179 164.303 49.8133L165.021 50.1445C164.913 50.3587 164.765 50.5535 164.579 50.719C164.402 50.8846 164.185 51.0112 163.94 51.0988C163.694 51.1865 163.419 51.2352 163.114 51.2352L163.133 51.2449ZM161.551 49.2193V48.5668H164.657V49.2193H161.551Z" fill="#404040"/>
<path d="M166.771 51.2547C166.633 51.2547 166.506 51.206 166.407 51.0988C166.299 51.0015 166.25 50.8749 166.25 50.7288C166.25 50.5827 166.299 50.4561 166.407 50.3587C166.515 50.2613 166.633 50.2029 166.771 50.2029C166.909 50.2029 167.046 50.2516 167.145 50.3587C167.253 50.4561 167.302 50.5827 167.302 50.7288C167.302 50.8749 167.253 51.0015 167.145 51.0988C167.037 51.1962 166.919 51.2547 166.771 51.2547Z" fill="#404040"/>
</svg>
