<svg xmlns="http://www.w3.org/2000/svg" width="544" height="280" viewBox="0 0 544 280"><rect width="100%" height="100%" fill="#EEE"/><path fill="#31343C" d="m124.13 122.035-1.84 10.83q1.73-.36 3.31-.52 1.59-.16 3.06-.16 4.11 0 7.24 1.22 3.13 1.23 5.25 3.39 2.13 2.16 3.21 5.06 1.08 2.89 1.08 6.24 0 4.14-1.46 7.56t-4.05 5.85q-2.59 2.43-6.14 3.76-3.54 1.34-7.72 1.34-2.45 0-4.64-.51-2.2-.5-4.13-1.35-1.92-.84-3.56-1.94-1.64-1.1-2.93-2.32l2.73-3.78q.87-1.23 2.27-1.23.9 0 1.84.58.93.57 2.14 1.26 1.2.68 2.84 1.26 1.64.57 3.94.57 2.45 0 4.32-.79 1.88-.79 3.12-2.21 1.24-1.42 1.87-3.39.63-1.96.63-4.26 0-4.25-2.47-6.64-2.46-2.4-7.29-2.4-3.7 0-7.59 1.37l-5.55-1.58 4.32-25.28h25.71v3.78q0 1.91-1.19 3.1-1.19 1.19-4.03 1.19h-14.29Zm35.1 24.37h15.84v-17.03q0-2.41.32-5.33l-16.16 22.36Zm23.58 0h6.55v5.15q0 .72-.47 1.24t-1.33.52h-4.75v12.71h-7.74v-12.71h-21.96q-.9 0-1.59-.56-.68-.55-.86-1.38l-.94-4.5 24.66-32.94h8.43v32.47Zm18.18 0h15.84v-17.03q0-2.41.32-5.33l-16.16 22.36Zm23.58 0h6.55v5.15q0 .72-.47 1.24t-1.33.52h-4.75v12.71h-7.74v-12.71h-21.96q-.9 0-1.59-.56-.68-.55-.86-1.38l-.94-4.5 24.66-32.94h8.43v32.47Zm63.75 7.7-4.71 4.65-12.21-12.21-12.31 12.28-4.72-4.64 12.32-12.35-11.74-11.74 4.68-4.68 11.74 11.74 11.66-11.67 4.75 4.68-11.7 11.7 12.24 12.24Zm43.35 3.64h13.35q1.44 0 2.29.81.84.81.84 2.14v5.33h-35.71v-2.95q0-.9.38-1.89.38-.99 1.21-1.78l15.8-15.84q1.98-2.02 3.55-3.86 1.56-1.83 2.61-3.63 1.04-1.8 1.6-3.66.56-1.85.56-3.9 0-1.87-.54-3.3-.54-1.42-1.53-2.39-.99-.97-2.38-1.46-1.39-.48-3.11-.48-1.59 0-2.94.45-1.35.45-2.39 1.26-1.05.81-1.77 1.89-.72 1.08-1.08 2.37-.61 1.66-1.58 2.2-.97.54-2.81.25l-4.68-.83q.54-3.74 2.09-6.57 1.55-2.82 3.87-4.71 2.32-1.89 5.33-2.85 3-.95 6.46-.95 3.6 0 6.59 1.06 2.99 1.06 5.11 3.01 2.12 1.94 3.31 4.68 1.19 2.73 1.19 6.08 0 2.88-.85 5.33-.84 2.45-2.26 4.68-1.43 2.23-3.33 4.32-1.91 2.09-4 4.25l-11.74 11.98q1.7-.5 3.37-.77 1.67-.27 3.19-.27Zm40.68 1.91q2.19 0 3.85-.63 1.65-.63 2.79-1.75 1.13-1.11 1.71-2.66.57-1.55.57-3.35 0-4.28-2.37-6.48-2.38-2.2-6.55-2.2-4.18 0-6.56 2.2-2.37 2.2-2.37 6.48 0 1.8.57 3.35.58 1.55 1.71 2.66 1.14 1.12 2.79 1.75 1.66.63 3.86.63Zm0-39.57q-1.98 0-3.42.62-1.44.61-2.4 1.63-.95 1.03-1.4 2.36-.45 1.33-.45 2.81 0 1.55.38 3.01.37 1.45 1.27 2.59.9 1.13 2.38 1.82 1.48.68 3.64.68t3.63-.68q1.48-.69 2.38-1.82.9-1.14 1.28-2.59.37-1.46.37-3.01 0-1.48-.46-2.81-.47-1.33-1.41-2.36-.93-1.02-2.37-1.63-1.44-.62-3.42-.62Zm8.78 18.8q4.75 1.54 7.02 4.73 2.27 3.19 2.27 7.79 0 3.46-1.32 6.27-1.31 2.81-3.69 4.79-2.37 1.98-5.7 3.06t-7.36 1.08q-4.04 0-7.37-1.08t-5.7-3.06q-2.38-1.98-3.69-4.79-1.32-2.81-1.32-6.27 0-4.6 2.27-7.79 2.27-3.19 7.02-4.73-3.78-1.59-5.67-4.5-1.89-2.92-1.89-7.02 0-2.96 1.21-5.51 1.2-2.56 3.36-4.45 2.16-1.89 5.17-2.95 3.01-1.06 6.61-1.06 3.6 0 6.6 1.06 3.01 1.06 5.17 2.95 2.16 1.89 3.36 4.45 1.21 2.55 1.21 5.51 0 4.1-1.89 7.02-1.89 2.91-5.67 4.5Zm52.06 1.11q0 6.81-1.46 11.83-1.46 5.02-4.03 8.3-2.58 3.27-6.09 4.87-3.51 1.61-7.58 1.61-4.06 0-7.54-1.61-3.47-1.6-6.03-4.87-2.55-3.28-3.99-8.3-1.44-5.02-1.44-11.83 0-6.84 1.44-11.84 1.44-5.01 3.99-8.28 2.56-3.28 6.03-4.88 3.48-1.6 7.54-1.6 4.07 0 7.58 1.6t6.09 4.88q2.57 3.27 4.03 8.28 1.46 5 1.46 11.84Zm-9.18 0q0-5.65-.83-9.36-.83-3.71-2.22-5.9-1.38-2.2-3.18-3.08-1.8-.88-3.75-.88-1.9 0-3.69.88-1.78.88-3.15 3.08-1.36 2.19-2.17 5.9-.81 3.71-.81 9.36 0 5.65.81 9.36.81 3.71 2.17 5.91 1.37 2.19 3.15 3.07 1.79.89 3.69.89 1.95 0 3.75-.89 1.8-.88 3.18-3.07 1.39-2.2 2.22-5.91.83-3.71.83-9.36Z"/></svg>