<svg xmlns="http://www.w3.org/2000/svg" width="1240" height="450" viewBox="0 0 1240 450"><rect width="100%" height="100%" fill="#EEE"/><path fill="#31343C" d="M299.42 264.28h18.98v13.5H260v-13.5h21.39v-61.54q0-3.65.22-7.52l-15.19 12.7q-1.31 1.02-2.59 1.28-1.28.25-2.41.03-1.13-.22-2.01-.76-.87-.55-1.31-1.21l-5.69-7.81 32.19-27.37h14.82v92.2Zm72.63-3.29h27.09q2.92 0 4.63 1.64 1.72 1.65 1.72 4.35v10.8h-72.42v-5.99q0-1.82.77-3.83.76-2.01 2.44-3.61l32.05-32.12q4.01-4.09 7.19-7.81 3.18-3.73 5.29-7.38 2.12-3.65 3.25-7.41 1.13-3.76 1.13-7.92 0-3.79-1.09-6.68-1.1-2.88-3.11-4.85-2-1.97-4.81-2.96-2.81-.98-6.32-.98-3.21 0-5.95.91-2.73.91-4.85 2.56-2.12 1.64-3.58 3.83-1.46 2.19-2.19 4.82-1.24 3.35-3.21 4.45-1.97 1.09-5.69.51l-9.49-1.68q1.09-7.59 4.23-13.32 3.14-5.73 7.85-9.56 4.71-3.84 10.8-5.77 6.1-1.94 13.1-1.94 7.3 0 13.36 2.16 6.06 2.15 10.37 6.09 4.31 3.95 6.72 9.49 2.4 5.55 2.4 12.34 0 5.84-1.71 10.8-1.72 4.97-4.6 9.49-2.88 4.53-6.75 8.76-3.87 4.24-8.11 8.62l-23.79 24.31q3.43-1.02 6.82-1.57 3.4-.55 6.46-.55ZM432.06 238h32.12v-34.53q0-4.89.66-10.81L432.06 238Zm47.81 0h13.29v10.43q0 1.46-.95 2.52t-2.7 1.06h-9.64v25.77h-15.69v-25.77h-44.53q-1.83 0-3.21-1.13-1.39-1.13-1.76-2.81l-1.89-9.13 50-66.79h17.08V238Zm98.04-13q0 13.8-2.95 23.98-2.96 10.19-8.18 16.83-5.22 6.64-12.34 9.89-7.11 3.25-15.36 3.25t-15.3-3.25q-7.04-3.25-12.22-9.89-5.19-6.64-8.11-16.83-2.92-10.18-2.92-23.98 0-13.87 2.92-24.02 2.92-10.14 8.11-16.79 5.18-6.64 12.22-9.89 7.05-3.25 15.3-3.25t15.36 3.25q7.12 3.25 12.34 9.89 5.22 6.65 8.18 16.79 2.95 10.15 2.95 24.02Zm-18.61 0q0-11.46-1.68-18.98t-4.49-11.97q-2.81-4.45-6.46-6.24t-7.59-1.79q-3.87 0-7.49 1.79-3.61 1.79-6.38 6.24-2.78 4.45-4.42 11.97-1.64 7.52-1.64 18.98t1.64 18.98q1.64 7.52 4.42 11.97 2.77 4.46 6.38 6.24 3.62 1.79 7.49 1.79 3.94 0 7.59-1.79 3.65-1.78 6.46-6.24 2.81-4.45 4.49-11.97 1.68-7.52 1.68-18.98Zm134.54 28.62-9.57 9.41-24.74-24.74-24.97 24.89-9.56-9.42 24.96-25.04-23.79-23.79 9.49-9.49 23.79 23.79 23.66-23.65 9.63 9.49-23.72 23.73 24.82 24.82ZM757.05 238h32.12v-34.53q0-4.89.66-10.81L757.05 238Zm47.82 0h13.29v10.43q0 1.46-.95 2.52t-2.7 1.06h-9.64v25.77h-15.7v-25.77h-44.53q-1.82 0-3.21-1.13-1.38-1.13-1.75-2.81l-1.9-9.13 50.01-66.79h17.08V238Zm50.37-49.43-3.72 21.98q3.5-.73 6.71-1.06 3.21-.33 6.21-.33 8.32 0 14.67 2.48t10.66 6.86q4.31 4.38 6.5 10.26 2.19 5.88 2.19 12.67 0 8.39-2.96 15.33-2.96 6.93-8.21 11.86-5.26 4.93-12.45 7.63-7.19 2.7-15.66 2.7-4.96 0-9.42-1.02-4.45-1.03-8.35-2.74-3.91-1.72-7.23-3.94-3.32-2.23-5.95-4.71l5.55-7.67q1.75-2.48 4.6-2.48 1.82 0 3.72 1.17 1.9 1.17 4.34 2.55 2.45 1.39 5.77 2.56 3.32 1.17 7.99 1.17 4.97 0 8.76-1.61 3.8-1.6 6.32-4.49 2.52-2.88 3.79-6.86 1.28-3.98 1.28-8.65 0-8.61-5-13.47-5-4.85-14.78-4.85-7.52 0-15.4 2.77l-11.25-3.21 8.76-51.25h52.13v7.67q0 3.87-2.41 6.28-2.41 2.4-8.18 2.4h-28.98ZM987.59 225q0 13.8-2.96 23.98-2.96 10.19-8.17 16.83-5.22 6.64-12.34 9.89-7.12 3.25-15.37 3.25t-15.29-3.25q-7.05-3.25-12.23-9.89-5.18-6.64-8.1-16.83-2.92-10.18-2.92-23.98 0-13.87 2.92-24.02 2.92-10.14 8.1-16.79 5.18-6.64 12.23-9.89 7.04-3.25 15.29-3.25t15.37 3.25q7.12 3.25 12.34 9.89 5.21 6.65 8.17 16.79 2.96 10.15 2.96 24.02Zm-18.62 0q0-11.46-1.68-18.98-1.67-7.52-4.49-11.97-2.81-4.45-6.46-6.24t-7.59-1.79q-3.87 0-7.48 1.79-3.61 1.79-6.39 6.24-2.77 4.45-4.41 11.97-1.65 7.52-1.65 18.98t1.65 18.98q1.64 7.52 4.41 11.97 2.78 4.46 6.39 6.24 3.61 1.79 7.48 1.79 3.94 0 7.59-1.79 3.65-1.78 6.46-6.24 2.82-4.45 4.49-11.97 1.68-7.52 1.68-18.98Z"/></svg>