<svg width="40" height="40" viewBox="0 0 40 40" fill="none" xmlns="http://www.w3.org/2000/svg">
<path d="M20 39C30.4934 39 39 30.4934 39 20C39 9.5066 30.4934 1 20 1C9.5066 1 1 9.5066 1 20C1 30.4934 9.5066 39 20 39Z" fill="#F5B945"/>
<path d="M20.7884 26.7165L19.9999 27.9135L17.3114 31.97C17.2254 32.1007 17.1084 32.2081 16.9708 32.2827C16.8333 32.3573 16.6794 32.3967 16.5229 32.3975H16.4564C16.2886 32.3858 16.127 32.3295 15.9884 32.2342C15.8497 32.139 15.7391 32.0084 15.6679 31.856L13.5304 27.372L8.56193 27.1535C8.39338 27.1447 8.23009 27.0918 8.08839 27.0001C7.94668 26.9084 7.83153 26.7812 7.75443 26.631C7.67955 26.4816 7.64538 26.3151 7.65539 26.1484C7.6654 25.9816 7.71922 25.8204 7.81143 25.681L11.4214 20.228C11.6662 20.753 11.9622 21.2525 12.3049 21.7195C13.5576 23.4373 15.3454 24.6904 17.3874 25.282C17.7206 25.3815 18.0602 25.4577 18.4039 25.51L18.8599 26.194L19.2114 25.6715C19.2211 25.6535 19.234 25.6374 19.2494 25.624C19.4964 25.643 19.7434 25.6525 19.9999 25.6525H20.1614C20.3609 25.6525 20.5604 25.643 20.7504 25.624C20.7685 25.6445 20.7844 25.6668 20.7979 25.6905L20.8359 25.757C20.9171 25.9058 20.9557 26.0741 20.9473 26.2434C20.9389 26.4127 20.8839 26.5764 20.7884 26.7165Z" fill="white"/>
<path d="M32.1885 25.681L28.5785 20.228C28.3337 20.753 28.0378 21.2525 27.695 21.7195C26.886 22.8311 25.8469 23.7553 24.6485 24.4291C23.4501 25.1028 22.1206 25.5104 20.7505 25.624C20.5605 25.643 20.361 25.6525 20.1615 25.6525H20C19.7435 25.6525 19.4965 25.643 19.2495 25.624C18.9654 25.6053 18.6829 25.5672 18.404 25.51L18.86 26.194L20 27.9135L22.6885 31.97C22.7746 32.1007 22.8916 32.2081 23.0291 32.2827C23.1667 32.3573 23.3205 32.3967 23.477 32.3975H23.5435C23.7113 32.3858 23.8729 32.3295 24.0116 32.2342C24.1502 32.139 24.2609 32.0084 24.332 31.856L26.4695 27.372L31.438 27.1535C31.6066 27.1447 31.7698 27.0918 31.9116 27.0001C32.0533 26.9084 32.1684 26.7812 32.2455 26.631C32.3204 26.4816 32.3546 26.3151 32.3445 26.1484C32.3345 25.9816 32.2807 25.8204 32.1885 25.681Z" fill="white"/>
<path d="M20 18.955C21.5477 18.955 22.8025 17.7003 22.8025 16.1525C22.8025 14.6047 21.5477 13.35 20 13.35C18.4522 13.35 17.1974 14.6047 17.1974 16.1525C17.1974 17.7003 18.4522 18.955 20 18.955Z" fill="white"/>
<path d="M20 18.955C21.5477 18.955 22.8025 17.7003 22.8025 16.1525C22.8025 14.6047 21.5477 13.35 20 13.35C18.4522 13.35 17.1974 14.6047 17.1974 16.1525C17.1974 17.7003 18.4522 18.955 20 18.955Z" fill="white"/>
<path d="M20 7.60249C17.7335 7.60601 15.5608 8.50794 13.9581 10.1106C12.3554 11.7133 11.4535 13.886 11.45 16.1525C11.4475 17.2261 11.6506 18.2903 12.0485 19.2875C12.5308 20.5075 13.2871 21.6004 14.259 22.4816C15.2308 23.3629 16.3922 24.009 17.6535 24.37C18.4158 24.592 19.206 24.704 20 24.7025H20.1425C20.7338 24.692 21.3227 24.622 21.9 24.4935C21.9427 24.4865 21.9842 24.4737 22.0235 24.4555C22.0628 24.4472 22.101 24.4344 22.1375 24.4175C23.4429 24.0825 24.6504 23.4429 25.661 22.5512C26.6716 21.6595 27.4565 20.5411 27.9515 19.2875C28.3494 18.2903 28.5525 17.2261 28.55 16.1525C28.5465 13.886 27.6445 11.7133 26.0419 10.1106C24.4392 8.50794 22.2665 7.60601 20 7.60249ZM20 20.855C19.0699 20.855 18.1607 20.5792 17.3874 20.0625C16.6141 19.5458 16.0114 18.8113 15.6554 17.9521C15.2995 17.0928 15.2064 16.1473 15.3878 15.2351C15.5693 14.3229 16.0172 13.485 16.6748 12.8273C17.3325 12.1697 18.1704 11.7218 19.0826 11.5404C19.9948 11.3589 20.9403 11.452 21.7996 11.808C22.6588 12.1639 23.3933 12.7666 23.91 13.5399C24.4267 14.3133 24.7025 15.2224 24.7025 16.1525C24.7012 17.3993 24.2054 18.5947 23.3238 19.4763C22.4422 20.3579 21.2468 20.8537 20 20.855Z" fill="white"/>
<path d="M20 7.60249C17.7335 7.60601 15.5608 8.50794 13.9581 10.1106C12.3554 11.7133 11.4535 13.886 11.45 16.1525C11.4475 17.2261 11.6506 18.2903 12.0485 19.2875C12.5308 20.5075 13.2871 21.6004 14.259 22.4816C15.2308 23.3629 16.3922 24.009 17.6535 24.37C18.4158 24.592 19.206 24.704 20 24.7025H20.1425C20.7338 24.692 21.3227 24.622 21.9 24.4935C21.9427 24.4865 21.9842 24.4737 22.0235 24.4555C22.0628 24.4472 22.101 24.4344 22.1375 24.4175C23.4429 24.0825 24.6504 23.4429 25.661 22.5512C26.6716 21.6595 27.4565 20.5411 27.9515 19.2875C28.3494 18.2903 28.5525 17.2261 28.55 16.1525C28.5465 13.886 27.6445 11.7133 26.0419 10.1106C24.4392 8.50794 22.2665 7.60601 20 7.60249ZM20 20.855C19.0699 20.855 18.1607 20.5792 17.3874 20.0625C16.6141 19.5458 16.0114 18.8113 15.6554 17.9521C15.2995 17.0928 15.2064 16.1473 15.3878 15.2351C15.5693 14.3229 16.0172 13.485 16.6748 12.8273C17.3325 12.1697 18.1704 11.7218 19.0826 11.5404C19.9948 11.3589 20.9403 11.452 21.7996 11.808C22.6588 12.1639 23.3933 12.7666 23.91 13.5399C24.4267 14.3133 24.7025 15.2224 24.7025 16.1525C24.7012 17.3993 24.2054 18.5947 23.3238 19.4763C22.4422 20.3579 21.2468 20.8537 20 20.855Z" fill="white"/>
</svg>
