<svg width="40" height="40" viewBox="0 0 40 40" fill="none" xmlns="http://www.w3.org/2000/svg">
<path d="M27.2434 0H24.8289V40H27.2434C29.9104 40 32.0724 37.838 32.0724 35.171V4.82897C32.0724 2.16201 29.9104 0 27.2434 0Z" fill="#51577D"/>
<path d="M29.6579 35.171V30.3421L27.2434 17.5855L29.6579 4.82897C29.6579 2.16201 27.4959 0 24.829 0H12.7565C10.0896 0 7.92755 2.16201 7.92755 4.82897V35.171C7.92755 37.838 10.0896 40 12.7565 40H24.829C27.4959 40 29.6579 37.838 29.6579 35.171Z" fill="#696E8D"/>
<path d="M21.8108 35.171H19.3964V37.5855H21.8108C22.4776 37.5855 23.0181 37.045 23.0181 36.3783C23.0181 35.7115 22.4776 35.171 21.8108 35.171Z" fill="#9497AD"/>
<path d="M20.6036 36.3783C20.6036 35.7115 20.0631 35.171 19.3964 35.171H18.1891C17.5224 35.171 16.9819 35.7115 16.9819 36.3783C16.9819 37.045 17.5224 37.5855 18.1891 37.5855H19.3964C20.0631 37.5855 20.6036 37.045 20.6036 36.3783Z" fill="#AAACBC"/>
<path d="M27.2435 2.41449C26.8197 2.41469 26.4034 2.52645 26.0365 2.73851L27.2435 9.65795L29.6579 7.24346V4.82898C29.6579 3.49546 28.577 2.41449 27.2435 2.41449Z" fill="#43C2F9"/>
<path d="M27.2435 4.82898C27.2435 3.93554 26.7578 3.15606 26.0365 2.73851C25.8537 2.84383 25.6855 2.97266 25.5362 3.12169L24.5361 4.12177C24.0833 4.57458 23.4691 4.82896 22.8287 4.82898H17.1713C16.5309 4.82897 15.9168 4.57458 15.464 4.12177L14.4638 3.12169C14.011 2.66889 13.3969 2.4145 12.7565 2.41449C11.423 2.41449 10.342 3.49546 10.342 4.82898V7.24346L27.2435 9.65795V4.82898Z" fill="#5FD9F4"/>
<path d="M27.2434 7.24346L24.8289 32.7565H27.2434C28.577 32.7565 29.6579 31.6756 29.6579 30.3421V7.24346H27.2434Z" fill="#C3F7F7"/>
<path d="M27.2435 30.3421V7.24346H10.342V30.3421C10.342 31.6756 11.423 32.7565 12.7565 32.7565H24.829C26.1625 32.7565 27.2435 31.6756 27.2435 30.3421Z" fill="white"/>
<path d="M21.8109 3.01811H18.1891C17.8557 3.01811 17.5855 2.74785 17.5855 2.41449C17.5855 2.08113 17.8557 1.81087 18.1891 1.81087H21.8109C22.1443 1.81087 22.4145 2.08113 22.4145 2.41449C22.4145 2.74785 22.1443 3.01811 21.8109 3.01811Z" fill="#373E69"/>
</svg>
