<svg width="40" height="40" viewBox="0 0 40 40" fill="none" xmlns="http://www.w3.org/2000/svg">
<g clip-path="url(#clip0_106_378)">
<path d="M23.4483 10.3448V18.6207H20V8.27586L23.4483 10.3448Z" fill="#168DE2"/>
<path d="M33.1034 20V40H6.89656V20H0L1.11727 7.73798C1.196 6.86049 1.5142 6.02147 2.03715 5.31245C2.5601 4.60344 3.26772 4.05164 4.08281 3.71727L10.7725 0.958679L16.5518 10.3449L20 8.27587V18.6207H23.4483V10.3449L29.6552 1.3793L29.8276 0.979304L36.0069 3.68274C36.7985 4.02896 37.4825 4.58164 37.9873 5.28293C38.492 5.98422 38.7989 6.80831 38.8759 7.66891L40 20H33.1034Z" fill="#62BEFF"/>
<path d="M20 8.27586L16.5517 10.3448L10.7724 0.958594L13.1034 0L20 8.27586Z" fill="#00448F"/>
<path d="M27.5862 0L20 8.27586L13.1034 0H22.069H27.5862Z" fill="#62BEFF"/>
<path d="M33.1034 20H40V22.7586H33.1034V20Z" fill="#FFD374"/>
<path d="M29.8276 0.979297L29.6552 1.3793L23.4483 10.3448L20 8.27586L27.5862 0L29.8276 0.979297Z" fill="#00448F"/>
<path d="M0 20H6.89656V22.7586H0V20Z" fill="#FFD374"/>
<path d="M32.4138 11.0345H33.7931V22.7586H32.4138V11.0345ZM6.20687 11.7241H7.58617V22.7586H6.20687V11.7241Z" fill="#168DE2"/>
<path d="M22.069 15.1724H23.4483V16.5517H22.069V15.1724ZM22.069 12.4138H23.4483V13.7931H22.069V12.4138Z" fill="#00448F"/>
</g>
<defs>
<clipPath id="clip0_106_378">
<rect width="40" height="40" fill="white"/>
</clipPath>
</defs>
</svg>
