<svg width="40" height="40" viewBox="0 0 40 40" fill="none" xmlns="http://www.w3.org/2000/svg">
<g clip-path="url(#clip0_114_168)">
<path fill-rule="evenodd" clip-rule="evenodd" d="M17.2915 5.1423C16.9151 5.1423 16.6117 4.8389 16.6117 4.46463V1.25568C16.6117 0.881418 16.9151 0.578018 17.2915 0.578018C17.6658 0.578018 17.9692 0.881418 17.9692 1.25568V4.46463C17.9692 4.8389 17.6658 5.1423 17.2915 5.1423ZM24.7348 5.1423C24.3583 5.1423 24.0549 4.8389 24.0549 4.46463V1.25568C24.0549 0.881418 24.3583 0.578018 24.7348 0.578018C25.1091 0.578018 25.4125 0.881418 25.4125 1.25568V4.46463C25.4125 4.8389 25.1091 5.1423 24.7348 5.1423Z" fill="#333333"/>
<path fill-rule="evenodd" clip-rule="evenodd" d="M15.4446 17.9161C17.9914 15.5797 16.7578 13.3097 15.4579 10.9157C14.8422 9.78408 14.262 8.71665 14.1047 7.65143C13.9121 6.34703 14.4126 5.25524 15.5907 4.40483C16.1665 3.99071 16.791 3.78032 17.4488 3.78032C18.6137 3.78032 19.8095 4.44691 21.0121 5.7646C22.2146 4.44691 23.4105 3.78032 24.5753 3.78032C25.2331 3.78032 25.8598 3.99071 26.4334 4.40483C27.6115 5.25524 28.112 6.34703 27.9194 7.65143C27.7621 8.71665 27.1819 9.78408 26.5685 10.9157C25.2995 13.2499 24.097 15.4645 26.3957 17.7389C26.5707 17.9139 26.7678 18.0888 26.987 18.2638L26.9937 18.2704C27.6005 18.7687 28.1718 19.4729 28.7033 20.2901C30.5326 23.1137 31.8658 27.3104 32.4394 29.3102C32.632 29.99 32.7848 30.6301 32.9332 31.2501C33.3784 33.1082 33.7615 34.7138 35.057 36.4921C35.1655 36.6427 35.2076 36.8287 35.1766 37.0103C35.1456 37.1919 35.0415 37.3514 34.8887 37.4554C32.1249 39.3223 25.9085 39.9867 21.0121 39.9867C16.1156 39.9867 9.89923 39.3223 7.13763 37.4554C6.98482 37.3514 6.88073 37.1919 6.84751 37.0103C6.81651 36.8287 6.85859 36.6427 6.9671 36.4943C8.26264 34.7138 8.64577 33.1082 9.0909 31.2501C9.23928 30.6301 9.39208 29.99 9.58697 29.3102C10.2779 26.8918 12.0872 21.2513 14.5366 18.7266C14.6983 18.5605 14.8643 18.4077 15.0304 18.2704C15.0327 18.2682 15.0371 18.266 15.0393 18.2638C15.1832 18.1486 15.3183 18.0312 15.4446 17.9161Z" fill="#1AA1FF"/>
<path fill-rule="evenodd" clip-rule="evenodd" d="M27.7112 39.5726C27.2639 39.6302 26.8121 39.6833 26.3581 39.7276C26.1654 34.5587 23.8113 26.0281 23.787 25.9506C23.6762 25.5941 23.8778 25.2132 24.2365 25.1024C24.5953 24.9917 24.974 25.1932 25.0847 25.5498C25.1822 25.8687 27.4853 34.2221 27.7112 39.5726ZM15.6528 39.7254C15.1988 39.6811 14.747 39.628 14.3018 39.5704C14.561 34.2044 16.842 25.8665 16.9394 25.5498C17.0502 25.1932 17.4311 24.9917 17.7898 25.1024C18.1464 25.2132 18.3479 25.5941 18.2372 25.9506C18.215 26.0281 15.8831 34.5388 15.6528 39.7254Z" fill="#1583FF"/>
<path fill-rule="evenodd" clip-rule="evenodd" d="M6.28943 11.0043C6.03033 11.0043 5.79115 10.8559 5.67821 10.6212L4.21657 7.58277L1.17815 6.12114C0.943404 6.0082 0.795026 5.76902 0.795026 5.50991C0.795026 5.24859 0.943404 5.00942 1.17815 4.89647L4.21657 3.43484L5.67821 0.396415C5.79115 0.161668 6.03033 0.0132904 6.28943 0.0132904C6.55076 0.0132904 6.78993 0.161668 6.90288 0.396415L8.36451 3.43484L11.4029 4.89647C11.6377 5.00942 11.7861 5.24859 11.7861 5.50991C11.7861 5.76902 11.6377 6.0082 11.4029 6.12114L8.36451 7.58277L6.90288 10.6212C6.78993 10.8559 6.55076 11.0043 6.28943 11.0043ZM34.9906 18.6225C34.7293 18.6225 34.4901 18.4741 34.3771 18.2394L33.1835 15.7591L30.7053 14.5654C30.4684 14.4524 30.32 14.2133 30.32 13.9542C30.32 13.6928 30.4684 13.4559 30.7053 13.3407L33.1835 12.1471L34.3771 9.66892C34.4901 9.43417 34.7293 9.28358 34.9906 9.28358C35.2497 9.28358 35.4889 9.43196 35.6018 9.66892L36.7955 12.1471L39.2758 13.3407C39.5106 13.4537 39.6589 13.6928 39.6589 13.9542C39.6589 14.2133 39.5106 14.4524 39.2758 14.5654L36.7955 15.7591L35.6018 18.2394C35.4889 18.4741 35.2497 18.6225 34.9906 18.6225ZM5.01161 29.3677C4.75029 29.3677 4.51333 29.2194 4.39817 28.9846L3.2045 26.5043L0.726373 25.3106C0.491626 25.1977 0.341034 24.9585 0.341034 24.6994C0.341034 24.4381 0.491626 24.2011 0.726373 24.0859L3.2045 22.8923L4.39817 20.4141C4.51333 20.1794 4.75029 20.0288 5.01161 20.0288C5.27294 20.0288 5.5099 20.1794 5.62284 20.4141L6.81651 22.8923L9.29685 24.0859C9.5316 24.2011 9.67998 24.4381 9.67998 24.6994C9.67998 24.9585 9.5316 25.1977 9.29685 25.3106L6.81651 26.5043L5.62284 28.9846C5.5099 29.2194 5.27072 29.3677 5.01161 29.3677Z" fill="#FFA721"/>
</g>
<defs>
<clipPath id="clip0_114_168">
<rect width="40" height="40" fill="white"/>
</clipPath>
</defs>
</svg>
