<svg width="40" height="41" viewBox="0 0 40 41" fill="none" xmlns="http://www.w3.org/2000/svg">
<g clip-path="url(#clip0_106_317)">
<path d="M21.7834 0H39.448V38.0467H21.7834V0Z" fill="#E3584B"/>
<path d="M21.7834 12.2293H39.448V13.5881H21.7834V12.2293Z" fill="#CC4F43"/>
<path d="M24.5011 4.07643H25.8599V10.8705H24.5011V4.07643ZM24.5011 14.9469H25.8599V24.4586H24.5011V14.9469Z" fill="#D6D9DB"/>
<path d="M22.4628 38.0467H23.8217V40.0849H22.4628V38.0467ZM37.4098 38.0467H38.7686V40.0849H37.4098V38.0467Z" fill="#0A4A7A"/>
<path d="M0.0424614 14.2675H19.0658V38.0467H0.0424614V14.2675Z" fill="#4398D1"/>
<path d="M0.0424614 19.0233H19.0658V20.3822H0.0424614V19.0233ZM2.08068 16.3057H3.43949V17.6645H2.08068V16.3057ZM4.7983 16.3057H6.15711V17.6645H4.7983V16.3057ZM7.51592 16.3057H8.87473V17.6645H7.51592V16.3057ZM12.9512 16.3057H17.0276V17.6645H12.9512V16.3057Z" fill="#2D81BA"/>
<path d="M0.0424614 0H19.0658V11.5499H0.0424614V0Z" fill="#FFA217"/>
<path d="M2.76008 2.71762H10.9129V8.83227H2.76008V2.71762Z" fill="#87CED9"/>
<path d="M0.721867 38.0467H2.08068V40.0849H0.721867V38.0467ZM17.0276 38.0467H18.3864V40.0849H17.0276V38.0467Z" fill="#0A4A7A"/>
<path d="M17.707 29.2144C17.707 33.342 14.3611 36.6879 10.2335 36.6879C6.10598 36.6879 2.76008 33.342 2.76008 29.2144C2.76008 25.0869 6.10598 21.741 10.2335 21.741C14.3611 21.741 17.707 25.0869 17.707 29.2144Z" fill="#3E8DC2"/>
<path d="M16.3482 28.535C16.3482 32.2874 13.3065 35.3291 9.55414 35.3291C5.80178 35.3291 2.76008 32.2874 2.76008 28.535C2.76008 24.7827 5.80178 21.741 9.55414 21.741C13.3065 21.741 16.3482 24.7827 16.3482 28.535Z" fill="#D6D9DB"/>
<path d="M14.31 28.535C14.31 31.1618 12.1809 33.2909 9.55414 33.2909C6.92739 33.2909 4.7983 31.1618 4.7983 28.535C4.7983 25.9083 6.92739 23.7792 9.55414 23.7792C12.1809 23.7792 14.31 25.9083 14.31 28.535Z" fill="#71C4D1"/>
<path d="M12.9512 28.535C12.9512 30.411 11.4301 31.9321 9.55414 31.9321C7.67813 31.9321 6.15711 30.411 6.15711 28.535C6.15711 26.659 7.67813 25.138 9.55414 25.138C11.4301 25.138 12.9512 26.659 12.9512 28.535Z" fill="#87CED9"/>
<path d="M14.358 23.7311L11.5924 26.4968V30.5732L14.358 33.3389C17.0114 30.686 17.0114 26.384 14.358 23.7311Z" fill="#D6D9DB"/>
<path d="M2.76008 2.71762H10.9129V4.07643H2.76008V2.71762Z" fill="#71C4D1"/>
<path d="M15.6688 2.03822H17.0276V3.39703H15.6688V2.03822ZM15.6688 4.75584H17.0276V6.11465H15.6688V4.75584ZM16.3482 7.81316C15.7852 7.81316 15.3291 8.2693 15.3291 8.83227C15.3291 9.39524 15.7852 9.85138 16.3482 9.85138C16.9112 9.85138 17.3673 9.39524 17.3673 8.83227C17.3673 8.2693 16.9112 7.81316 16.3482 7.81316ZM12.9512 0H14.31V11.5499H12.9512V0Z" fill="#EB8B23"/>
<path d="M25.8599 4.07643V10.8705H24.5011V12.2293H27.2187V4.07643H25.8599ZM25.8599 14.9469V24.4586H24.5011V25.8174H27.2187V14.9469H25.8599Z" fill="#CF4E42"/>
</g>
<defs>
<clipPath id="clip0_106_317">
<rect width="40" height="40.0849" fill="white"/>
</clipPath>
</defs>
</svg>
