<svg width="24" height="24" viewBox="0 0 24 24" fill="none" xmlns="http://www.w3.org/2000/svg">
<g clip-path="url(#clip0_105_1821)">
<path d="M0.0772705 8.74794C0.0772705 4.38714 3.62497 0.839386 7.98578 0.839386C12.3465 0.839386 15.8943 4.38714 15.8943 8.74794H0.0772705Z" fill="#60D9A7"/>
<path d="M4.046 13.6018C0.990857 13.6018 0 13.0892 0 8.74796H3.45523L4.046 13.6018Z" fill="#60D9A7"/>
<path d="M10.7641 13.5848C10.7641 13.5848 11.1763 13.3881 11.5374 13.7616C12.5206 14.7788 14.1854 17.5647 14.1854 21.357L13.213 20.9828L13.041 21.357H2.64331C2.64331 16.1719 6.06459 13.5848 6.06459 13.5848H10.7641Z" fill="#F8E86A"/>
<path d="M2.99865 8.74789H0C0 13.0891 0.990857 13.6018 4.046 13.6018L3.73246 11.0254C3.35503 10.31 3.10315 9.54559 2.99865 8.74789Z" fill="#00CD8C"/>
<path d="M2.9436 7.90601C2.9436 4.93102 4.98008 2.31976 8.0459 0.840159C8.02586 0.840014 8.00591 0.839386 7.98583 0.839386C3.62497 0.839386 0.0772705 4.38714 0.0772705 8.74789H2.99865C2.96234 8.47105 2.9436 8.19019 2.9436 7.90601Z" fill="#00CD8C"/>
<path d="M13.889 6.66593C13.6487 5.98505 13.0247 5.51562 12.3042 5.46883C11.3942 5.40977 9.98766 5.15012 8.60213 4.22643C8.22948 3.97803 7.74209 3.97803 7.36944 4.22643C5.98372 5.15022 4.57704 5.40982 3.66702 5.46888C2.95383 5.51514 2.32929 5.97389 2.08929 6.64705C1.84413 7.33475 1.71582 8.07788 1.72852 8.85269C1.78391 12.237 4.55815 14.9832 7.94283 15.006C11.4188 15.0293 14.244 12.2185 14.244 8.74795C14.2439 8.01795 14.1188 7.31722 13.889 6.66593Z" fill="#FED2A4"/>
<path d="M5.73319 9.01551C5.53318 9.01551 5.37102 8.85335 5.37102 8.65333C5.37102 8.49504 5.24223 8.36625 5.08394 8.36625C4.92564 8.36625 4.79686 8.49504 4.79686 8.65333C4.79686 8.85335 4.6347 9.01551 4.43468 9.01551C4.23467 9.01551 4.07251 8.85335 4.07251 8.65333C4.07251 8.09564 4.52624 7.64191 5.08394 7.64191C5.64164 7.64191 6.09537 8.09564 6.09537 8.65333C6.09537 8.85335 5.93321 9.01551 5.73319 9.01551Z" fill="#423E4F"/>
<path d="M11.5368 9.01551C11.3368 9.01551 11.1747 8.85335 11.1747 8.65333C11.1747 8.49504 11.0459 8.36625 10.8876 8.36625C10.7293 8.36625 10.6005 8.49504 10.6005 8.65333C10.6005 8.85335 10.4383 9.01551 10.2383 9.01551C10.0383 9.01551 9.87616 8.85335 9.87616 8.65333C9.87616 8.09564 10.3299 7.64191 10.8876 7.64191C11.4453 7.64191 11.899 8.09564 11.899 8.65333C11.899 8.85335 11.7369 9.01551 11.5368 9.01551Z" fill="#423E4F"/>
<path d="M7.98574 10.0881C7.6171 10.0881 7.26656 9.92846 7.02401 9.65012C6.89261 9.49931 6.9083 9.27056 7.05911 9.13912C7.20992 9.00772 7.43867 9.02342 7.57011 9.17422C7.6751 9.29466 7.82658 9.36376 7.98574 9.36376C8.14496 9.36376 8.29644 9.29471 8.40137 9.17427C8.53277 9.02342 8.76157 9.00772 8.91238 9.13912C9.06318 9.27051 9.07893 9.49926 8.94753 9.65012C8.70497 9.92846 8.35444 10.0881 7.98574 10.0881Z" fill="#423E4F"/>
<path d="M12.1751 18.2004L10.7735 21.2506C10.5308 21.7787 10.7622 22.4036 11.2904 22.6463C11.8185 22.889 12.4434 22.6575 12.686 22.1294L14.0876 19.0792L12.1751 18.2004Z" fill="#E27858"/>
<path d="M19.8345 21.6493L18.3713 18.6281L16.477 19.5456L17.9402 22.5667C18.1935 23.0898 18.823 23.3085 19.3461 23.0551C19.8692 22.8018 20.0879 22.1724 19.8345 21.6493Z" fill="#E7886E"/>
<path d="M20.7925 9.35214C20.7925 9.35214 24 8.24452 24 12.0874C24 13.9943 22.5972 14.8611 20.0834 14.8611L20.7925 9.35214Z" fill="#E27858"/>
<path d="M17.9094 7.51477C17.9094 7.51477 17.1726 4.20233 13.8993 6.21539C12.2749 7.21436 12.2714 8.8634 13.5882 11.0046L17.9094 7.51477Z" fill="#E27858"/>
<path d="M15.8098 21.781C13.2576 21.781 11.1887 19.712 11.1887 17.1599C11.1887 12.8798 12.79 10.1009 13.1109 9.58731C14.4635 7.42311 17.3145 6.76502 19.4786 8.11766C21.6129 9.45152 22.2823 12.2426 21.0033 14.3952C20.9341 14.5268 20.4307 15.5411 20.4307 17.1599C20.4308 19.7121 18.3619 21.781 15.8098 21.781ZM20.9519 14.4795C20.9507 14.4815 20.9495 14.4834 20.9483 14.4854C20.9496 14.4834 20.9508 14.4815 20.9519 14.4795ZM20.955 14.4746C20.9543 14.4758 20.9534 14.4772 20.9526 14.4784C20.9535 14.4771 20.9543 14.4759 20.955 14.4746Z" fill="#ED9B83"/>
<path d="M15.4261 9.65864C15.4893 9.46886 15.3867 9.26377 15.1968 9.20061C15.0071 9.1373 14.802 9.24001 14.7388 9.42984L14.5853 9.89091C14.5221 10.0807 14.6247 10.2858 14.8145 10.3489C14.8525 10.3616 14.891 10.3676 14.929 10.3676C15.0807 10.3676 15.222 10.2715 15.2726 10.1197L15.4261 9.65864Z" fill="#423E4F"/>
<path d="M19.9959 10.7985C19.8061 10.7352 19.6011 10.8379 19.5379 11.0277L19.3844 11.4888C19.3212 11.6786 19.4238 11.8836 19.6136 11.9468C19.6516 11.9595 19.6901 11.9654 19.7281 11.9654C19.8797 11.9654 20.0211 11.8694 20.0716 11.7176L20.2252 11.2565C20.2883 11.0667 20.1857 10.8616 19.9959 10.7985Z" fill="#423E4F"/>
<path d="M18.4053 11.2998C18.2153 11.2365 18.0104 11.3392 17.9472 11.529C17.9083 11.6458 17.7816 11.7092 17.6649 11.6704C17.6083 11.6515 17.5624 11.6118 17.5358 11.5584C17.5091 11.5051 17.5048 11.4446 17.5236 11.388C17.5868 11.1982 17.4842 10.9932 17.2944 10.93C17.1045 10.8667 16.8995 10.9694 16.8364 11.1592C16.7975 11.2759 16.6707 11.3393 16.554 11.3005C16.4974 11.2816 16.4516 11.2419 16.4249 11.1885C16.3983 11.1352 16.3939 11.0747 16.4127 11.0181C16.476 10.8283 16.3733 10.6233 16.1836 10.5601C15.9937 10.4967 15.7887 10.5995 15.7255 10.7893C15.6456 11.0294 15.6639 11.2863 15.7772 11.5127C15.8904 11.7391 16.085 11.9078 16.3252 11.9877C16.4236 12.0204 16.5247 12.0367 16.6255 12.0367C16.7341 12.0367 16.8423 12.0178 16.9458 11.9802C17.0587 12.1514 17.2269 12.2879 17.4361 12.3576C17.5351 12.3905 17.6357 12.4062 17.7347 12.4062C18.1316 12.4062 18.5024 12.1546 18.6345 11.7579C18.6977 11.5681 18.5951 11.3631 18.4053 11.2998Z" fill="#423E4F"/>
<path d="M17.3295 10.8246C17.5168 10.887 17.7038 10.8946 17.8588 10.8566C18.0627 10.8067 18.0727 10.5197 17.8736 10.4534L17.1164 10.2014C16.9173 10.1351 16.7533 10.3708 16.8866 10.5329C16.988 10.6562 17.1422 10.7623 17.3295 10.8246Z" fill="#423E4F"/>
<path d="M17.6448 13.7841C17.3776 13.5169 17.0224 13.3698 16.6446 13.3698C16.2668 13.3698 15.9115 13.5169 15.6444 13.7841C15.0928 14.3356 15.0928 15.233 15.6444 15.7846L16.3509 16.4911C16.4216 16.5618 16.5143 16.5971 16.607 16.5971C16.6996 16.5971 16.7923 16.5618 16.863 16.4911C17.0045 16.3496 17.0045 16.1203 16.863 15.9789L16.1565 15.2724C15.8874 15.0033 15.8874 14.5654 16.1565 14.2963C16.2869 14.1659 16.4602 14.0941 16.6446 14.0941C16.8289 14.0941 17.0023 14.1659 17.1326 14.2963L17.8392 15.0028C17.9806 15.1443 18.2099 15.1442 18.3513 15.0028C18.4928 14.8613 18.4928 14.632 18.3513 14.4906L17.6448 13.7841Z" fill="#E7886E"/>
<path d="M13.1008 14.5965C13.1008 11.6784 14.3692 9.08901 16.3279 7.46893C15.0452 7.66658 13.8527 8.40039 13.1109 9.58731C12.79 10.1009 11.1887 12.8798 11.1887 17.1599C11.1887 19.7121 13.2576 21.7809 15.8098 21.7809C15.9953 21.7809 16.1783 21.7697 16.3581 21.7484C14.3824 20.1301 13.1008 17.5294 13.1008 14.5965Z" fill="#E7886E"/>
<path d="M13.9403 20.1607C12.2296 20.3281 10.5273 20.2494 8.85859 19.9264L8.41437 17.965L9.52629 16.7411C10.872 16.9963 12.2442 17.0575 13.623 16.9227C14.5175 16.835 15.313 17.489 15.4007 18.383C15.4883 19.2771 14.8343 20.073 13.9403 20.1607Z" fill="#FED2A4"/>
<path d="M9.52624 16.7412L8.85853 19.9264C8.18803 19.7968 7.5227 19.628 6.86441 19.4195C6.00765 19.1484 5.53277 18.2341 5.80392 17.3778C6.07507 16.5211 6.9889 16.0467 7.84566 16.3173C8.40022 16.4927 8.96086 16.6341 9.52624 16.7412Z" fill="#FBC072"/>
<path d="M2.9436 7.90602C2.9436 7.07157 3.10455 6.26591 3.40274 5.50558C2.80283 5.63399 2.29907 6.05855 2.08926 6.64711C2.04343 6.77565 2.00171 6.90613 1.96419 7.0384C1.89059 7.02671 1.81202 7.02034 1.72761 7.02034C0.773457 7.02034 0 7.79379 0 8.7479C0 9.70206 0.773457 10.4755 1.72761 10.4755C1.81285 10.4755 1.89214 10.4691 1.96631 10.4572C2.71084 13.0644 5.11326 14.9869 7.94279 15.0059C8.00031 15.0063 8.05758 15.0058 8.11471 15.0047C5.01064 13.5311 2.9436 10.9031 2.9436 7.90602Z" fill="#FFBD86"/>
</g>
<defs>
<clipPath id="clip0_105_1821">
<rect width="24" height="24" fill="white"/>
</clipPath>
</defs>
</svg>