<svg width="24" height="24" viewBox="0 0 24 24" fill="none" xmlns="http://www.w3.org/2000/svg">
<path d="M21.394 19.1228C22.7107 17.2542 23.4844 14.9753 23.4844 12.5156C23.4844 6.17297 18.3427 1.03125 12 1.03125C5.65734 1.03125 0.515625 6.17297 0.515625 12.5156C0.515625 14.9753 1.2893 17.2542 2.60602 19.1228H21.394Z" fill="#FFCB37"/>
<path d="M20.5152 8.56707V2.88718H17.3148V5.36668L20.5152 8.56707Z" fill="#A0391E"/>
<path d="M18.915 6.96685V2.88718H17.3148V5.36668L18.915 6.96685Z" fill="#84260D"/>
<path d="M17.3148 4.24161C18.8833 4.24161 19.8674 4.24161 20.5152 4.24161V2.84103H17.3148V4.24161Z" fill="#84260D"/>
<path d="M18.915 2.84103H17.3148V4.24161C17.9344 4.24161 18.4624 4.24161 18.915 4.24161V2.84103Z" fill="#631D0A"/>
<path d="M21.1726 2.24254C21.1726 1.87944 20.8783 1.58511 20.5152 1.58511C19.8925 1.58511 19.478 1.58511 17.3148 1.58511C16.9517 1.58511 16.6573 1.87944 16.6573 2.24254C16.6573 2.60563 16.9517 2.89996 17.3148 2.89996C19.4775 2.89996 19.8919 2.89996 20.5152 2.89996C20.8783 2.89996 21.1726 2.60563 21.1726 2.24254Z" fill="#A0391E"/>
<path d="M18.3391 2.24254C18.3391 1.87944 18.6334 1.58511 18.9964 1.58511C18.5877 1.58511 18.0533 1.58511 17.3148 1.58511C16.9517 1.58511 16.6574 1.87944 16.6574 2.24254C16.6574 2.60563 16.9517 2.89996 17.3148 2.89996C18.0533 2.89996 18.5877 2.89996 18.9964 2.89996C18.6334 2.89996 18.3391 2.60563 18.3391 2.24254Z" fill="#84260D"/>
<path d="M21.459 11.1435L12 1.68451L2.54108 11.1435V19.0291C3.64437 20.6282 5.1425 21.9337 6.89492 22.8048H17.1051C18.8575 21.9337 20.3556 20.6282 21.4589 19.0291V11.1435H21.459Z" fill="#FCECCD"/>
<path d="M13.8451 3.52956L12 1.68451L6.66097 7.02357L2.54108 11.1435V19.0291C3.59483 20.5564 5.00933 21.8148 6.66097 22.6838V11.9568C6.66097 11.4363 6.86005 10.9354 7.21737 10.5569L13.8009 3.58281L13.8451 3.52956Z" fill="#EAD3AC"/>
<path d="M22.238 12.02L12 1.78192L1.76192 12.02C1.50523 12.2767 1.08889 12.2767 0.832199 12.02C0.575465 11.7632 0.575465 11.347 0.832199 11.0903L11.5351 0.38734C11.7918 0.130652 12.2081 0.130652 12.4648 0.38734L23.1678 11.0903C23.4245 11.347 23.4245 11.7632 23.1678 12.02C22.911 12.2768 22.4948 12.2767 22.238 12.02Z" fill="#FF3C63"/>
<path d="M12 9.8505C12.8911 9.8505 13.6134 9.12814 13.6134 8.23706C13.6134 7.34599 12.8911 6.62363 12 6.62363C11.1089 6.62363 10.3865 7.34599 10.3865 8.23706C10.3865 9.12814 11.1089 9.8505 12 9.8505Z" fill="#AADAF2"/>
<path d="M4.39313 21.1186C5.14566 21.7845 5.98603 22.353 6.89489 22.8048C8.37272 22.8048 10.0451 22.8048 10.9166 22.8048V15.1573C9.42619 15.1573 5.59013 15.1573 4.39313 15.1573V21.1186Z" fill="#BC4C2E"/>
<path d="M6.66094 22.6847V15.1573C5.7038 15.1573 4.85335 15.1573 4.39313 15.1573V21.1186C5.0806 21.7269 5.84161 22.2537 6.66094 22.6847Z" fill="#A0391E"/>
<path d="M10.9166 13.8425H4.39313V15.1574H10.9166V13.8425Z" fill="#A0391E"/>
<path d="M6.66094 13.8425H4.39313V15.1574H6.66094V13.8425Z" fill="#84260D"/>
<path d="M10.6902 12.5277C9.45957 12.5277 5.27902 12.5277 4.61953 12.5277C4.49447 12.5277 4.39313 12.6291 4.39313 12.7541V13.8426C5.13975 13.8426 9.62461 13.8426 10.9166 13.8426V12.7541C10.9166 12.6291 10.8152 12.5277 10.6902 12.5277Z" fill="#84260D"/>
<path d="M6.88735 12.5277C5.82525 12.5277 4.90116 12.5277 4.61953 12.5277C4.49452 12.5277 4.39313 12.6291 4.39313 12.7541V13.8426C4.69378 13.8426 5.60063 13.8426 6.66094 13.8426V12.7541C6.66094 12.6291 6.76233 12.5277 6.88735 12.5277Z" fill="#631D0A"/>
<path d="M19.6069 15.0762H13.0834V19.9608H19.6069V15.0762Z" fill="#AADAF2"/>
<path d="M16.3452 15.0762H13.0834V19.9608H16.3452V15.0762Z" fill="#8BCBEC"/>
<path d="M6.66095 22.6852C8.25611 23.5244 10.0724 24 12 24C13.9277 24 15.7439 23.5244 17.3391 22.6852C14.0657 22.6852 9.93353 22.6852 6.66095 22.6852Z" fill="#87DA8F"/>
<path d="M10.9372 22.6852C9.44701 22.6852 7.98376 22.6852 6.66095 22.6852C7.93797 23.357 9.35673 23.7954 10.8608 23.9438C10.431 23.6518 10.4648 22.9277 10.9372 22.6852Z" fill="#44BC4D"/>
<path d="M20.1922 20.563V20.1836C20.1922 20.0068 20.0489 19.8634 19.872 19.8634H12.8182C12.6414 19.8634 12.498 20.0068 12.498 20.1836V20.8581C12.498 21.0349 12.6414 21.1782 12.8182 21.1782H19.5396C19.7652 20.9818 19.9827 20.7763 20.1922 20.563Z" fill="#EAD3AC"/>
<path d="M15.9199 20.8581V20.1836C15.9199 20.0068 16.0633 19.8634 16.2401 19.8634H12.8182C12.6414 19.8634 12.498 20.0068 12.498 20.1836V20.8581C12.498 21.0349 12.6414 21.1782 12.8182 21.1782H16.2401C16.0633 21.1782 15.9199 21.0349 15.9199 20.8581Z" fill="#E0BF8D"/>
<path d="M19.6069 13.8425H13.0834V15.1574H19.6069V13.8425Z" fill="#A0391E"/>
<path d="M16.3452 13.8425H13.0834V15.1574H16.3452V13.8425Z" fill="#84260D"/>
<path d="M19.3805 12.5277C18.5423 12.5277 13.5452 12.5277 13.3098 12.5277C13.1848 12.5277 13.0834 12.6291 13.0834 12.7541V13.8426C13.3786 13.8426 18.5714 13.8426 19.6069 13.8426V12.7541C19.6069 12.6291 19.5055 12.5277 19.3805 12.5277Z" fill="#84260D"/>
<path d="M16.5715 12.5277C15.0341 12.5277 13.4403 12.5277 13.3098 12.5277C13.1848 12.5277 13.0834 12.6291 13.0834 12.7541V13.8426C13.2403 13.8426 14.7808 13.8426 16.3451 13.8426V12.7541C16.3451 12.6291 16.4465 12.5277 16.5715 12.5277Z" fill="#631D0A"/>
<path d="M9.50221 19.2204C9.30046 19.2204 9.13696 19.0569 9.13696 18.8551V18.4401C9.13696 18.2384 9.30046 18.0749 9.50221 18.0749C9.70396 18.0749 9.86746 18.2384 9.86746 18.4401V18.8551C9.86746 19.0569 9.70396 19.2204 9.50221 19.2204Z" fill="#84260D"/>
<path d="M10.3865 8.23706C10.3865 9.12816 11.1089 9.8505 12 9.8505V6.62363C11.1089 6.62363 10.3865 7.34597 10.3865 8.23706Z" fill="#8BCBEC"/>
<path d="M14.6583 2.58081L12.4649 0.38734C12.2081 0.130652 11.7919 0.130652 11.5352 0.38734L0.832234 11.0903C0.575453 11.347 0.575453 11.7632 0.832234 12.02C1.08897 12.2767 1.50522 12.2767 1.76195 12.02L12 1.78192L13.8009 3.58281C13.494 3.02026 14.0445 2.36148 14.6583 2.58081Z" fill="#FF0435"/>
<path d="M12 0C11.6369 0 11.3426 0.294328 11.3426 0.657422C11.3426 1.11061 11.3426 1.57017 11.3426 2.03438C11.3426 2.39747 11.6369 2.6918 12 2.6918C12.3631 2.6918 12.6574 2.39747 12.6574 2.03438C12.6574 1.56998 12.6574 1.11042 12.6574 0.657422C12.6574 0.294328 12.3631 0 12 0Z" fill="#FF738D"/>
<path d="M12 1.68449C11.6369 1.68449 11.3426 1.39016 11.3426 1.02707C11.3426 1.36026 11.3426 1.69551 11.3426 2.03432C11.3426 2.39741 11.6369 2.69174 12 2.69174C12.3631 2.69174 12.6574 2.39741 12.6574 2.03432C12.6574 1.69537 12.6574 1.36016 12.6574 1.02707C12.6574 1.39016 12.3631 1.68449 12 1.68449Z" fill="#FF3C63"/>
</svg>