<svg width="24" height="24" viewBox="0 0 24 24" fill="none" xmlns="http://www.w3.org/2000/svg">
<path d="M11.8395 24C18.1822 24 23.3239 18.8583 23.3239 12.5156C23.3239 6.17298 18.1822 1.03125 11.8395 1.03125C5.49689 1.03125 0.355164 6.17298 0.355164 12.5156C0.355164 18.8583 5.49689 24 11.8395 24Z" fill="#F3D5D5"/>
<path d="M16.5739 3.07509V0.684463C16.5739 0.426651 16.3831 0.305713 16.1499 0.415682L15.1093 0.906416C14.8761 1.01639 14.6854 1.31732 14.6854 1.57513V3.07513H16.5739V3.07509Z" fill="#AA3584"/>
<path d="M15.6562 3.07509V2.06249C15.6562 1.80468 15.847 1.50374 16.0802 1.39378L16.5739 1.16095V0.684463C16.5739 0.426651 16.3831 0.305713 16.1499 0.415682L15.1093 0.906416C14.8761 1.01639 14.6854 1.31732 14.6854 1.57513V3.07513H15.6562V3.07509Z" fill="#832968"/>
<path d="M15.8239 10.3359C15.8239 11.1222 15.572 11.8503 15.1458 12.4456H16.5739V7.2001H14.6854V7.69848C15.3857 8.3611 15.8239 9.29799 15.8239 10.3359Z" fill="#2B41AD"/>
<path d="M15.6562 12.4455V11.427C15.54 11.7953 15.366 12.138 15.1458 12.4455H15.6562Z" fill="#232E7A"/>
<path d="M15.6562 9.24484V7.2001H14.6854V7.69848C15.1293 8.11843 15.468 8.64835 15.6562 9.24484Z" fill="#232E7A"/>
<path d="M14.6854 3.02823H16.5739V7.24698H14.6854V3.02823Z" fill="#8A94DB"/>
<path d="M14.6854 3.02823H15.6562V5.74698H14.6854V3.02823Z" fill="#717ED4"/>
<path d="M14.6854 5.74698H16.5739V7.24698H14.6854V5.74698Z" fill="#717ED4"/>
<path d="M14.6854 5.74698H15.6562V7.24698H14.6854V5.74698Z" fill="#5766CC"/>
<path d="M15.2052 12.4455C15.6242 11.8481 15.8708 11.121 15.8708 10.3359C15.8708 8.30367 14.2234 6.65625 12.1911 6.65625C10.1589 6.65625 8.51141 8.30367 8.51141 10.3359C8.51141 11.121 8.75807 11.8481 9.17699 12.4455H15.2052Z" fill="#E279B3"/>
<path d="M10.6023 12.4455C10.1834 11.8483 9.93749 11.1209 9.93749 10.3359C9.93749 8.54775 11.2132 7.05802 12.9042 6.72591C12.6734 6.68058 12.4352 6.65625 12.1911 6.65625C10.1589 6.65625 8.51141 8.30367 8.51141 10.3359C8.51141 11.121 8.75807 11.8481 9.17699 12.4455H10.6023Z" fill="#DE5CA3"/>
<path d="M13.2012 10.1103H11.181C10.9868 10.1103 10.8294 9.95293 10.8294 9.75873C10.8294 9.56452 10.9868 9.40717 11.181 9.40717H13.2012C13.3953 9.40717 13.5528 9.56452 13.5528 9.75873C13.5528 9.95293 13.3953 10.1103 13.2012 10.1103Z" fill="#DB387E"/>
<path d="M12.7759 11.2647H11.6063C11.4122 11.2647 11.2548 11.1074 11.2548 10.9131C11.2548 10.7189 11.4122 10.5616 11.6063 10.5616H12.7759C12.9701 10.5616 13.1275 10.7189 13.1275 10.9131C13.1275 11.1073 12.9701 11.2647 12.7759 11.2647Z" fill="#DB387E"/>
<path d="M17.277 10.6876H20.0895V12.4456H17.277V10.6876Z" fill="#B3094E"/>
<path d="M17.277 10.6876H18.2344V12.4456H17.277V10.6876Z" fill="#84004F"/>
<path d="M17.277 9.75006H20.0895V10.7344H17.277V9.75006Z" fill="#E09380"/>
<path d="M17.277 9.75006H18.2344V10.7344H17.277V9.75006Z" fill="#D76718"/>
<path d="M23.5081 15.7854L22.2154 14.4928C22.1477 14.4252 22.0641 14.3827 21.9763 14.3653C21.9736 14.6077 21.8804 14.8493 21.6959 15.0339C21.517 15.2128 21.2799 15.312 21.0273 15.3148C21.0449 15.4024 21.0872 15.4859 21.1547 15.5535L22.4475 16.8461C22.6298 17.0285 22.9281 17.0285 23.1104 16.8461L23.5082 16.4484C23.6904 16.266 23.6904 15.9678 23.5081 15.7854Z" fill="#5766CC"/>
<path d="M22.9432 16.365L21.6519 15.0737C21.4789 15.227 21.26 15.3122 21.0273 15.3148C21.0449 15.4024 21.0872 15.4859 21.1547 15.5534L22.4475 16.8461C22.6298 17.0285 22.9281 17.0285 23.1104 16.8461L23.5082 16.4484C23.5143 16.4422 23.5197 16.4357 23.5254 16.4293C23.3443 16.5437 23.1006 16.5224 22.9432 16.365Z" fill="#3D4EC4"/>
<path d="M8.31036 11.4156L7.66757 10.2615C7.66171 10.2655 7.65632 10.27 7.64999 10.2736L4.65636 11.9408C4.65013 11.9443 4.64366 11.9472 4.63715 11.95L4.91315 12.4455H7.67436L8.0819 12.2185C8.36549 12.0606 8.46838 11.6993 8.31036 11.4156Z" fill="#5766CC"/>
<path d="M4.6563 11.9408C4.65007 11.9443 4.6436 11.9472 4.63708 11.95L4.91308 12.4455H6.13732L5.57215 11.4307L4.6563 11.9408Z" fill="#2B41AD"/>
<path d="M4.67914 11.9818C4.55797 12.0493 4.40562 12.0165 4.32284 11.9053L0.456593 6.70454C0.409109 6.64065 0.391484 6.55942 0.408218 6.48165C0.424905 6.40384 0.474405 6.337 0.543921 6.29823L5.01777 3.80654C5.08733 3.76778 5.1702 3.76094 5.24516 3.7877C5.32011 3.81447 5.37992 3.87222 5.40922 3.94623L7.7953 9.97131C7.8463 10.1003 7.79398 10.247 7.67281 10.3145L4.67914 11.9818Z" fill="white"/>
<path d="M5.29283 11.4072L4.05383 9.74054C3.79208 9.61683 3.56493 9.41349 3.41333 9.14129C3.32694 8.98613 3.27257 8.82188 3.24763 8.65604L1.34849 6.10135C1.30087 6.03727 1.28287 5.95608 1.29848 5.87799L0.543976 6.29822C0.47446 6.33699 0.42496 6.40383 0.408272 6.48165C0.391538 6.55941 0.40921 6.64065 0.456647 6.70454L4.3229 11.9053C4.40563 12.0165 4.55802 12.0493 4.67919 11.9818L5.50748 11.5205C5.42493 11.5171 5.34519 11.4776 5.29283 11.4072Z" fill="#E6F7FE"/>
<path d="M4.66875 9.87904C5.46238 9.87904 6.10575 9.23567 6.10575 8.44204C6.10575 7.6484 5.46238 7.00504 4.66875 7.00504C3.87512 7.00504 3.23175 7.6484 3.23175 8.44204C3.23175 9.23567 3.87512 9.87904 4.66875 9.87904Z" fill="#5766CC"/>
<path d="M5.83966 9.20836C5.14629 9.59452 4.27118 9.34552 3.88502 8.65214C3.6289 8.1922 3.65247 7.65253 3.89951 7.22845C3.2599 7.63308 3.04057 8.47177 3.41337 9.14128C3.79952 9.83466 4.67468 10.0837 5.36801 9.6975C5.60144 9.56747 5.78426 9.38189 5.90969 9.16655C5.88682 9.18099 5.86357 9.19505 5.83966 9.20836Z" fill="#5766CC"/>
<path d="M5.01776 3.80652L0.543915 6.29821C0.474399 6.33698 0.424899 6.40382 0.408211 6.48163C0.391477 6.5594 0.409149 6.64063 0.456586 6.70452L0.774071 7.1316L5.6051 4.44098L5.40912 3.94616C5.37982 3.87215 5.32006 3.8144 5.24505 3.78763C5.17015 3.76092 5.08732 3.76776 5.01776 3.80652Z" fill="#EDF6FF"/>
<path d="M21.8246 13.7524C21.632 13.4938 21.3391 13.355 21.0399 13.3477L20.5602 15.2521C20.8906 15.4197 21.3011 15.3991 21.6185 15.1626C22.0648 14.8301 22.1572 14.1987 21.8246 13.7524Z" fill="#717ED4"/>
<path d="M20.7497 14.7014C20.7364 14.6835 20.7247 14.6649 20.7128 14.6464L20.5602 15.252C20.8906 15.4197 21.3011 15.399 21.6185 15.1626C21.6461 15.142 21.6724 15.1203 21.6974 15.0974C21.3448 15.1463 20.9773 15.0069 20.7497 14.7014Z" fill="#5766CC"/>
<path d="M20.9927 12.6595C20.8644 12.4949 20.6674 12.3987 20.4588 12.3987H3.22043C3.01174 12.3987 2.81477 12.495 2.68647 12.6595C2.55818 12.8241 2.51299 13.0387 2.56399 13.2411L4.32982 20.25H19.3494L21.1152 13.2411C21.1661 13.0387 21.121 12.8241 20.9927 12.6595Z" fill="#DB387E"/>
<path d="M6.23805 20.184L4.52055 13.2411C4.46955 13.0387 4.51474 12.8241 4.64304 12.6596C4.77133 12.4949 4.9683 12.3987 5.17699 12.3987H3.22043C3.01174 12.3987 2.81477 12.495 2.68647 12.6596C2.55818 12.8241 2.51299 13.0387 2.56399 13.2411L4.31313 20.184H6.23805Z" fill="#B3094E"/>
<path d="M19.1013 21.2344L19.366 20.184H4.31317L4.57778 21.2344H19.1013Z" fill="white"/>
<path d="M6.23805 20.184H4.31317L4.57778 21.2344H6.49787L6.23805 20.184Z" fill="#EDF6FF"/>
<path d="M19.1179 21.1684H4.5611L4.63399 21.4578C6.60447 23.0475 9.11055 24 11.8395 24C14.5685 24 17.0746 23.0475 19.0451 21.4578L19.1179 21.1684Z" fill="#B3094E"/>
<path d="M11.8395 18.3662C13.4058 18.3662 14.6755 17.5727 14.6755 16.5937C14.6755 15.6148 13.4058 14.8213 11.8395 14.8213C10.2733 14.8213 9.0036 15.6148 9.0036 16.5937C9.0036 17.5727 10.2733 18.3662 11.8395 18.3662Z" fill="white"/>
<path d="M9.98437 16.5938C9.98437 15.7194 10.9975 14.9935 12.3299 14.8483C12.1706 14.8309 12.0069 14.8213 11.8395 14.8213C10.2733 14.8213 9.0036 15.6149 9.0036 16.5938C9.0036 17.5728 10.2733 18.3663 11.8395 18.3663C12.0069 18.3663 12.1706 18.3567 12.3299 18.3393C10.9975 18.194 9.98437 17.4681 9.98437 16.5938Z" fill="#EDF6FF"/>
<path d="M9.77704 6.375C11.5374 6.375 12.9645 4.94791 12.9645 3.1875C12.9645 1.42709 11.5374 0 9.77704 0C8.01663 0 6.58954 1.42709 6.58954 3.1875C6.58954 4.94791 8.01663 6.375 9.77704 6.375Z" fill="#717ED4"/>
<path d="M9.77702 5.59436C11.1063 5.59436 12.1839 4.51678 12.1839 3.18751C12.1839 1.85825 11.1063 0.78067 9.77702 0.78067C8.44776 0.78067 7.37018 1.85825 7.37018 3.18751C7.37018 4.51678 8.44776 5.59436 9.77702 5.59436Z" fill="#E9A52D"/>
<path d="M8.83779 4.13218C8.02643 3.32082 7.91608 2.07465 8.50549 1.14423C8.35268 1.23948 8.20793 1.35282 8.07513 1.48562C7.13519 2.42555 7.13519 3.94946 8.07513 4.88935C9.01512 5.82938 10.5391 5.82934 11.479 4.88935C11.6075 4.76077 11.7179 4.62099 11.8113 4.47357C10.8825 5.05271 9.64493 4.93941 8.83779 4.13218Z" fill="#E38523"/>
<path d="M8.07513 1.48561C7.13519 2.42555 7.13519 3.94945 8.07513 4.88934L11.479 1.48561C10.5391 0.545626 9.01507 0.545673 8.07513 1.48561Z" fill="#E38523"/>
<path d="M6.48152 21.1684H4.5611L4.63399 21.4578C5.32942 22.0189 6.09189 22.5001 6.907 22.8885L6.48152 21.1684Z" fill="#84004F"/>
<path d="M8.50549 1.14423C8.35268 1.23948 8.20793 1.35282 8.07513 1.48562C7.13519 2.42555 7.13519 3.94946 8.07513 4.88935L8.83512 4.12937C8.02624 3.31801 7.91674 2.07357 8.50549 1.14423Z" fill="#D76718"/>
<path d="M1.72193 6.60376L1.34843 6.10135C1.30081 6.03727 1.28281 5.95608 1.29841 5.87799L0.543915 6.29822C0.474399 6.33699 0.424899 6.40383 0.408211 6.48165C0.391477 6.55941 0.409149 6.64065 0.456586 6.70454L0.774071 7.13162L1.72193 6.60376Z" fill="#DDEBFD"/>
<path d="M19.6208 5.95312H17.7458C17.488 5.95322 17.277 6.16411 17.277 6.42188V9.79692H20.0896V6.42188C20.0895 6.16411 19.8786 5.95317 19.6208 5.95312Z" fill="#B3094E"/>
<path d="M18.7032 5.95312H17.7458C17.488 5.95322 17.277 6.16411 17.277 6.42188V9.79692H18.2344V6.42188C18.2344 6.16411 18.4454 5.95322 18.7032 5.95312Z" fill="#84004F"/>
</svg>