<svg width="24" height="24" viewBox="0 0 24 24" fill="none" xmlns="http://www.w3.org/2000/svg">
<g clip-path="url(#clip0_105_1738)">
<path d="M0.283469 14.6047C0.0992502 13.7723 0.00146899 12.9073 1.5861e-05 12.0198C-0.0106716 5.40089 5.38113 0 12.0001 0C18.6274 0 24 5.37262 24 12C24 12.8823 23.9048 13.7423 23.7241 14.5705C23.6093 15.0962 23.1402 15.4688 22.6022 15.4688H1.35738C0.840907 15.4688 0.395078 15.1089 0.283469 14.6047Z" fill="#07A9F0"/>
<path d="M22.9458 11.1766C22.9458 16.6792 18.4851 21.14 12.9825 21.14C7.47986 21.14 3.01904 16.6793 3.01904 11.1766C3.01904 5.67395 7.47981 1.21323 12.9824 1.21323C18.485 1.21323 22.9458 5.67399 22.9458 11.1766Z" fill="#40C1FA"/>
<path d="M15.4688 12.6562V5.15625C15.4688 4.89736 15.6786 4.6875 15.9375 4.6875H18.75C19.0089 4.6875 19.2188 4.89736 19.2188 5.15625V12.6562C19.2188 12.9151 19.0089 13.125 18.75 13.125H15.9375C15.6786 13.125 15.4688 12.9151 15.4688 12.6562Z" fill="#0691CE"/>
<path d="M23.7325 14.5312C22.5705 19.9431 17.759 24 12 24C6.24097 24 1.42944 19.9431 0.267456 14.5312H23.7325Z" fill="#453D83"/>
<path d="M18.5156 13.1699H15.2812C15.0224 13.1699 14.8125 12.96 14.8125 12.7011V11.7188C14.8125 11.4599 15.0224 11.25 15.2812 11.25H18.5156C18.7745 11.25 18.9844 11.4599 18.9844 11.7188V12.7011C18.9844 12.96 18.7745 13.1699 18.5156 13.1699Z" fill="#51489A"/>
<path d="M20.3438 13.1699H18.2812C18.0224 13.1699 17.8125 12.96 17.8125 12.7011V11.7188C17.8125 11.4599 18.0224 11.25 18.2812 11.25H20.3438C20.6026 11.25 20.8125 11.4599 20.8125 11.7188V12.7011C20.8125 12.96 20.6026 13.1699 20.3438 13.1699Z" fill="#5F55AF"/>
<path d="M21.0938 18.8672H14.5312C14.2724 18.8672 14.0625 18.6573 14.0625 18.3984V13.125C14.0625 12.8661 14.2724 12.6562 14.5312 12.6562H21.0938C21.3526 12.6562 21.5625 12.8661 21.5625 13.125V18.3984C21.5625 18.6573 21.3526 18.8672 21.0938 18.8672Z" fill="#B4E7FD"/>
<path d="M18.9844 17.1094C17.5605 17.1094 16.4062 15.9551 16.4062 14.5312V13.125C16.4062 12.8661 16.6161 12.6562 16.875 12.6562H21.0938C21.3526 12.6562 21.5625 12.8661 21.5625 13.125V14.5312C21.5625 15.9551 20.4082 17.1094 18.9844 17.1094Z" fill="#D5F1FE"/>
<path d="M20.3002 15.6851C20.0413 15.6851 19.8315 15.4752 19.8315 15.2163V13.8461C19.8315 13.5872 20.0413 13.3774 20.3002 13.3774C20.5591 13.3774 20.769 13.5872 20.769 13.8461V15.2163C20.769 15.4752 20.5591 15.6851 20.3002 15.6851Z" fill="#FFF5F5"/>
<path d="M2.84933 7.50403C2.66563 7.64353 2.40256 7.62947 2.23485 7.46179C2.11194 7.33889 2.07158 7.16475 2.11367 7.00818C2.09872 6.99389 2.08386 6.97936 2.0691 6.96464C1.64417 6.53971 1.40652 6.03543 1.40619 5.63882C1.8028 5.63915 2.30708 5.87681 2.732 6.30173C2.74677 6.3165 2.76125 6.33136 2.77555 6.34626C2.93211 6.30417 3.1063 6.34453 3.22916 6.46743C3.39683 6.63511 3.41089 6.89817 3.27139 7.08187C3.35239 7.27359 3.041 7.58498 2.84933 7.50403Z" fill="#453D83"/>
<path d="M9.69265 13.2623L9.02975 13.9252C8.8467 14.1082 8.54989 14.1082 8.36684 13.9252L2.40059 7.95899C2.21754 7.77595 2.21754 7.47913 2.40059 7.29609L3.0635 6.63318C3.24654 6.45013 3.54336 6.45013 3.7264 6.63318L9.69261 12.5994C9.8757 12.7824 9.8757 13.0792 9.69265 13.2623Z" fill="#5F55AF"/>
<path d="M2.99416 6.70256L3.06353 6.63318C3.24658 6.45013 3.54339 6.45013 3.72644 6.63318L9.06447 11.9712C9.24752 12.1543 9.24752 12.4511 9.06447 12.6341L8.9951 12.7035C8.81205 12.8865 8.51524 12.8865 8.33219 12.7035L2.99416 7.36546C2.81111 7.18242 2.81111 6.8856 2.99416 6.70256Z" fill="#6A61B4"/>
<path d="M8.61448 9.2678L7.95696 9.51689L4.61932 0.705988L5.27684 0.456894L8.61448 9.2678Z" fill="#5F55AF"/>
<path d="M6.00482 3.22866L5.94337 3.25276C5.63564 3.37332 5.28848 3.22159 5.16792 2.9139L4.47993 1.15796C4.35937 0.850273 4.51111 0.50307 4.81879 0.382507L4.88025 0.358413C5.18798 0.237851 5.53514 0.389585 5.6557 0.697273L6.34368 2.45316C6.46425 2.7609 6.31256 3.1081 6.00482 3.22866Z" fill="#51489A"/>
<path d="M4.0343 0.815618C3.98846 0.69454 4.0494 0.559259 4.17047 0.513415L5.48555 0.0152744C5.60658 -0.0305694 5.74191 0.0303681 5.78775 0.151399C5.8336 0.272478 5.77266 0.407759 5.65158 0.453602L4.3365 0.951743C4.21547 0.997634 4.08015 0.936649 4.0343 0.815618ZM6.45193 1.90481C6.40608 1.78377 6.27075 1.72279 6.14972 1.76863L4.83469 2.26682C4.71366 2.31266 4.65268 2.44799 4.69852 2.56902C4.74436 2.69006 4.87969 2.75104 5.00072 2.7052L6.3158 2.20706C6.43683 2.16116 6.49777 2.02588 6.45193 1.90481ZM6.56485 2.86457C6.519 2.74354 6.38368 2.68256 6.26265 2.7284L5.38594 3.06051C5.26491 3.10635 5.20393 3.24168 5.24977 3.36271C5.29561 3.48379 5.43094 3.54473 5.55197 3.49888L6.42868 3.16677C6.54975 3.12088 6.61069 2.9856 6.56485 2.86457ZM6.22941 0.986618C6.18357 0.865587 6.04824 0.804602 5.92721 0.850446L4.39299 1.4316C4.27196 1.47745 4.21097 1.61277 4.25682 1.73381C4.30266 1.85484 4.43799 1.91582 4.55902 1.86998L6.09324 1.28882C6.21432 1.24293 6.27525 1.10765 6.22941 0.986618Z" fill="#453D83"/>
<path d="M7.9943 6.13818C8.06054 6.31303 7.9725 6.50845 7.79766 6.57468L6.7846 6.95845C6.60975 7.02468 6.41433 6.93665 6.3481 6.76181C6.28186 6.58696 6.36989 6.39154 6.54474 6.32531L7.5578 5.94154C7.73264 5.87531 7.92807 5.96334 7.9943 6.13818Z" fill="#6A61B4"/>
<path d="M8.47695 6.45661L10.4234 11.5951C10.5151 11.8372 10.3932 12.1078 10.1511 12.1995L8.7484 12.7309C8.50629 12.8226 8.23568 12.7007 8.14399 12.4586L6.19751 7.32009C6.10582 7.07798 6.2277 6.80737 6.46981 6.71569L7.87254 6.18431C8.11465 6.09262 8.38526 6.2145 8.47695 6.45661Z" fill="#51489A"/>
<path d="M8.95667 7.72298L10.4234 11.5951C10.5151 11.8372 10.3932 12.1078 10.1511 12.1995L9.69819 12.3711C9.45608 12.4627 9.18547 12.3409 9.09378 12.0988L7.62701 8.22666C7.53533 7.98455 7.6572 7.71394 7.89931 7.62225L8.35226 7.45069C8.59433 7.35895 8.86494 7.48088 8.95667 7.72298Z" fill="#5F55AF"/>
<path d="M12.1875 14.5312C12.1875 17.379 9.87895 19.6875 7.03125 19.6875C4.18355 19.6875 1.875 17.379 1.875 14.5312C1.875 11.6835 4.18355 9.375 7.03125 9.375C9.87895 9.375 12.1875 11.6835 12.1875 14.5312Z" fill="#D5F1FE"/>
<path d="M12.1875 14.5373C12.1868 15.1152 12.0911 15.6709 11.915 16.1895C11.8346 16.4265 11.6106 16.5848 11.3603 16.5848C10.9576 16.5848 10.6767 16.1889 10.806 15.8075C10.9589 15.3565 10.9468 14.8695 10.9259 14.3629C10.8402 12.295 9.24374 10.698 7.17538 10.6246C6.19827 10.59 5.29509 10.834 4.58423 11.3888C4.20187 11.6873 3.64288 11.4065 3.64288 10.9215C3.64288 10.7397 3.72731 10.5683 3.87088 10.4568C4.76812 9.75985 5.90165 9.34927 7.13104 9.37252C8.02021 9.38935 8.8551 9.61805 9.58035 10.0337C11.1378 10.9265 12.1897 12.6276 12.1875 14.5373Z" fill="#FFF5F5"/>
<path d="M10.7812 14.5312C10.7812 16.6023 9.10233 18.2812 7.03125 18.2812C4.96017 18.2812 3.28125 16.6023 3.28125 14.5312C3.28125 12.4602 4.96017 10.7812 7.03125 10.7812C9.10233 10.7812 10.7812 12.4602 10.7812 14.5312Z" fill="#72D1FB"/>
<path d="M8.99679 11.337L3.83702 16.4968C3.5674 16.0596 3.38505 15.5628 3.31427 15.0308L7.53082 10.8143C8.0628 10.885 8.55954 11.0674 8.99679 11.337ZM9.73104 11.9286L4.42858 17.231C4.89743 17.6831 5.48374 18.0142 6.13722 18.1741L10.674 13.6373C10.5142 12.9837 10.1831 12.3975 9.73104 11.9286Z" fill="#93DCFC"/>
<path d="M7.03125 18.5156C4.83427 18.5156 3.04688 16.7282 3.04688 14.5312C3.04688 12.3343 4.83427 10.5469 7.03125 10.5469C9.22823 10.5469 11.0156 12.3343 11.0156 14.5312C11.0156 16.7282 9.22823 18.5156 7.03125 18.5156ZM7.03125 11.0156C5.09273 11.0156 3.51562 12.5927 3.51562 14.5312C3.51562 16.4698 5.09273 18.0469 7.03125 18.0469C8.96977 18.0469 10.5469 16.4698 10.5469 14.5312C10.5469 12.5927 8.96977 11.0156 7.03125 11.0156Z" fill="#3F97A4"/>
<path d="M17.3299 2.75732L14.6829 18.1985H10.8777L8.17554 2.75732H17.3299Z" fill="#FFDE91"/>
<path d="M13.5226 16.0754C12.5871 16.0754 11.8061 15.3616 11.7221 14.4298L10.6702 2.75737H17.3299L15.3043 14.5731C15.1556 15.4409 14.4032 16.0754 13.5226 16.0754Z" fill="#FCF2B6"/>
<path d="M18.0055 2.42648C18.0055 2.68537 17.7957 2.89523 17.5368 2.89523H7.96875C7.70986 2.89523 7.5 2.68537 7.5 2.42648C7.5 2.16759 7.70986 1.95773 7.96875 1.95773H17.5368C17.7957 1.95773 18.0055 2.16759 18.0055 2.42648Z" fill="#FCF2B6"/>
<path d="M17.5368 2.89523H10.4102C10.1513 2.89523 9.94147 2.68537 9.94147 2.42648C9.94147 2.16759 10.1513 1.95773 10.4102 1.95773H17.5368C17.7957 1.95773 18.0055 2.16759 18.0055 2.42648C18.0055 2.68537 17.7957 2.89523 17.5368 2.89523Z" fill="#FFF5F5"/>
<path d="M15.0138 18.1021V20.3906C15.0138 20.5201 14.9088 20.625 14.7794 20.625H10.7261C10.5967 20.625 10.4917 20.5201 10.4917 20.3906V18.1021C10.4917 17.9726 10.5967 17.8677 10.7261 17.8677H14.7794C14.9089 17.8677 15.0138 17.9726 15.0138 18.1021Z" fill="#FFC14F"/>
<path d="M13.4235 6.996H12.0821C11.3391 6.996 10.9926 6.06038 11.5673 5.58952C11.5714 5.58614 11.5756 5.58277 11.5797 5.57944C11.989 5.24995 12.3374 4.85138 12.6225 4.4101C12.6273 4.40274 12.8518 4.36125 12.8518 4.36125C13.1433 4.81735 13.4948 5.23608 13.9182 5.5733C13.9238 5.5778 13.9294 5.5823 13.935 5.58689C14.5125 6.0577 14.1685 6.996 13.4235 6.996ZM14.6277 7.96271H10.8777C10.7483 7.96271 10.6434 8.06766 10.6434 8.19708C10.6434 8.3265 10.7483 8.43146 10.8777 8.43146H14.6277C14.7572 8.43146 14.8621 8.3265 14.8621 8.19708C14.8621 8.06766 14.7572 7.96271 14.6277 7.96271ZM13.9246 9.13458C13.9246 9.264 13.8197 9.36896 13.6902 9.36896H11.8152C11.6858 9.36896 11.5809 9.264 11.5809 9.13458C11.5809 9.00516 11.6858 8.90021 11.8152 8.90021H13.6902C13.8197 8.90021 13.9246 9.00511 13.9246 9.13458ZM13.4388 12.21C13.4388 12.3394 13.3339 12.4443 13.2044 12.4443H12.3011C12.1716 12.4443 12.0667 12.3394 12.0667 12.21C12.0667 12.0805 12.1716 11.9756 12.3011 11.9756H13.2044C13.3339 11.9756 13.4388 12.0805 13.4388 12.21Z" fill="#FFC14F"/>
<path d="M12.1693 6.99601H12.0821C11.3391 6.99601 10.9926 6.06038 11.5674 5.58952C11.5715 5.58615 11.5757 5.58277 11.5798 5.57944C11.971 5.26449 12.3065 4.88649 12.5844 4.46841C12.6021 4.44174 12.6547 4.32019 12.6802 4.30201C12.7258 4.26952 12.7958 4.27351 12.8324 4.33079L12.8519 4.36126C12.9073 4.44798 12.9649 4.53338 13.0248 4.6171C12.8311 4.95694 12.6171 5.27049 12.3832 5.55057C12.379 5.55554 12.3749 5.56055 12.3708 5.56557C12.056 5.94905 12.0176 6.53996 12.1693 6.99601ZM12.7528 13.1867C12.4939 13.1867 12.284 13.3966 12.284 13.6555C12.284 13.9144 12.4939 14.1242 12.7528 14.1242C13.0117 14.1242 13.2215 13.9144 13.2215 13.6555C13.2215 13.3966 13.0117 13.1867 12.7528 13.1867Z" fill="#FFA90B"/>
<path d="M4.87148 20.2734H2.57812C2.18981 20.2734 1.875 19.9586 1.875 19.5703C1.875 19.182 2.18981 18.8672 2.57812 18.8672H4.87148C5.2598 18.8672 5.57461 19.182 5.57461 19.5703C5.57461 19.9586 5.25984 20.2734 4.87148 20.2734Z" fill="#93DCFC"/>
<path d="M11.434 20.2734H3.98438C3.59606 20.2734 3.28125 19.9586 3.28125 19.5703C3.28125 19.182 3.59606 18.8672 3.98438 18.8672H11.434C11.8223 18.8672 12.1371 19.182 12.1371 19.5703C12.1371 19.9586 11.8223 20.2734 11.434 20.2734Z" fill="#B4E7FD"/>
<path d="M15.8826 16.875C15.3648 16.875 14.9451 16.4553 14.9451 15.9375V10.3125C14.9451 9.79472 15.3648 9.375 15.8826 9.375C16.4004 9.375 16.8201 9.79472 16.8201 10.3125V15.9375C16.8201 16.4553 16.4004 16.875 15.8826 16.875Z" fill="#FF2EA6"/>
<path d="M16.8201 10.3125C16.8201 10.8303 16.4004 11.25 15.8826 11.25C15.3648 11.25 14.9451 10.8303 14.9451 10.3125C14.9451 9.79472 15.3648 9.375 15.8826 9.375C16.4004 9.375 16.8201 9.79472 16.8201 10.3125Z" fill="#FF72C3"/>
<path d="M16.9139 16.4062H14.8514C14.5925 16.4062 14.3826 16.1964 14.3826 15.9375V14.0625C14.3826 13.8036 14.5925 13.5938 14.8514 13.5938H16.9139C17.1728 13.5938 17.3826 13.8036 17.3826 14.0625V15.9375C17.3826 16.1964 17.1728 16.4062 16.9139 16.4062Z" fill="#51489A"/>
<path d="M16.9139 16.4062H16.4062C16.1474 16.4062 15.9375 16.1964 15.9375 15.9375V14.0625C15.9375 13.8036 16.1474 13.5938 16.4062 13.5938H16.9139C17.1728 13.5938 17.3827 13.8036 17.3827 14.0625V15.9375C17.3827 16.1964 17.1728 16.4062 16.9139 16.4062Z" fill="#5F55AF"/>
<path d="M17.2889 21.8507H14.4764C14.2175 21.8507 14.0076 21.6409 14.0076 21.382V15.1496C14.0076 14.8907 14.2175 14.6808 14.4764 14.6808H17.2889C17.5478 14.6808 17.7576 14.8907 17.7576 15.1496V21.3819C17.7576 21.6409 17.5478 21.8507 17.2889 21.8507Z" fill="#8078BF"/>
<path d="M17.2889 20.453H15.9375C15.6786 20.453 15.4688 20.2432 15.4688 19.9843V15.1496C15.4688 14.8907 15.6786 14.6808 15.9375 14.6808H17.2889C17.5478 14.6808 17.7577 14.8907 17.7577 15.1496V19.9843C17.7577 20.2432 17.5478 20.453 17.2889 20.453Z" fill="#958FCA"/>
<path d="M12.0706 18.7071C12.1139 18.7504 12.1563 18.7942 12.1979 18.8385C14.8698 21.6815 10.7424 25.8088 7.8994 23.137C7.8551 23.0954 7.81132 23.0529 7.76805 23.0097C6.21025 21.4519 5.72608 19.227 6.31554 17.2546C8.28799 16.6651 10.5128 17.1493 12.0706 18.7071Z" fill="#FF50B5"/>
<path d="M7.44753 20.6468C7.39357 20.5961 7.34018 20.5444 7.28745 20.4916C6.79437 19.9986 6.38961 19.4507 6.07306 18.8676C6.0777 18.3236 6.15851 17.7801 6.31554 17.2546C8.35278 16.6207 10.537 17.1174 12.0948 18.6752C12.138 18.7185 12.1805 18.7623 12.2221 18.8066C12.6082 19.2175 12.8282 19.6871 12.9547 20.1272C11.7439 21.7185 9.35782 22.4421 7.44753 20.6468Z" fill="#FF72C3"/>
<path d="M5.56499 13.0721L6.10672 13.3684C6.17174 13.404 6.17174 13.4973 6.10672 13.5329L5.56499 13.8292C5.54924 13.8378 5.53635 13.8507 5.52772 13.8664L5.23143 14.4082C5.19585 14.4732 5.10247 14.4732 5.06694 14.4082L4.77065 13.8664C4.76202 13.8507 4.74913 13.8378 4.73338 13.8292L4.19165 13.5329C4.12663 13.4973 4.12663 13.4039 4.19165 13.3684L4.73338 13.0721C4.74913 13.0635 4.76202 13.0506 4.77065 13.0348L5.06694 12.4931C5.10252 12.4281 5.1959 12.4281 5.23143 12.4931L5.52772 13.0348C5.5363 13.0506 5.54924 13.0635 5.56499 13.0721ZM19.4652 10.9488L19.8065 11.1355C19.839 11.1533 19.839 11.1999 19.8065 11.2178L19.4652 11.4044C19.4573 11.4087 19.4508 11.4152 19.4466 11.4231L19.2599 11.7644C19.2421 11.7969 19.1954 11.7969 19.1776 11.7644L18.991 11.4231C18.9867 11.4152 18.9802 11.4087 18.9724 11.4044L18.6311 11.2178C18.5985 11.2 18.5985 11.1533 18.6311 11.1355L18.9724 10.9488C18.9802 10.9445 18.9867 10.9381 18.991 10.9302L19.1776 10.5889C19.1954 10.5564 19.2421 10.5564 19.2599 10.5889L19.4466 10.9302C19.4508 10.9381 19.4573 10.9445 19.4652 10.9488ZM7.22268 11.8628L7.56397 12.0495C7.5965 12.0672 7.5965 12.1139 7.56397 12.1317L7.22268 12.3184C7.2148 12.3227 7.20833 12.3292 7.20402 12.337L7.01736 12.6783C6.9996 12.7109 6.95291 12.7109 6.9351 12.6783L6.74844 12.337C6.74413 12.3292 6.73766 12.3227 6.72979 12.3184L6.38849 12.1317C6.35596 12.114 6.35596 12.0673 6.38849 12.0495L6.72979 11.8628C6.73766 11.8585 6.74413 11.852 6.74844 11.8441L6.9351 11.5029C6.95286 11.4703 6.99955 11.4703 7.01736 11.5029L7.20402 11.8441C7.20833 11.852 7.2148 11.8585 7.22268 11.8628Z" fill="#FFF5F5"/>
</g>
<defs>
<clipPath id="clip0_105_1738">
<rect width="24" height="24" fill="white"/>
</clipPath>
</defs>
</svg>