<svg width="24" height="24" viewBox="0 0 24 24" fill="none" xmlns="http://www.w3.org/2000/svg">
<path d="M2.25 11.5013V12.75H1.90875L2.25 11.5013Z" fill="#192F54"/>
<path d="M5.25 10.125V12.75H2.25V11.5013V0.375H5.25V3.375V5.625V7.875V10.125Z" fill="#D6E0EB"/>
<path d="M7.125 0.375L7.875 2.625H6.375L7.125 0.375Z" fill="#FFBE4F"/>
<path d="M6.375 2.625H7.875V12.75H6.375V2.625Z" fill="#F2A142"/>
<path d="M9 1.125C9 0.926088 9.07902 0.735322 9.21967 0.59467C9.36032 0.454018 9.55109 0.375 9.75 0.375C9.94891 0.375 10.1397 0.454018 10.2803 0.59467C10.421 0.735322 10.5 0.926088 10.5 1.125V1.875H9V1.125Z" fill="#D6E0EB"/>
<path d="M10.5 10.125V12.75H9V1.875H10.5V10.125Z" fill="#E63B47"/>
<path d="M20.7263 10.125L19.2075 18.375H18.375V14.1675L19.1175 10.125L20.0287 5.17499L21.585 5.43749H21.5887L20.7263 10.125Z" fill="#5C6979"/>
<path d="M21.9525 1.26375C22.0027 1.27092 22.051 1.28803 22.0945 1.31407C22.138 1.34012 22.1758 1.37457 22.2059 1.41542C22.2359 1.45628 22.2575 1.50271 22.2693 1.552C22.2812 1.60129 22.2831 1.65246 22.275 1.7025L22.0687 2.82375L21.5887 5.4375H21.585L20.0287 5.175L20.715 1.44C20.7358 1.33902 20.7953 1.25023 20.8809 1.19272C20.9664 1.13521 21.0712 1.11359 21.1725 1.1325L21.9525 1.26375Z" fill="#FF505B"/>
<path d="M18.0262 5.97L18.375 10.125H14.625L14.9738 5.97C14.9813 5.87583 15.0241 5.78799 15.0937 5.72403C15.1632 5.66006 15.2543 5.6247 15.3488 5.625H17.6512C17.7457 5.6247 17.8368 5.66006 17.9063 5.72403C17.9759 5.78799 18.0187 5.87583 18.0262 5.97Z" fill="#7DCDF0"/>
<path d="M18.375 14.1675V18.375H14.625V10.125H18.375V14.1675Z" fill="#EDF4FA"/>
<path d="M21.375 10.125V18.375H19.2075L20.7263 10.125H21.375Z" fill="#446AA9"/>
<path d="M19.1175 10.125L18.375 14.1675V10.125H19.1175Z" fill="#446AA9"/>
<path d="M14.625 10.125V18.375H13.125V12.75V10.125H14.625Z" fill="#365587"/>
<path d="M10.5 12.75H1.90875L1.875 12.8775V18.375H3.375V15H4.5L4.83 15.7687L5.625 17.625L6.06 17.8425C6.02092 17.6474 6.00083 17.449 6 17.25C5.9998 16.4828 6.29355 15.7446 6.82085 15.1873C7.34816 14.63 8.06894 14.2959 8.835 14.2537C8.89125 14.25 8.94375 14.25 9 14.25C9.79565 14.25 10.5587 14.5661 11.1213 15.1287C11.6839 15.6913 12 16.4544 12 17.25C11.9996 17.6354 11.9258 18.0172 11.7825 18.375H13.125V12.75H10.5Z" fill="#4C76BD"/>
<path d="M10.5 10.125H13.125V12.75H10.5V10.125Z" fill="#234275"/>
<path d="M1.875 12.8775V18.375H0.375L1.875 12.8775Z" fill="#365587"/>
<path d="M21.375 10.125L23.625 18.375H21.375V10.125Z" fill="#365587"/>
<path d="M13.125 18.375V23.625H0.375V18.375H1.875H3.375H7.125H9H11.7825H13.125Z" fill="#66A4FF"/>
<path d="M18.375 18.375V23.625H13.125V18.375H14.625H18.375Z" fill="#66A4FF"/>
<path d="M19.2075 18.375H21.375H23.625V23.625H18.375V18.375H19.2075Z" fill="#66A4FF"/>
<path d="M7.875 10.125H9V12.75H7.875V10.125Z" fill="#234275"/>
<path d="M5.25 10.125H6.375V12.75H5.25V10.125Z" fill="#234275"/>
<path d="M19.875 18.375V21.75C19.875 21.9489 19.954 22.1397 20.0947 22.2803C20.2353 22.421 20.4261 22.5 20.625 22.5H23.625V23.625H18.375V18.375H19.875Z" fill="#598EDE"/>
<path d="M14.625 18.375V21.75C14.625 21.9489 14.704 22.1397 14.8447 22.2803C14.9853 22.421 15.1761 22.5 15.375 22.5H18.375V23.625H13.125V18.375H14.625Z" fill="#598EDE"/>
<path d="M1.875 18.375V21.75C1.875 21.9489 1.95402 22.1397 2.09467 22.2803C2.23532 22.421 2.42609 22.5 2.625 22.5H13.125V23.625H0.375V18.375H1.875Z" fill="#598EDE"/>
<path d="M22.875 19.5C22.875 19.2929 22.7071 19.125 22.5 19.125C22.2929 19.125 22.125 19.2929 22.125 19.5V21.375C22.125 21.5821 22.2929 21.75 22.5 21.75C22.7071 21.75 22.875 21.5821 22.875 21.375V19.5Z" fill="#99C2FF"/>
<path d="M17.625 19.5C17.625 19.2929 17.4571 19.125 17.25 19.125C17.0429 19.125 16.875 19.2929 16.875 19.5V21.375C16.875 21.5821 17.0429 21.75 17.25 21.75C17.4571 21.75 17.625 21.5821 17.625 21.375V19.5Z" fill="#99C2FF"/>
<path d="M18 11.25C18 11.0429 17.8321 10.875 17.625 10.875C17.4179 10.875 17.25 11.0429 17.25 11.25V14.25C17.25 14.4571 17.4179 14.625 17.625 14.625C17.8321 14.625 18 14.4571 18 14.25V11.25Z" fill="white"/>
<path d="M12.375 19.5C12.375 19.2929 12.2071 19.125 12 19.125C11.7929 19.125 11.625 19.2929 11.625 19.5V21.375C11.625 21.5821 11.7929 21.75 12 21.75C12.2071 21.75 12.375 21.5821 12.375 21.375V19.5Z" fill="#99C2FF"/>
<path d="M20.8125 5.30701L19.4932 12.2224C19.4756 12.3139 19.4246 12.3957 19.35 12.4516C19.2754 12.5075 19.1826 12.5337 19.0898 12.5249C18.997 12.5161 18.9107 12.4731 18.8479 12.4042C18.7851 12.3353 18.7502 12.2455 18.75 12.1523V12.126L18.375 14.1675V18.375H19.2075L20.7263 10.125L21.5887 5.43751H21.585L20.8125 5.30701Z" fill="#393D48"/>
<path d="M21.9525 1.26375L21.5921 1.203L20.8125 5.307L21.5869 5.4375H21.5906L22.0706 2.82375L22.2769 1.7025C22.285 1.65232 22.283 1.60102 22.271 1.55162C22.259 1.50221 22.2373 1.45571 22.2071 1.41483C22.1768 1.37395 22.1388 1.33953 22.095 1.31358C22.0513 1.28764 22.0029 1.2707 21.9525 1.26375Z" fill="#D13641"/>
<path d="M14.625 10.125H13.875V16.5C13.875 16.6989 13.796 16.8897 13.6553 17.0303C13.5147 17.171 13.3239 17.25 13.125 17.25V18.375H14.625V10.125Z" fill="#2E4873"/>
<path d="M17.25 17.25C16.8522 17.25 16.4706 17.092 16.1893 16.8107C15.908 16.5294 15.75 16.1478 15.75 15.75V10.125H14.625V18.375H18.375V17.25H17.25Z" fill="#C1CFE8"/>
<path d="M16.5 9.375C16.3011 9.375 16.1103 9.29598 15.9697 9.15533C15.829 9.01468 15.75 8.82391 15.75 8.625V6.375C15.75 6.17609 15.829 5.98532 15.9697 5.84467C16.1103 5.70402 16.3011 5.625 16.5 5.625H15.3488C15.2543 5.6247 15.1632 5.66006 15.0937 5.72403C15.0241 5.78799 14.9813 5.87583 14.9738 5.97L14.625 10.125H18.375L18.312 9.375H16.5Z" fill="#5198CC"/>
<path d="M11.25 10.125V11.625C11.25 11.8239 11.329 12.0147 11.4697 12.1553C11.6103 12.296 11.8011 12.375 12 12.375H13.125V12.75H10.5V10.125H11.25Z" fill="#192F54"/>
<path d="M8.625 10.125V12.375H7.875V12.75H8.25H9V10.125H8.625Z" fill="#192F54"/>
<path d="M6 10.125V12.375H5.25V12.75H5.625H6.375V10.125H6Z" fill="#192F54"/>
<path d="M9.75 10.875V1.875H9V12.75H10.5V11.625C10.3011 11.625 10.1103 11.546 9.96967 11.4053C9.82902 11.2647 9.75 11.0739 9.75 10.875Z" fill="#B32E37"/>
<path d="M9 1.5H10.5V1.875H9V1.5Z" fill="#F2A142"/>
<path d="M7.125 10.875V2.625H6.375V12.75H7.875V11.625C7.67609 11.625 7.48532 11.546 7.34467 11.4053C7.20402 11.2647 7.125 11.0739 7.125 10.875Z" fill="#BD731C"/>
<path d="M7.5 1.5L7.125 0.375L6.75 1.5L7.125 1.875L7.5 1.5Z" fill="#2B2B37"/>
<path d="M4.5 0.375H5.25V12.75H4.5V0.375Z" fill="#EDF4FA"/>
<path d="M2.25 0.375V12.75H4.5V11.625H3.75C3.55109 11.625 3.36032 11.546 3.21967 11.4053C3.07902 11.2647 3 11.0739 3 10.875V0.375H2.25Z" fill="#C1CFE8"/>
<path d="M4.5 11.625H5.25V12.75H4.5V11.625Z" fill="#D6E0EB"/>
<path d="M3.375 3H4.5V3.75H3.375V3Z" fill="#2B2B37"/>
<path d="M3.375 5.25H4.5V6H3.375V5.25Z" fill="#2B2B37"/>
<path d="M3.375 7.5H4.5V8.25H3.375V7.5Z" fill="#2B2B37"/>
<path d="M3.375 9.75H4.5V10.5H3.375V9.75Z" fill="#2B2B37"/>
<path d="M4.5 3H5.25V3.75H4.5V3Z" fill="#5C6979"/>
<path d="M4.5 5.25H5.25V6H4.5V5.25Z" fill="#5C6979"/>
<path d="M4.5 7.5H5.25V8.25H4.5V7.5Z" fill="#5C6979"/>
<path d="M4.5 9.75H5.25V10.5H4.5V9.75Z" fill="#5C6979"/>
<path d="M11.8125 16.875C11.8115 16.0299 11.4754 15.2198 10.8778 14.6222C10.2802 14.0246 9.47007 13.6885 8.625 13.6875C8.56462 13.6875 8.508 13.6875 8.4555 13.6912C7.01521 13.7305 5.62681 14.2374 4.5 15.1354L4.38525 15.228L4.125 14.625H3V18.375H11.625V18H11.6055C11.7413 17.6404 11.8114 17.2594 11.8125 16.875ZM4.61775 15.5209L4.73325 15.4279C5.45907 14.8519 6.3036 14.4441 7.206 14.2339C6.72826 14.49 6.32893 14.8709 6.05052 15.336C5.77211 15.801 5.62505 16.3329 5.625 16.875C5.62583 17.074 5.64592 17.2724 5.685 17.4675L5.25 17.25L4.5255 15.5584C4.5591 15.5545 4.591 15.5416 4.61775 15.5209Z" fill="#365587"/>
<path d="M10.125 17.25C10.125 17.0275 10.059 16.81 9.9354 16.625C9.81179 16.44 9.63609 16.2958 9.43052 16.2106C9.22495 16.1255 8.99875 16.1032 8.78052 16.1466C8.56229 16.19 8.36184 16.2972 8.2045 16.4545C8.04717 16.6118 7.94002 16.8123 7.89662 17.0305C7.85321 17.2488 7.87549 17.475 7.96064 17.6805C8.04578 17.8861 8.18998 18.0618 8.37498 18.1854C8.55999 18.309 8.7775 18.375 9 18.375H7.125L6.06 17.8425C6.02092 17.6474 6.00083 17.449 6 17.25C5.9998 16.4828 6.29355 15.7446 6.82085 15.1873C7.34816 14.63 8.06894 14.2959 8.835 14.2537C8.89125 14.25 8.94375 14.25 9 14.25C9.79565 14.25 10.5587 14.5661 11.1213 15.1287C11.6839 15.6913 12 16.4544 12 17.25C11.9996 17.6354 11.9258 18.0172 11.7825 18.375H9C9.29837 18.375 9.58452 18.2565 9.7955 18.0455C10.0065 17.8345 10.125 17.5484 10.125 17.25Z" fill="#D6E0EB"/>
<path d="M9 18.375C9.62132 18.375 10.125 17.8713 10.125 17.25C10.125 16.6287 9.62132 16.125 9 16.125C8.37868 16.125 7.875 16.6287 7.875 17.25C7.875 17.8713 8.37868 18.375 9 18.375Z" fill="#DD933C"/>
<path d="M7.125 18.375H3.375V15H4.5L4.83 15.7687L5.625 17.625L6.06 17.8425L7.125 18.375Z" fill="#FFBE4F"/>
<path d="M9 14.0625C8.93963 14.0625 8.883 14.0625 8.8305 14.0663C7.39021 14.1055 6.00182 14.6124 4.875 15.5104L4.76025 15.603L4.8315 15.7688L4.902 15.9334C4.9356 15.9295 4.9675 15.9166 4.99425 15.8959L5.10975 15.8029C6.1749 14.9544 7.48757 14.4763 8.84888 14.4409C8.89725 14.4375 8.94263 14.4375 8.99063 14.4375H8.99588H9.0015C9.74692 14.4387 10.4614 14.7354 10.9884 15.2627C11.5153 15.7899 11.8117 16.5046 11.8125 17.25C11.8122 17.6116 11.7429 17.9699 11.6085 18.3056C11.5997 18.3277 11.5954 18.3513 11.5958 18.375H11.9805C12.1634 17.8928 12.2265 17.3733 12.1642 16.8614C12.1019 16.3494 11.9161 15.8602 11.6229 15.436C11.3297 15.0117 10.9377 14.665 10.4808 14.4257C10.0239 14.1865 9.51575 14.0618 9 14.0625Z" fill="#FBFBFB"/>
<path d="M6.06 17.8425L5.625 17.625H4.875C4.67609 17.625 4.48532 17.546 4.34467 17.4053C4.20402 17.2647 4.125 17.0739 4.125 16.875V15H3.375V18.375H7.125L6.06 17.8425Z" fill="#DD933C"/>
<path d="M9 15.375C8.50272 15.375 8.02581 15.5725 7.67417 15.9242C7.32254 16.2758 7.125 16.7527 7.125 17.25C7.125 17.2957 7.13512 17.3389 7.1385 17.3839L6.05737 16.6631C6.0192 16.8564 5.99998 17.053 6 17.25C6.00083 17.449 6.02092 17.6474 6.06 17.8425L7.125 18.375H9C8.7775 18.375 8.55999 18.309 8.37498 18.1854C8.18998 18.0618 8.04578 17.8861 7.96064 17.6805C7.87549 17.4749 7.85321 17.2487 7.89662 17.0305C7.94002 16.8123 8.04717 16.6118 8.2045 16.4545C8.36184 16.2972 8.56229 16.19 8.78052 16.1466C8.99875 16.1032 9.22495 16.1255 9.43052 16.2106C9.63609 16.2958 9.81179 16.44 9.9354 16.625C10.059 16.81 10.125 17.0275 10.125 17.25C10.125 17.5484 10.0065 17.8345 9.7955 18.0455C9.58452 18.2565 9.29837 18.375 9 18.375H10.4914C10.7033 18.0979 10.8332 17.767 10.8666 17.4197C10.8999 17.0725 10.8353 16.7229 10.68 16.4105C10.5247 16.0982 10.285 15.8356 9.98806 15.6525C9.69112 15.4695 9.34882 15.3734 9 15.375Z" fill="#C1CFE8"/>
<path d="M9 18C9.41421 18 9.75 17.6642 9.75 17.25C9.75 16.8358 9.41421 16.5 9 16.5C8.58579 16.5 8.25 16.8358 8.25 17.25C8.25 17.6642 8.58579 18 9 18Z" fill="#FFBE4F"/>
<path d="M22.8949 9.13237L22.1573 8.99662L23.1874 3.39262L22.0046 3.19275L22.1299 2.45325L23.6876 2.71575C23.7366 2.72407 23.7834 2.74203 23.8253 2.76858C23.8673 2.79513 23.9035 2.82975 23.932 2.87043C23.9605 2.9111 23.9806 2.95703 23.9912 3.00553C24.0017 3.05404 24.0026 3.10416 23.9936 3.153L22.8949 9.13237Z" fill="#B32E37"/>
<path d="M16.875 11.625C16.875 11.4179 16.7071 11.25 16.5 11.25C16.2929 11.25 16.125 11.4179 16.125 11.625V16.875C16.125 17.0821 16.2929 17.25 16.5 17.25C16.7071 17.25 16.875 17.0821 16.875 16.875V11.625Z" fill="#5198CC"/>
</svg>