<svg width="24" height="24" viewBox="0 0 24 24" fill="none" xmlns="http://www.w3.org/2000/svg">
<g clip-path="url(#clip0_105_1898)">
<path d="M2.89655 2.89655H6.20689V6.23999H2.89655V2.89655Z" fill="#DF4D60"/>
<path d="M6.62071 9.10346L3.31036 12.4138L1.2414 12V9.10346C1.23996 7.92129 1.87145 6.8288 2.89657 6.24001C3.91957 5.64412 5.18392 5.64412 6.20691 6.24001C6.45881 6.38133 6.68996 6.55678 6.89381 6.76139C7.02181 6.88865 7.13814 7.02714 7.2414 7.17519L6.62071 9.10346Z" fill="#24AE5F"/>
<path d="M6.19447 17.3793L6.74895 21.4055C6.81026 21.8579 6.49365 22.2745 6.04137 22.3366C6.00431 22.3414 5.96701 22.3441 5.92964 22.3448C5.51602 22.3445 5.16617 22.0388 5.11033 21.629L4.52689 17.3793L2.89654 13.6552L0.827576 14.4828L2.61516 22.6966C2.77777 23.4576 3.45071 24.0012 4.22896 24H19.771C20.5493 24.0012 21.2222 23.4576 21.3848 22.6966L23.1724 14.4828L7.44827 13.6552L6.19447 17.3793ZM9.89792 22.3448H9.85654C9.41516 22.3454 9.05102 21.9995 9.02896 21.5586L8.80965 17.0069C8.79486 16.7112 8.93894 16.4301 9.1876 16.2695C9.43627 16.1089 9.75174 16.0931 10.0152 16.2281C10.2786 16.3632 10.45 16.6285 10.4648 16.9241L10.6841 21.4759C10.7055 21.9324 10.3543 22.3205 9.89792 22.3448ZM14.971 21.5586C14.949 21.9995 14.5848 22.3454 14.1434 22.3448H14.1021C13.6457 22.3205 13.2945 21.9324 13.3159 21.4759L13.5352 16.9241C13.558 16.4671 13.9471 16.1151 14.4041 16.1379C14.8612 16.1608 15.2132 16.5498 15.1903 17.0069L14.971 21.5586ZM19.5145 17.0773L18.8896 21.629C18.8338 22.0388 18.484 22.3445 18.0703 22.3448C18.033 22.3441 17.9957 22.3414 17.9586 22.3366C17.5063 22.2745 17.1897 21.8579 17.251 21.4055L17.8759 16.8538C17.9538 16.4168 18.3626 16.1191 18.8024 16.1791C19.2422 16.2391 19.5564 16.6353 19.5145 17.0773Z" fill="#2980BA"/>
<path d="M16.5517 1.24139V4.55174C16.5509 4.81203 16.4284 5.05696 16.2207 5.21381L14.9793 6.14484C14.8377 6.25251 14.6647 6.31067 14.4869 6.31036C14.1299 6.31215 13.812 6.08483 13.6983 5.74645C13.5845 5.40807 13.7006 5.03489 13.9862 4.8207L14.8965 4.13795V1.24139H16.5517Z" fill="#95A5A5"/>
<path d="M16.5517 0V2.06897H14.0689C13.8404 2.06897 13.6552 1.8837 13.6552 1.65517V0.413793C13.6552 0.185261 13.8404 0 14.0689 0H16.5517Z" fill="#ECF0F1"/>
<path d="M18.2069 3.31033H19.8621V6.62068H18.2069V3.31033Z" fill="#95A5A5"/>
<path d="M20.6897 7.0345V9.10346H17.3793V7.0345C17.3807 6.578 17.7504 6.20827 18.2069 6.20691H19.8621C20.3186 6.20827 20.6883 6.578 20.6897 7.0345Z" fill="#BDC3C7"/>
<path d="M23.76 2.23862L23.2717 2.7269C23.1171 2.88185 22.9072 2.96892 22.6883 2.96892C22.4694 2.96892 22.2594 2.88185 22.1048 2.7269L21.4469 2.06897L19.8621 3.72414H18.2069L16.9655 2.06897H15.7241V5.28308e-10L22.3448 3.53432e-06C22.5643 -0.000642856 22.7747 0.0873986 22.9283 0.244141L23.76 1.07173C24.0786 1.39544 24.0786 1.91491 23.76 2.23862Z" fill="#BDC3C7"/>
<path d="M8.27583 6.23587V2.34621C8.27484 2.24813 8.32644 2.15702 8.41107 2.10743C8.49571 2.05785 8.60041 2.05738 8.68549 2.10621C9.07051 2.30292 9.49881 2.39968 9.931 2.38759C10.3632 2.39968 10.7915 2.30292 11.1765 2.10621C11.2616 2.05738 11.3663 2.05785 11.4509 2.10743C11.5356 2.15702 11.5872 2.24813 11.5862 2.34621L11.5862 6.24" fill="#26B99A"/>
<path d="M9.93101 4.55174C10.1595 4.55174 10.3448 4.36648 10.3448 4.13794C10.3448 3.90941 10.1595 3.72415 9.93101 3.72415C9.70247 3.72415 9.51721 3.90941 9.51721 4.13794C9.51721 4.36648 9.70247 4.55174 9.93101 4.55174Z" fill="#33907C"/>
<path d="M3.72414 12V14.4828H0.827586C0.371089 14.4814 0.00136337 14.1117 0 13.6552V12.8276C0.00136337 12.3711 0.371089 12.0014 0.827586 12H3.72414Z" fill="#3B97D3"/>
<path d="M22.1959 12L19.0345 12.8276L15.2731 12C16.0815 11.2867 16.6856 10.3713 17.0235 9.34757L17.3793 8.27585H20.6897C21.3423 9.4509 21.8482 10.7016 22.1959 12Z" fill="#FF5364"/>
<path d="M13.2414 9.10346V12H7.44825V9.93105C7.44689 9.47455 7.07716 9.10483 6.62067 9.10346C6.62021 8.41151 6.83734 7.73694 7.24136 7.17519C7.5165 6.79301 7.86896 6.47298 8.27584 6.23588C9.30032 5.64402 10.5632 5.6456 11.5862 6.24001C11.8381 6.38133 12.0692 6.55678 12.2731 6.76139C12.8932 7.38309 13.2414 8.22537 13.2414 9.10346Z" fill="#81CCB8"/>
<path d="M12 9.51725V12H11.1724V9.51725C11.1724 9.28872 11.3577 9.10345 11.5862 9.10345C11.8147 9.10345 12 9.28872 12 9.51725Z" fill="white"/>
<path d="M24 12.8276V13.6552C23.9986 14.1117 23.6289 14.4814 23.1724 14.4828H6.62067V12H23.1724C23.6289 12.0014 23.9986 12.3711 24 12.8276Z" fill="#3B97D3"/>
<path d="M6.62068 9.10345H3.72413C3.26707 9.10345 2.89655 9.47398 2.89655 9.93104V16.5517C2.89655 17.0088 3.26707 17.3793 3.72413 17.3793H6.62068C7.07775 17.3793 7.44827 17.0088 7.44827 16.5517V9.93104C7.44827 9.47398 7.07775 9.10345 6.62068 9.10345Z" fill="#F3D55B"/>
<path d="M6.20689 2.89657V3.72415H2.89655V2.89657C2.89655 1.98244 3.63759 1.24139 4.55172 1.24139C5.46584 1.24139 6.20689 1.98244 6.20689 2.89657Z" fill="#FF5364"/>
</g>
<defs>
<clipPath id="clip0_105_1898">
<rect width="24" height="24" fill="white"/>
</clipPath>
</defs>
</svg>