<svg width="40" height="40" viewBox="0 0 40 40" fill="none" xmlns="http://www.w3.org/2000/svg">
<path fill-rule="evenodd" clip-rule="evenodd" d="M7.93593 19.843H19.2719C19.95 19.843 20.5703 20.0938 21.0461 20.5063V14.7727C21.0461 13.1758 19.7367 11.8766 18.1281 11.8766H8.98124C7.37265 11.8766 6.06406 13.1758 6.06406 14.7727V20.5961C6.55156 20.1305 7.21093 19.843 7.93593 19.843Z" fill="#1F476D"/>
<path fill-rule="evenodd" clip-rule="evenodd" d="M21.9836 16.775V24.7969C21.9836 25.0563 21.7734 25.2656 21.5148 25.2656H5.5953C5.33671 25.2656 5.12655 25.0555 5.12655 24.7969V16.775C5.12655 15.9375 4.4453 15.2563 3.6078 15.2563C2.7703 15.2563 2.08905 15.9375 2.08905 16.775V26.7664C2.08905 27.6133 2.77811 28.3023 3.62499 28.3023H23.4844C24.332 28.3023 25.0211 27.6133 25.0211 26.7664V16.775C25.0211 15.9375 24.3391 15.2563 23.5023 15.2563C22.6648 15.2563 21.9836 15.9375 21.9836 16.775Z" fill="#1F476D"/>
<path fill-rule="evenodd" clip-rule="evenodd" d="M21.0461 22.5539C21.0461 21.5758 20.25 20.7805 19.2719 20.7805H7.93593C6.95781 20.7805 6.16249 21.5766 6.16249 22.5539H6.06406V24.3273H21.0461V22.5539ZM35.8203 12.8438H29.9789L31.5273 9.0211H34.2727L35.8203 12.8438ZM28.025 19.0305H37.7742C37.8266 19.0305 37.8703 18.9867 37.8703 18.9344V17.7203C37.8703 17.668 37.8266 17.6242 37.7742 17.6242H33.3687V13.7813H36.5156C36.5924 13.7813 36.668 13.7624 36.7357 13.7264C36.8035 13.6903 36.8614 13.6382 36.9043 13.5745C36.9472 13.5109 36.9738 13.4377 36.9817 13.3613C36.9897 13.285 36.9788 13.2079 36.95 13.1367L35.0227 8.37656C34.9876 8.29003 34.9276 8.21592 34.8502 8.16373C34.7728 8.11153 34.6816 8.08363 34.5883 8.0836H31.2109C31.1176 8.08363 31.0264 8.11153 30.949 8.16373C30.8716 8.21592 30.8116 8.29003 30.7766 8.37656L28.8492 13.1367C28.8204 13.2079 28.8095 13.285 28.8175 13.3613C28.8254 13.4377 28.852 13.5109 28.8949 13.5745C28.9378 13.6382 28.9957 13.6903 29.0635 13.7264C29.1312 13.7624 29.2068 13.7813 29.2836 13.7813H32.4312V17.6242H28.025C27.9727 17.6242 27.9289 17.668 27.9289 17.7203V18.9344C27.9289 18.9867 27.9727 19.0305 28.025 19.0305ZM30.7773 31.9789V30.4289H29.9195V31.9789C29.9195 31.9891 29.9305 32 29.9406 32H30.757C30.7672 32 30.7773 31.9891 30.7773 31.9789ZM35.8797 30.4289H35.0219V31.9789C35.0219 31.9891 35.032 32 35.0422 32H35.8594C35.8695 32 35.8797 31.9898 35.8797 31.9789V30.4289ZM36.5734 25.1984H29.2258V29.4914H36.5734V25.1984ZM33.8633 26.4367C33.8633 26.6953 33.6539 26.9055 33.3945 26.9055H32.4047C32.1453 26.9055 31.9359 26.6953 31.9359 26.4367C31.9359 26.1773 32.1453 25.968 32.4047 25.968H33.3945C33.6539 25.9672 33.8633 26.1773 33.8633 26.4367ZM36.5734 19.968H29.2258V24.2609H36.5734V19.968ZM33.3945 20.7367C33.6539 20.7367 33.8633 20.9469 33.8633 21.2055C33.8633 21.4641 33.6539 21.6742 33.3945 21.6742H32.4047C32.1453 21.6742 31.9359 21.4641 31.9359 21.2055C31.9359 20.9469 32.1453 20.7367 32.4047 20.7367H33.3945Z" fill="#2579BC"/>
<path fill-rule="evenodd" clip-rule="evenodd" d="M23.2726 32V29.2406H19.9195L21.9344 32H23.2726ZM5.27419 32L7.28904 29.2406H3.93591V32H5.27419Z" fill="#1F476D"/>
</svg>
