<svg width="24" height="24" viewBox="0 0 24 24" fill="none" xmlns="http://www.w3.org/2000/svg">
<path d="M23.625 6.75C23.625 6.75 22.875 10.125 19.875 10.125H19.7513C19.8357 9.88407 19.8776 9.63028 19.875 9.375C20.04 9.06 20.3175 8.58 20.5613 8.0925C20.7227 7.77882 20.8521 7.44965 20.9475 7.11L21 7.125C21.4623 6.94188 21.9511 6.83426 22.4475 6.80625C22.8388 6.76751 23.2318 6.74873 23.625 6.75Z" fill="#598019"/>
<path d="M22.4475 6.80625C21.951 6.83426 21.4623 6.94189 21 7.125L20.9475 7.11L21 6.75V5.925C20.9999 5.72611 21.0263 5.52811 21.0788 5.33625L21.285 4.575C21.3258 4.4115 21.3509 4.2445 21.36 4.07625H21.3788C21.405 3.8625 21.6075 3 23.25 3C23.25 3 23.25 5.73375 22.44 6.75L22.4475 6.80625Z" fill="#346C2F"/>
<path d="M16.3913 1.54501C16.2555 1.79779 16.0312 1.99146 15.7613 2.08876C15.542 2.16577 15.3516 2.308 15.2155 2.49635C15.0794 2.68471 15.0042 2.91018 15 3.14251V5.25001C14.7059 5.23877 14.4271 5.11641 14.2197 4.90762C14.0123 4.69883 13.8918 4.41915 13.8825 4.12501C13.8763 4.09417 13.8738 4.0627 13.875 4.03126V2.08501C13.8751 1.91484 13.9288 1.74902 14.0284 1.61105C14.128 1.47307 14.2685 1.36994 14.43 1.31626L14.6813 1.23001C14.8845 1.16163 15.0528 1.0162 15.15 0.825011C15.2174 0.689726 15.3211 0.575927 15.4497 0.496425C15.5782 0.416924 15.7264 0.374875 15.8775 0.375011H17.2275C17.0465 0.369246 16.8707 0.435497 16.7385 0.559229C16.6064 0.682961 16.5287 0.854069 16.5225 1.03501C16.5231 1.21344 16.4779 1.38903 16.3913 1.54501Z" fill="#B9D671"/>
<path d="M19.875 1.125C20.0666 1.14636 20.2452 1.23225 20.3815 1.36854C20.5178 1.50484 20.6037 1.68344 20.625 1.875C20.6156 2.02201 20.6454 2.16888 20.7113 2.30063C20.7771 2.43239 20.8768 2.54432 21 2.625C21.1235 2.7054 21.2234 2.81727 21.2893 2.9491C21.3552 3.08093 21.3848 3.22794 21.375 3.375V3.75C21.375 3.83625 21.3713 3.9525 21.36 4.07625C21.3509 4.2445 21.3258 4.4115 21.285 4.575L21.0788 5.33625C21.0264 5.5281 20.9999 5.72611 21 5.925V6.75L20.9475 7.11C20.8521 7.44965 20.7227 7.77882 20.5613 8.0925C20.3175 8.58 20.04 9.06 19.875 9.375V3C19.8697 2.59999 19.7282 2.21374 19.4738 1.905C19.4173 1.83103 19.3545 1.76203 19.2863 1.69875C19.1805 1.59985 19.0691 1.50719 18.9525 1.42125C18.8625 1.34423 18.7994 1.24043 18.7725 1.125H19.875Z" fill="#B9D671"/>
<path d="M19.875 4.66125V8.625C19.8579 7.83913 19.703 7.06236 19.4175 6.33C19.2295 5.82629 19.0064 5.33634 18.75 4.86375C18.7388 4.695 18.6563 2.74125 19.4738 1.905C19.7282 2.21374 19.8697 2.59999 19.875 3V4.66125Z" fill="#89B029"/>
<path d="M19.875 8.62502V9.00002C18.99 7.85627 16.5 7.12502 16.5 7.12502V6.72752C16.4459 6.53372 16.3542 6.35248 16.23 6.19419C16.1058 6.03589 15.9516 5.90365 15.7762 5.80502C15.7762 5.80502 17.9437 5.52752 19.4175 6.33002C19.703 7.06238 19.8579 7.83915 19.875 8.62502Z" fill="#88AB00"/>
<path d="M15 3.80251V3.14251C15.0042 2.91019 15.0794 2.68471 15.2155 2.49636C15.3516 2.308 15.542 2.16577 15.7612 2.08876C16.0312 1.99147 16.2555 1.7978 16.3912 1.54501C17.3 2.55891 18.0912 3.67222 18.75 4.86376V4.87501C17.2762 3.73126 15.1875 3.80251 15.1875 3.80251H15Z" fill="#88AB00"/>
<path d="M18.7725 1.12501C18.7994 1.24044 18.8625 1.34425 18.9525 1.42126C19.0691 1.50721 19.1805 1.59986 19.2863 1.69876C19.3546 1.76204 19.4173 1.83104 19.4738 1.90501C18.6563 2.74126 18.7388 4.69501 18.75 4.86376C18.0913 3.67222 17.3 2.55891 16.3913 1.54501C16.4779 1.38903 16.5231 1.21344 16.5225 1.03501C16.5287 0.854069 16.6064 0.682961 16.7386 0.559229C16.8707 0.435497 17.0466 0.369246 17.2275 0.375011H18.1538C18.2321 0.374913 18.3097 0.390268 18.3821 0.420197C18.4545 0.450127 18.5202 0.494042 18.5756 0.549429C18.631 0.604816 18.6749 0.670585 18.7049 0.74297C18.7348 0.815355 18.7501 0.892933 18.75 0.971262C18.7499 1.02334 18.7575 1.07516 18.7725 1.12501Z" fill="#93BD2C"/>
<path d="M15.1875 3.80251C15.1875 3.80251 17.2762 3.73126 18.75 4.87501V4.86376C19.0064 5.33635 19.2295 5.8263 19.4175 6.33001C17.9437 5.52751 15.7762 5.80501 15.7762 5.80501C15.5909 5.70853 15.4162 5.5929 15.255 5.46001C15.105 5.34376 15 5.25001 15 5.25001V3.80251H15.1875Z" fill="#80A100"/>
<path d="M16.5 7.125C16.5 7.125 18.99 7.85625 19.875 9V9.375C19.8776 9.63029 19.8357 9.88407 19.7513 10.125H17.835C17.7536 9.44393 17.495 8.79612 17.085 8.24625C16.779 7.94177 16.5747 7.55013 16.5 7.125Z" fill="#80A100"/>
<path d="M16.125 8.25C16.125 7.09875 14.8688 6.15375 13.245 6.01875L13.2488 6C13.1614 5.89525 13.1172 5.76118 13.125 5.625V4.875C13.1256 4.67627 13.2048 4.48585 13.3454 4.34533C13.4859 4.2048 13.6763 4.12559 13.875 4.125H13.8825C13.8918 4.41914 14.0123 4.69882 14.2197 4.90761C14.4271 5.11639 14.706 5.23875 15 5.25C15 5.25 15.105 5.34375 15.255 5.46C15.4163 5.59289 15.591 5.70852 15.7763 5.805C15.9517 5.90363 16.1059 6.03587 16.23 6.19417C16.3542 6.35246 16.446 6.5337 16.5 6.7275V7.125C16.5747 7.55013 16.7791 7.94177 17.085 8.24625C17.4951 8.79612 17.7537 9.44393 17.835 10.125H15.8625C16.0394 9.51579 16.1278 8.88435 16.125 8.25Z" fill="#628C1B"/>
<path d="M22.4678 4.80902C22.4329 4.88759 22.3721 4.95179 22.2955 4.99087C22.219 5.02995 22.1313 5.04155 22.0472 5.02371C21.9631 5.00587 21.8877 4.95969 21.8336 4.89289C21.7795 4.82609 21.75 4.74273 21.75 4.65677V3.47177C21.5497 3.63611 21.4175 3.86885 21.3788 4.12502H21.36C21.3509 4.29327 21.3258 4.46027 21.285 4.62377L21.0788 5.38502C21.0263 5.57687 20.9999 5.77488 21 5.97377V6.79877L20.9475 7.15877L21 7.17377C21.4623 6.99065 21.951 6.88303 22.4475 6.85502L22.44 6.79877C23.25 5.78252 23.25 3.04877 23.25 3.04877L22.4678 4.80902Z" fill="#335E33"/>
<path d="M20.9314 7.92825L21.1808 7.05487C21.1192 7.07466 21.0588 7.09807 21 7.125L20.9475 7.11C20.8521 7.44965 20.7227 7.77882 20.5613 8.0925C20.3175 8.58 20.04 9.06 19.875 9.375C19.8776 9.63029 19.8357 9.88407 19.7513 10.125H19.875C22.875 10.125 23.625 6.75 23.625 6.75L21.5168 8.331C21.454 8.37799 21.378 8.40411 21.2996 8.40567C21.2211 8.40722 21.1442 8.38415 21.0796 8.33968C21.0149 8.29522 20.9659 8.2316 20.9393 8.1578C20.9127 8.08399 20.91 8.00371 20.9314 7.92825Z" fill="#346C2F"/>
<path d="M20.7199 7.068C20.6564 7.06701 20.5941 7.05046 20.5384 7.0198C20.4828 6.98913 20.4355 6.9453 20.4008 6.89213C20.3344 6.78657 20.2957 6.66598 20.2883 6.5415C20.2598 6.27765 20.2985 6.01089 20.4008 5.766C20.5256 5.46863 20.7469 5.17163 20.6715 4.85925C20.6186 4.71655 20.5537 4.57856 20.4776 4.44675C20.298 4.03012 20.4776 3.55912 20.4986 3.108C20.5166 2.93179 20.479 2.75437 20.391 2.60063C20.3321 2.511 20.2481 2.43862 20.19 2.34862C20.0719 2.16562 20.0708 1.92338 19.9301 1.7565C19.8522 1.68071 19.7702 1.60923 19.6845 1.54237C19.6421 1.50913 19.6096 1.46496 19.5904 1.41461C19.5713 1.36426 19.5662 1.30964 19.5758 1.25663C19.5964 1.20281 19.6334 1.15679 19.6815 1.125H18.7725C18.7994 1.24043 18.8625 1.34423 18.9525 1.42125C19.0691 1.50719 19.1805 1.59985 19.2863 1.69875C19.3545 1.76203 19.4173 1.83103 19.4738 1.905C19.7282 2.21374 19.8697 2.59999 19.875 3V9.375C20.04 9.06 20.3175 8.58 20.5613 8.0925C20.7227 7.77882 20.8521 7.44965 20.9475 7.11L20.9655 6.98588C20.958 6.98962 20.9509 6.9945 20.9434 6.99825C20.8749 7.03766 20.7986 7.06147 20.7199 7.068Z" fill="#9FC73D"/>
<path d="M15.9038 1.03914C15.8561 1.18227 15.7757 1.31233 15.669 1.41901C15.5623 1.52569 15.4323 1.60607 15.2891 1.65376C15.0957 1.71822 14.9275 1.84189 14.8083 2.00725C14.6892 2.17262 14.625 2.37129 14.625 2.57514V3.37501C14.625 3.47447 14.5855 3.56985 14.5152 3.64018C14.4448 3.7105 14.3495 3.75001 14.25 3.75001C14.1505 3.75001 14.0552 3.7105 13.9848 3.64018C13.9145 3.56985 13.875 3.47447 13.875 3.37501V4.03126C13.8738 4.0627 13.8763 4.09417 13.8825 4.12501C13.8918 4.41915 14.0123 4.69883 14.2197 4.90762C14.4271 5.11641 14.7059 5.23877 15 5.25001V3.14251C15.0042 2.91018 15.0794 2.68471 15.2155 2.49635C15.3516 2.308 15.542 2.16577 15.7613 2.08876C16.0312 1.99146 16.2555 1.79779 16.3913 1.54501C16.4779 1.38903 16.5231 1.21344 16.5225 1.03501C16.5287 0.854069 16.6064 0.682961 16.7385 0.559229C16.8707 0.435497 17.0465 0.369246 17.2275 0.375011H16.8251C16.6213 0.374963 16.4226 0.439084 16.2572 0.558286C16.0918 0.677488 15.9682 0.845721 15.9038 1.03914Z" fill="#9FC73D"/>
<path d="M17.085 8.24625C16.779 7.94177 16.5747 7.55013 16.5 7.125V6.7275C16.4459 6.5337 16.3542 6.35246 16.23 6.19417C16.1058 6.03587 15.9516 5.90363 15.7762 5.805C15.5909 5.70852 15.4162 5.59289 15.255 5.46C15.105 5.34375 15 5.25 15 5.25C14.7059 5.23875 14.4271 5.11639 14.2197 4.90761C14.0123 4.69882 13.8918 4.41914 13.8825 4.125H13.875C13.7429 4.12581 13.6134 4.16193 13.5 4.22963V4.3905C13.5001 4.628 13.5754 4.85939 13.715 5.0515C13.8546 5.24362 14.0515 5.38661 14.2774 5.46C14.8399 5.64375 15.537 5.9475 15.75 6.375C15.948 6.95932 16.21 7.51997 16.5311 8.04675C16.5684 8.10308 16.5896 8.16847 16.5925 8.23593C16.5955 8.30338 16.5801 8.37037 16.5479 8.42975C16.5158 8.48912 16.4681 8.53865 16.41 8.57304C16.3519 8.60743 16.2855 8.62539 16.218 8.625H16.1119C16.0876 9.13302 16.0039 9.63646 15.8625 10.125H17.835C17.7536 9.44393 17.495 8.79612 17.085 8.24625Z" fill="#4D6E15"/>
<path d="M19.875 9.375V7.65638C19.7928 7.19299 19.6692 6.73791 19.5056 6.29663C19.3183 5.79566 19.0967 5.30814 18.8426 4.8375C18.8344 4.662 18.7676 2.80725 19.5266 1.98113C19.5083 1.956 19.4936 1.92825 19.4738 1.90388C19.4539 1.8795 19.4306 1.85738 19.4096 1.83338L19.4066 1.8375C18.7526 2.50688 18.6566 3.83475 18.6495 4.48913C18.024 3.41522 17.2912 2.40745 16.4625 1.48125C16.4591 1.4775 16.446 1.4655 16.4423 1.46213C16.4385 1.45875 16.4332 1.458 16.4295 1.45425C16.4186 1.48513 16.4061 1.51542 16.392 1.545C16.377 1.5735 16.3567 1.59863 16.3395 1.626C17.1506 2.53478 17.8683 3.52274 18.4819 4.575C17.48 3.99607 16.3412 3.69665 15.1841 3.708C15.1718 3.70845 15.1597 3.71131 15.1485 3.71643C15.1373 3.72155 15.1272 3.72883 15.1188 3.73785C15.1104 3.74687 15.1039 3.75745 15.0996 3.769C15.0953 3.78054 15.0933 3.79282 15.0937 3.80513C15.0942 3.81744 15.0971 3.82954 15.1022 3.84075C15.1073 3.85195 15.1146 3.86204 15.1236 3.87043C15.1326 3.87882 15.1432 3.88536 15.1547 3.88966C15.1663 3.89396 15.1786 3.89595 15.1909 3.8955C15.2085 3.89288 17.2534 3.8385 18.6851 4.94325C18.8919 5.33049 19.0764 5.72927 19.2375 6.13763C17.7731 5.46713 15.8501 5.70075 15.7646 5.712C15.7508 5.71421 15.7377 5.71964 15.7264 5.72785C15.715 5.73606 15.7058 5.74681 15.6994 5.75925C15.7253 5.77388 15.7511 5.79225 15.7766 5.805C15.8197 5.82932 15.861 5.8565 15.9004 5.88638C16.3504 5.84513 18.099 5.73825 19.3418 6.39713C19.6157 7.10883 19.7644 7.86258 19.7813 8.625V8.74988C18.7864 7.70813 16.6234 7.06238 16.5262 7.03425C16.5172 7.03163 16.509 7.03725 16.5 7.03725V7.125C16.501 7.15856 16.5043 7.19201 16.5098 7.22513C16.8098 7.31813 18.9668 8.01263 19.7813 9.03413V9.375C19.7834 9.61963 19.7434 9.8628 19.6631 10.0939C19.659 10.1044 19.6631 10.1141 19.6631 10.125H19.7498C19.8347 9.88416 19.8771 9.63038 19.875 9.375Z" fill="#B9D671"/>
<path d="M9 4.125C11.1862 4.125 12.75 6 12.75 6H12.3113C9.50625 5.94375 9 4.125 9 4.125Z" fill="#80A100"/>
<path d="M12.75 5.25001V6.00001C12.75 6.00001 11.1862 4.12501 9 4.12501C9.28794 3.99103 9.58976 3.88917 9.9 3.82126C10.1002 3.77333 10.3054 3.74941 10.5113 3.75001H10.5638C11.8125 3.75001 12.6075 4.36126 12.75 5.25001Z" fill="#A1C203"/>
<path d="M12.3113 6H12.84C12.9788 6 13.11 6.0075 13.245 6.01875C14.8687 6.15375 16.125 7.09875 16.125 8.25C16.1277 8.88435 16.0393 9.51579 15.8625 10.125H8.8875C8.71067 9.51579 8.62226 8.88435 8.625 8.25C8.63103 7.84927 8.77694 7.46326 9.0375 7.15875C9.59625 6.465 10.6725 6 11.91 6H12.3113Z" fill="#DB3744"/>
<path d="M14.4375 9.37501H11.8125C11.3723 9.37634 10.949 9.20524 10.6334 8.89835C10.3178 8.59146 10.1348 8.17318 10.1238 7.73309C10.1128 7.293 10.2745 6.86608 10.5744 6.54376C10.8742 6.22145 11.2884 6.02936 11.7281 6.00863C11.2245 6.0036 10.7252 6.10323 10.2621 6.30121C9.79891 6.49919 9.38191 6.79121 9.0375 7.15876C8.77694 7.46327 8.63103 7.84928 8.625 8.25001C8.62226 8.88436 8.71067 9.5158 8.8875 10.125H15.8625C16.0393 9.5158 16.1277 8.88436 16.125 8.25001C16.124 8.15571 16.1145 8.0617 16.0965 7.96913C16.0307 8.36174 15.828 8.71836 15.5243 8.97572C15.2206 9.23308 14.8356 9.37454 14.4375 9.37501Z" fill="#AD313B"/>
<path d="M13.6009 6.64651C13.4471 6.67613 13.2761 6.762 13.2555 6.91688C13.233 7.08525 13.3965 7.21275 13.5383 7.30575C13.8473 7.50764 14.1456 7.72556 14.4319 7.95863C14.5969 8.09288 14.8043 8.24138 15.003 8.16563C15.0715 8.13751 15.13 8.08958 15.171 8.028C15.2176 7.95424 15.2469 7.87087 15.2566 7.78415C15.2664 7.69744 15.2563 7.60965 15.2273 7.52738C15.1802 7.37287 15.1006 7.2302 14.994 7.10888C14.8124 6.93069 14.5925 6.79639 14.351 6.71625C14.1096 6.63611 13.853 6.61226 13.6009 6.64651Z" fill="#FF6666"/>
<path d="M12 2.25L11.9962 2.295C11.7487 2.2645 11.4994 2.24947 11.25 2.25C11.25 2.25 9.375 1.875 9.375 0.75H10.5C11.625 0.75 12 2.25 12 2.25Z" fill="#A1C203"/>
<path d="M13.875 3.22501V4.03126C13.8738 4.0627 13.8763 4.09417 13.8825 4.12501H13.875C13.6763 4.12561 13.4858 4.20482 13.3453 4.34534C13.2048 4.48586 13.1256 4.67628 13.125 4.87501V5.62501C13.1171 5.76119 13.1614 5.89527 13.2488 6.00001L13.245 6.01876C13.11 6.00751 12.9787 6.00001 12.84 6.00001H12.75V5.25001C12.6075 4.36126 11.8125 3.75001 10.5637 3.75001H10.5112C10.3054 3.74941 10.1002 3.77333 9.9 3.82126C9.58976 3.88917 9.28794 3.99103 9 4.12501V3.37501C8.99971 3.22436 8.95539 3.07707 8.8725 2.95126C9.42375 2.44876 10.2825 2.25001 11.25 2.25001C11.4994 2.24949 11.7487 2.26452 11.9962 2.29501C12.3561 2.3144 12.7083 2.40685 13.0313 2.56674C13.3543 2.72662 13.6414 2.9506 13.875 3.22501Z" fill="#FF9B00"/>
<path d="M9 7.125V4.125C9 4.125 9.50625 5.94375 12.3113 6H11.91C10.6725 6 9.59625 6.465 9.0375 7.15875L9 7.125Z" fill="#F1671C"/>
<path d="M13.875 4.03126V3.75001C11.9711 3.75001 10.0875 3.18339 9.79425 2.44876C9.45415 2.54732 9.1396 2.7188 8.8725 2.95126C8.95539 3.07706 8.99971 3.22435 9 3.37501V4.12501C9.28794 3.99103 9.58976 3.88917 9.9 3.82126C10.1002 3.77333 10.3054 3.74941 10.5112 3.75001H10.5637C11.8125 3.75001 12.6075 4.36126 12.75 5.25001V6.00001H12.84C12.9787 6.00001 13.11 6.00751 13.245 6.01876L13.2488 6.00001C13.1614 5.89527 13.1171 5.76119 13.125 5.62501V4.87501C13.1256 4.67628 13.2048 4.48586 13.3453 4.34534C13.4858 4.20481 13.6763 4.1256 13.875 4.12501H13.8825C13.8763 4.09417 13.8738 4.0627 13.875 4.03126Z" fill="#F1671C"/>
<path d="M11.25 2.25C11.4994 2.24947 11.7487 2.2645 11.9962 2.295L12 2.25L9.375 0.75C9.375 1.875 11.25 2.25 11.25 2.25Z" fill="#88AB00"/>
<path d="M7.96504 9.10126L8.77504 10.125H5.04379L4.08753 9.36376C3.79446 9.12592 3.59177 8.7948 3.5133 8.42561C3.43482 8.05642 3.48529 7.67149 3.65628 7.33501C3.67503 7.30876 3.69378 7.27501 3.71253 7.24501C3.84778 7.02976 4.02979 6.84775 4.24503 6.71251C4.27504 6.69376 4.30879 6.67501 4.33504 6.65626C4.64397 6.49992 4.99405 6.44407 5.3363 6.49652C5.67855 6.54896 5.99584 6.70708 6.24379 6.94876C6.28667 6.99243 6.32675 7.03877 6.36379 7.08751L7.96504 9.10126Z" fill="#FF9B00"/>
<path d="M3.47627 7.1775L3.65627 7.335C3.52129 7.59477 3.46032 7.88666 3.48002 8.17875L1.11377 7.99875C0.950645 7.98421 0.797901 7.91249 0.682525 7.79625L0.577525 7.69125C0.470328 7.58375 0.401738 7.44378 0.382458 7.29319C0.363179 7.1426 0.394295 6.98987 0.47095 6.85883C0.547606 6.72779 0.665488 6.62581 0.806198 6.56881C0.946908 6.51181 1.10253 6.503 1.24877 6.54375L3.47627 7.1775Z" fill="#88AB00"/>
<path d="M4.33504 6.65626C4.30879 6.67501 4.27504 6.69376 4.24504 6.71251C4.02979 6.84775 3.84779 7.02976 3.71254 7.24501C3.69379 7.27501 3.67504 7.30876 3.65629 7.33501L3.47629 7.17751L1.37629 5.40376C1.24171 5.26662 1.16632 5.08215 1.16632 4.89001C1.16632 4.69787 1.24171 4.5134 1.37629 4.37626C1.44359 4.3085 1.52364 4.25473 1.61181 4.21803C1.69998 4.18134 1.79454 4.16245 1.89004 4.16245C1.98554 4.16245 2.0801 4.18134 2.16827 4.21803C2.25645 4.25473 2.33649 4.3085 2.40379 4.37626L4.17754 6.47626L4.33504 6.65626Z" fill="#88AB00"/>
<path d="M3.72 3.5775C3.78356 3.51335 3.8592 3.46243 3.94255 3.42767C4.0259 3.39292 4.11532 3.37503 4.20562 3.37503C4.29593 3.37503 4.38534 3.39292 4.46869 3.42767C4.55204 3.46243 4.62769 3.51335 4.69125 3.5775L4.79625 3.6825C4.91248 3.79788 4.98421 3.95062 4.99875 4.11375L5.17125 6.3825L5.17875 6.48C4.88666 6.46029 4.59477 6.52126 4.335 6.65625L4.1775 6.47625L3.54375 4.24875C3.51037 4.13133 3.50912 4.0071 3.54013 3.88903C3.57113 3.77097 3.63324 3.66338 3.72 3.5775Z" fill="#88AB00"/>
<path d="M6.04504 9.375C5.91186 9.37508 5.77998 9.34889 5.65695 9.29792C5.53392 9.24696 5.42214 9.17223 5.32804 9.078L4.43479 8.18475C4.30907 8.05962 4.21844 7.90366 4.17196 7.73249C4.12548 7.56132 4.12477 7.38094 4.16993 7.20941C4.21508 7.03788 4.3045 6.88123 4.42923 6.75512C4.55396 6.62902 4.70964 6.5379 4.88066 6.49088C4.6906 6.51406 4.50599 6.57001 4.33504 6.65625C4.30879 6.675 4.27504 6.69375 4.24503 6.7125C4.02979 6.84774 3.84778 7.02975 3.71253 7.245C3.69378 7.275 3.67503 7.30875 3.65628 7.335C3.48529 7.67148 3.43482 8.05642 3.5133 8.42561C3.59177 8.79479 3.79446 9.12592 4.08753 9.36375L5.04379 10.125H8.77504L8.18179 9.375H6.04504Z" fill="#F37924"/>
<path d="M3.65627 7.33501L3.47627 7.17751L3.20064 7.09913L3.12077 7.25813C3.08558 7.32856 3.02912 7.38613 2.95939 7.42267C2.88967 7.45922 2.8102 7.4729 2.73227 7.46176L0.787518 7.18388C0.706741 7.17198 0.632116 7.13385 0.575131 7.07538C0.518146 7.0169 0.48196 6.94132 0.472143 6.86026C0.394798 6.99077 0.363167 7.14334 0.382251 7.29384C0.401335 7.44434 0.470046 7.58419 0.577518 7.69126L0.682518 7.79626C0.797895 7.9125 0.950638 7.98422 1.11377 7.99876L3.48002 8.17876C3.46031 7.88667 3.52128 7.59478 3.65627 7.33501Z" fill="#628C1B"/>
<path d="M4.17749 6.47625L4.03649 6.309L3.88649 6.40913C3.74224 6.50524 3.56916 6.54842 3.39667 6.53133C3.22419 6.51424 3.06294 6.43793 2.94036 6.31538L1.77186 5.14688C1.64883 5.02308 1.57302 4.86011 1.55761 4.68626C1.5422 4.5124 1.58815 4.33864 1.68749 4.19513C1.56696 4.23081 1.45774 4.29711 1.37046 4.38757C1.28319 4.47802 1.22084 4.58955 1.18949 4.71127C1.15814 4.833 1.15887 4.96077 1.1916 5.08213C1.22433 5.20349 1.28794 5.3143 1.37624 5.40375L3.47624 7.1775L3.65624 7.335C3.67499 7.30875 3.69374 7.275 3.71249 7.245C3.84773 7.02976 4.02974 6.84775 4.24499 6.7125C4.27499 6.69375 4.30874 6.675 4.33499 6.65625L4.17749 6.47625Z" fill="#628C1B"/>
<path d="M5.12999 5.84252L4.90499 5.89914C4.85404 5.91191 4.80097 5.91382 4.74923 5.90477C4.69749 5.89571 4.64823 5.87589 4.60464 5.84658C4.56104 5.81727 4.5241 5.77913 4.49619 5.73464C4.46828 5.69014 4.45003 5.64027 4.44262 5.58827L4.19999 3.91014C4.17586 3.72576 4.22191 3.53904 4.32899 3.38702C4.21408 3.3658 4.09567 3.3742 3.9849 3.41141C3.87414 3.44862 3.77467 3.51343 3.69588 3.59972C3.6171 3.68602 3.56158 3.79095 3.53457 3.90463C3.50756 4.01832 3.50994 4.13701 3.54149 4.24952L4.17524 6.47702L4.33274 6.65702C4.59252 6.52203 4.8844 6.46106 5.17649 6.48077L5.16899 6.38327L5.12999 5.84252Z" fill="#628C1B"/>
<path d="M5.45967 8.3329C5.44104 8.34997 5.42605 8.37064 5.41561 8.39366C5.40517 8.41668 5.39949 8.44157 5.39891 8.46684C5.39834 8.49211 5.40288 8.51724 5.41226 8.54071C5.42164 8.56418 5.43567 8.58551 5.4535 8.60342C5.47134 8.62133 5.49261 8.63545 5.51604 8.64493C5.53947 8.65441 5.56457 8.65906 5.58985 8.65859C5.61512 8.65812 5.64003 8.65254 5.6631 8.6422C5.68616 8.63186 5.70689 8.61696 5.72405 8.5984L6.75005 7.57502L6.52017 7.28552C6.50947 7.29122 6.4993 7.29787 6.4898 7.3054L5.45967 8.3329Z" fill="#F37924"/>
<path d="M7.28591 9.37501L7.78466 8.87439L7.54991 8.57889L6.75641 9.37501H7.28591Z" fill="#F37924"/>
<path d="M6.62851 9.50325C6.59336 9.53841 6.57361 9.58609 6.57361 9.63581C6.57361 9.68553 6.59336 9.73321 6.62851 9.76837C6.64576 9.78582 6.66632 9.79965 6.68899 9.80905C6.71166 9.81845 6.73597 9.82324 6.76051 9.82312C6.78523 9.82317 6.80973 9.81832 6.83258 9.80886C6.85542 9.7994 6.87617 9.78551 6.89363 9.768L7.28588 9.375H6.75638L6.62851 9.50325Z" fill="#E95410"/>
<path d="M4.82478 6.96526C4.78237 6.98069 4.74452 7.00653 4.71471 7.04041C4.68489 7.07429 4.66407 7.11511 4.65416 7.15914C4.65344 7.19435 4.66163 7.22916 4.67795 7.26036C4.69427 7.29157 4.71821 7.31815 4.74753 7.33764C4.8065 7.37623 4.87191 7.40392 4.94066 7.41939C5.16341 7.48239 5.38878 7.53676 5.61566 7.57764C5.66849 7.59583 5.72509 7.60021 5.78009 7.59036C5.83509 7.58052 5.88667 7.55677 5.92991 7.52139C5.95856 7.4841 5.97517 7.43898 5.97753 7.39201C5.98513 7.29634 5.95649 7.2013 5.89728 7.12576C5.75469 6.99548 5.57652 6.91063 5.3855 6.88204C5.19447 6.85346 4.99927 6.88243 4.82478 6.96526Z" fill="#FBCB00"/>
<path d="M6.375 1.125H7.875V2.625H6.375V1.125Z" fill="#30CFFF"/>
<path d="M9 3.37501V4.12501H5.25V3.37501C5.25059 3.17628 5.3298 2.98586 5.47033 2.84533C5.61085 2.70481 5.80127 2.6256 6 2.62501H8.25C8.34877 2.624 8.44675 2.64272 8.5382 2.68006C8.62964 2.71739 8.71272 2.7726 8.78257 2.84244C8.85241 2.91229 8.90762 2.99537 8.94495 3.08681C8.98229 3.17826 9.001 3.27624 9 3.37501Z" fill="#E7F5F5"/>
<path d="M9.0375 7.15875L9 7.125V4.125H5.25V6.48938C5.62494 6.52096 5.97678 6.6836 6.24375 6.94875C6.28664 6.99242 6.32672 7.03876 6.36375 7.0875L7.965 9.10125L8.775 10.125H8.8875C8.71067 9.51579 8.62226 8.88435 8.625 8.25C8.63103 7.84927 8.77694 7.46326 9.0375 7.15875Z" fill="#30CFFF"/>
<path d="M6.375 3.375C6.375 3.17609 6.45402 2.98532 6.59467 2.84467C6.73532 2.70402 6.92609 2.625 7.125 2.625H6C5.80127 2.62559 5.61085 2.7048 5.47033 2.84533C5.3298 2.98585 5.25059 3.17627 5.25 3.375V4.125H6.375V3.375Z" fill="#CEDADA"/>
<path d="M9.0375 7.15875L9 7.125V5.8125C9 6.1606 8.86172 6.49444 8.61558 6.74058C8.36944 6.98672 8.0356 7.125 7.6875 7.125C7.3394 7.125 7.00556 6.98672 6.75942 6.74058C6.51328 6.49444 6.375 6.1606 6.375 5.8125V4.125H5.25V6.48938C5.62494 6.52096 5.97678 6.6836 6.24375 6.94875C6.28664 6.99242 6.32672 7.03876 6.36375 7.0875L7.965 9.10125L8.775 10.125H8.8875C8.71067 9.51579 8.62226 8.88435 8.625 8.25C8.63103 7.84927 8.77694 7.46326 9.0375 7.15875Z" fill="#01A3EC"/>
<path d="M6.375 1.125V2.625H7.875V2.25H7.125C7.02554 2.25 6.93016 2.21049 6.85983 2.14016C6.78951 2.06984 6.75 1.97446 6.75 1.875V1.125H6.375Z" fill="#01A3EC"/>
<path d="M7.125 1.125H7.5V2.25H7.125V1.125Z" fill="#01A3EC"/>
<path d="M8.625 3.75C8.625 3.65054 8.58549 3.55516 8.51517 3.48484C8.44484 3.41451 8.34946 3.375 8.25 3.375C8.15054 3.375 8.05516 3.41451 7.98483 3.48484C7.91451 3.55516 7.875 3.65054 7.875 3.75V4.125H8.625V3.75Z" fill="white"/>
<path d="M7.875 4.125V5.625C7.875 5.72446 7.91451 5.81984 7.98483 5.89016C8.05516 5.96049 8.15054 6 8.25 6C8.34946 6 8.44484 5.96049 8.51517 5.89016C8.58549 5.81984 8.625 5.72446 8.625 5.625V4.125H7.875Z" fill="#99EFFF"/>
<path d="M10.5 15.375C11.9497 15.375 13.125 14.8713 13.125 14.25C13.125 13.6287 11.9497 13.125 10.5 13.125C9.05025 13.125 7.875 13.6287 7.875 14.25C7.875 14.8713 9.05025 15.375 10.5 15.375Z" fill="#88AB00"/>
<path d="M18.375 10.125V21.375L16.875 23.625V10.125H17.835H18.375Z" fill="#E5AA5C"/>
<path d="M16.875 10.125V23.625H4.875L4.125 22.875V10.125H16.875ZM13.125 14.25C13.125 13.6275 11.9513 13.125 10.5 13.125C9.04875 13.125 7.875 13.6275 7.875 14.25C7.875 14.8725 9.04875 15.375 10.5 15.375C11.9513 15.375 13.125 14.8725 13.125 14.25Z" fill="#FAD27A"/>
<path d="M19.7512 10.125H18.375V21.375L19.875 22.875V10.125H19.7512Z" fill="#D28E43"/>
<path d="M16.875 23.625L19.875 22.875L18.375 21.375L16.875 23.625Z" fill="#A15C27"/>
<path d="M10.5 12.9375C8.8965 12.9375 7.6875 13.5019 7.6875 14.25C7.6875 14.9981 8.8965 15.5625 10.5 15.5625C12.1035 15.5625 13.3125 14.9981 13.3125 14.25C13.3125 13.5019 12.1035 12.9375 10.5 12.9375ZM10.5 15.375C9.05025 15.375 7.875 14.8714 7.875 14.25C7.875 13.6286 9.05025 13.125 10.5 13.125C11.9498 13.125 13.125 13.6286 13.125 14.25C13.125 14.8714 11.9498 15.375 10.5 15.375Z" fill="#FAAB1B"/>
<path d="M11.25 22.125C9.85761 22.125 8.52226 21.5719 7.53769 20.5873C6.55312 19.6027 6 18.2674 6 16.875V10.125H4.125V22.875L4.875 23.625H16.875V22.125H11.25Z" fill="#F5B662"/>
</svg>