<svg width="40" height="40" viewBox="0 0 40 40" fill="none" xmlns="http://www.w3.org/2000/svg">
<g clip-path="url(#clip0_106_345)">
<path d="M13.1217 12.2119L9.05396 12.2176L9.04279 5.3628C9.04266 5.27072 9.07912 5.18235 9.14414 5.11714C9.20916 5.05193 9.29742 5.01522 9.3895 5.01507L12.7628 5.01038C12.8549 5.01026 12.9432 5.04672 13.0084 5.11174C13.0737 5.17676 13.1104 5.26501 13.1105 5.3571L13.1217 12.2119Z" fill="#FFB125"/>
<path d="M13.1106 5.3571C13.1105 5.3115 13.1015 5.26635 13.084 5.22424C13.0665 5.18214 13.0408 5.14389 13.0085 5.11169C12.9763 5.07949 12.9379 5.05397 12.8958 5.03659C12.8536 5.01921 12.8084 5.0103 12.7628 5.01038L10.7517 5.0132C10.93 5.02757 11.0709 5.17507 11.0711 5.3571L11.0823 12.2118L9.05402 12.2146V12.2174L13.1217 12.2117L13.1106 5.3571Z" fill="#FF901D"/>
<path d="M19.8483 4.88609L8.95203 15.1507L8.97382 30.7553C8.97437 31.1669 9.30859 31.5001 9.72023 31.4996L30.0505 31.4712C30.4621 31.4706 30.7953 31.1364 30.7948 30.7248L30.773 15.1202L19.8483 4.88609Z" fill="#E1EFFB"/>
<path d="M30.773 15.1202L19.8482 4.88609L18.0515 6.57866L27.1695 15.1201L27.1913 30.7247C27.1915 30.9224 27.1133 31.1121 26.9737 31.2521C26.8341 31.392 26.6446 31.4708 26.447 31.4711H30.0505C30.4621 31.4705 30.7954 31.1363 30.7948 30.7247L30.773 15.1202Z" fill="#CCDFED"/>
<path d="M34.6166 18.5587C34.2354 18.5597 33.8683 18.4148 33.5905 18.1538L19.8484 5.28061L6.14241 18.1922C5.54007 18.7597 4.59163 18.7313 4.02437 18.1289C3.45687 17.5266 3.48515 16.5783 4.08757 16.0109L18.8181 2.13414C19.3939 1.59156 20.2925 1.59031 20.87 2.13125L35.6392 15.9668C36.2432 16.5325 36.2741 17.4807 35.7083 18.0847C35.5685 18.2342 35.3995 18.3535 35.2117 18.435C35.0239 18.5166 34.8214 18.5587 34.6166 18.5587Z" fill="#FF4C4C"/>
<path d="M35.7083 16.2825C35.5685 16.432 35.3995 16.5513 35.2117 16.6328C35.0239 16.7144 34.8213 16.7564 34.6166 16.7565C34.2354 16.7574 33.8683 16.6125 33.5904 16.3515L19.8484 3.47836L6.14244 16.3898C5.5401 16.9573 4.59166 16.929 4.0244 16.3266C3.98702 16.2868 3.95184 16.2449 3.91901 16.2012C3.48729 16.7735 3.51619 17.5896 4.0244 18.1289C4.59166 18.7312 5.5401 18.7596 6.14244 18.1921L19.8484 5.28062L33.5904 18.1538C33.8683 18.4148 34.2354 18.5597 34.6166 18.5587C34.8213 18.5587 35.0239 18.5166 35.2117 18.4351C35.3995 18.3536 35.5685 18.2343 35.7083 18.0847C36.2139 17.545 36.2416 16.7311 35.811 16.1601C35.779 16.2027 35.7447 16.2435 35.7083 16.2825Z" fill="#F33939"/>
<path d="M22.6669 17.7504L17.0655 17.7582C16.9393 17.7584 16.8183 17.8087 16.7292 17.8981C16.6401 17.9875 16.5901 18.1086 16.5903 18.2348L16.6088 31.4899L23.162 31.4808L23.1435 18.2257C23.1434 18.1632 23.131 18.1013 23.107 18.0436C23.083 17.9859 23.0479 17.9335 23.0036 17.8893C22.9594 17.8452 22.9068 17.8102 22.8491 17.7864C22.7913 17.7626 22.7294 17.7503 22.6669 17.7504Z" fill="#2D5871"/>
<path d="M23.1434 18.2256C23.1432 18.0994 23.0929 17.9784 23.0035 17.8893C22.9141 17.8002 22.793 17.7502 22.6668 17.7504L19.5021 17.7548C19.5988 17.7851 19.6832 17.8454 19.7432 17.927C19.8032 18.0085 19.8356 18.1071 19.8358 18.2083L19.8543 31.4853L23.1619 31.4807L23.1434 18.2256Z" fill="#1D4859"/>
<path d="M36.9597 24.79L28.7036 30.3154L26.2431 30.1774L26.1467 29.2089C26.0034 27.7672 24.8934 26.6102 23.4589 26.4072L16.8664 25.6482C15.3457 25.433 13.8815 24.9234 12.5557 24.1478C10.7458 23.089 8.6866 22.531 6.58966 22.531H1.83655V33.3805L14.3987 38.1376C14.8735 38.2716 15.3721 38.3117 15.8593 38.2348L15.8681 38.2334L28.5152 36.4103C29.4896 36.2548 30.4055 35.8444 31.1701 35.2208L39.3441 27.8692C40.0777 27.2178 40.2137 26.123 39.6618 25.3119C39.0579 24.4246 37.8506 24.1914 36.9597 24.79Z" fill="#FED9A8"/>
<path d="M39.7695 25.4922L31.6902 32.2931C30.9256 32.9167 29.6545 33.3271 28.6802 33.4827L15.8681 34.3985L15.8594 34.3999C15.3721 34.477 14.8734 34.4368 14.3987 34.3027L1.83649 29.5456V33.3806L14.3986 38.1377C14.6355 38.2049 14.8787 38.2478 15.1243 38.2654C15.1855 38.2697 15.2468 38.2723 15.3082 38.2733C15.4926 38.2763 15.677 38.2635 15.8593 38.2349L15.868 38.2334L28.5152 36.4104C29.2436 36.2942 29.9418 36.0351 30.5696 35.6479C30.7789 35.5189 30.9795 35.3762 31.17 35.2208L39.3441 27.8692C40.0247 27.2649 40.1898 26.2792 39.7695 25.4922Z" fill="#F4C892"/>
<path d="M27.2011 30.2328L13.2845 29.676C13.2181 29.6733 13.1534 29.6538 13.0967 29.6192L12.3574 29.1688C11.9979 28.9499 12.1907 28.3954 12.6085 28.4466L27.2011 30.2328Z" fill="#F4C892"/>
<path d="M3.43843 37.0658H1.55781C0.697421 37.0658 0 36.3683 0 35.508V21.5909C0 20.7305 0.697499 20.0331 1.55781 20.0331H3.43843C4.29882 20.0331 4.99624 20.7306 4.99624 21.5909V35.508C4.99624 36.3684 4.29882 37.0658 3.43843 37.0658Z" fill="#2D5871"/>
<path d="M3.43846 20.0331H1.55783C1.45205 20.0331 1.34893 20.0439 1.24908 20.0639C1.9615 20.2072 2.49814 20.8363 2.49814 21.5909V35.508C2.49814 36.2626 1.9615 36.8916 1.24908 37.0349C1.34893 37.055 1.45213 37.0658 1.55783 37.0658H3.43846C4.29884 37.0658 4.99626 36.3683 4.99626 35.508V21.5909C4.99626 20.7306 4.29884 20.0331 3.43846 20.0331Z" fill="#1D4859"/>
</g>
<defs>
<clipPath id="clip0_106_345">
<rect width="40" height="40" fill="white"/>
</clipPath>
</defs>
</svg>
