<svg width="24" height="24" viewBox="0 0 24 24" fill="none" xmlns="http://www.w3.org/2000/svg">
<path d="M17.6 3.39999L15.6688 21H7.9312L6 3.39999H17.6Z" fill="#4482C3"/>
<path d="M7.19999 0.200012H16.4C16.8419 0.200012 17.2 0.558184 17.2 1.00003V2.60001H6.40002V0.999981C6.39998 0.558184 6.75815 0.200012 7.19999 0.200012Z" fill="#E6E7E8"/>
<path d="M5.99998 1.79999H17.6C18.0418 1.79999 18.4 2.15816 18.4 2.6V3.40002C18.4 3.62094 18.221 3.8 18 3.8H5.6C5.37907 3.8 5.20001 3.62089 5.20001 3.40002V2.6C5.19997 2.15816 5.55814 1.79999 5.99998 1.79999Z" fill="#D1D4D1"/>
<path d="M15.2 16.6V20.2H13.364C13.2592 20.2008 13.1588 20.2424 13.0841 20.316L11.2 22.2L9.31601 20.316C9.24129 20.2424 9.14088 20.2008 9.03603 20.2H2.40002V16.6H15.2Z" fill="#14A085"/>
<path d="M15.2 15.004C15.1775 15.0007 15.1547 14.9994 15.132 15H2.39999C2.06657 15.0002 1.74828 15.1391 1.52141 15.3834C1.29453 15.6278 1.17955 15.9555 1.20397 16.288C1.2726 16.9306 1.82178 17.4138 2.46796 17.4H15.2C15.5334 17.3998 15.8517 17.2609 16.0785 17.0166C16.3054 16.7723 16.4204 16.4446 16.396 16.112C16.3315 15.4951 15.8201 15.0213 15.2 15.004Z" fill="#804537"/>
<path d="M15.2 12.2V15.004C15.1775 15.0007 15.1548 14.9994 15.132 15H9.36401C9.25915 15.0009 9.15874 15.0425 9.08403 15.1161L6.80004 17.4L4.51606 15.116C4.44134 15.0424 4.34093 15.0008 4.23607 15H2.40002V12.2H15.2Z" fill="#F0C419"/>
<path d="M16 13H1.6C1.37907 13 1.20001 12.8209 1.20001 12.6V12.2C1.20001 11.1391 1.62142 10.1217 2.37161 9.37158C3.12179 8.62143 4.13917 8.19998 5.20004 8.19998H12.4C14.6092 8.19998 16.4 9.99084 16.4 12.2V12.6C16.4 12.8209 16.2209 13 16 13Z" fill="#F29C1F"/>
<path d="M16.4 19.8V21C16.4 22.3255 15.3255 23.4 14 23.4H3.60001C2.27453 23.4 1.20001 22.3255 1.20001 21V19.8C1.20001 19.5791 1.37912 19.4 1.6 19.4H9.03601C9.14087 19.4009 9.24128 19.4424 9.316 19.516L11.2 21.4L13.084 19.516C13.1587 19.4424 13.2591 19.4009 13.364 19.4H16C16.2209 19.4 16.4 19.5791 16.4 19.8Z" fill="#F29C1F"/>
<path d="M5.60002 9.80002H5.20003C4.97911 9.80002 4.80005 9.97913 4.80005 10.2C4.80005 10.4209 4.97916 10.6 5.20003 10.6H5.60002C5.82094 10.6 6 10.4209 6 10.2C6 9.97908 5.82089 9.80002 5.60002 9.80002Z" fill="#E57E25"/>
<path d="M8.00004 10.6H7.60006C7.37914 10.6 7.20007 10.7791 7.20007 11C7.20007 11.2209 7.37918 11.3999 7.60006 11.3999H8.00004C8.22096 11.3999 8.40003 11.2208 8.40003 11C8.40003 10.7791 8.22096 10.6 8.00004 10.6Z" fill="#E57E25"/>
<path d="M12.8 10.6H12.4C12.1791 10.6 12.0001 10.7791 12.0001 11C12.0001 11.2209 12.1792 11.3999 12.4 11.3999H12.8C13.021 11.3999 13.2 11.2208 13.2 11C13.2 10.7791 13.021 10.6 12.8 10.6Z" fill="#E57E25"/>
<path d="M10.4 9.80002H10C9.7791 9.80002 9.60004 9.97913 9.60004 10.2C9.60004 10.4209 9.7791 10.6 10 10.6H10.4C10.6209 10.6 10.8 10.4209 10.8 10.2C10.8 9.97908 10.6209 9.80002 10.4 9.80002Z" fill="#E57E25"/>
<path d="M11.6 13.008C11.552 13.004 11.508 13 11.46 13H11.116C11.0238 12.9998 10.9361 13.04 10.8761 13.11C10.8161 13.1801 10.7897 13.2728 10.804 13.364L12.3396 23.4H21.2556L22.7956 13.36C22.809 13.2688 22.7816 13.1762 22.7208 13.1069C22.66 13.0377 22.5718 12.9985 22.4796 13H22.1396C21.9557 12.9999 21.7731 13.0311 21.5996 13.092L11.6 13.008Z" fill="#E64C3C"/>
<path d="M17.6036 16.404C16.9286 16.5127 16.2386 16.4827 15.5756 16.316L15.6 16.2V9.312C15.6002 9.13978 15.7398 9.00023 15.912 9H17.288C17.4602 9.00023 17.5998 9.13978 17.6 9.312V16.376L17.6036 16.404Z" fill="#F0C419"/>
<path d="M13.6 11.4V15.1C13.3179 14.7655 13.0922 14.3872 12.932 13.98C12.7071 13.4305 12.1919 13.0545 11.6 13.008V11.712C11.6002 11.5398 11.7398 11.4002 11.912 11.4H13.6Z" fill="#F0C419"/>
<path d="M15.6 9.80002V16.2L15.576 16.316H15.572C14.8012 16.1328 14.1098 15.7065 13.6 15.1V10.112C13.6003 9.9398 13.7398 9.80025 13.912 9.80002H15.6Z" fill="#F3D55B"/>
<path d="M19.64 15.464C19.0694 15.9721 18.3608 16.2992 17.604 16.404L17.6 16.376V9.80002H19.2C19.4209 9.80002 19.6 9.97913 19.6 10.2V15.416L19.64 15.464Z" fill="#F3D55B"/>
<path d="M21.6 11.312V13.092C21.176 13.24 20.8364 13.5636 20.668 13.98C20.4469 14.5476 20.0962 15.0558 19.644 15.464H19.64L19.6 15.416V11H21.2881C21.4602 11.0002 21.5998 11.1398 21.6 11.312Z" fill="#F0C419"/>
<path d="M16.5996 21.8C17.5937 21.8 18.3996 20.9941 18.3996 20C18.3996 19.0059 17.5937 18.2 16.5996 18.2C15.6055 18.2 14.7996 19.0059 14.7996 20C14.7996 20.9941 15.6055 21.8 16.5996 21.8Z" fill="#E6E7E8"/>
<path d="M23.6 23.8H0.399984C0.179109 23.8 0 23.6209 0 23.4C0 23.1791 0.179109 23 0.399984 23H23.6C23.8209 23 24 23.1791 24 23.4C24 23.6209 23.8209 23.8 23.6 23.8Z" fill="#804537"/>
</svg>