<svg width="24" height="24" viewBox="0 0 24 24" fill="none" xmlns="http://www.w3.org/2000/svg">
<path d="M16.125 4.125C16.125 4.125 16.125 1.875 14.625 1.125C13.125 1.875 13.125 4.125 13.125 4.125V7.5H16.125V4.125Z" fill="#35A872"/>
<path d="M15.75 9C15.75 9 16.1932 5.25 20.625 5.25C20.625 5.25 18.4091 7.125 18.4091 9H15.75Z" fill="#248256"/>
<path d="M13.5 9C13.5 9 13.0568 5.25 8.625 5.25C8.625 5.25 10.8409 7.125 10.8409 9H13.5Z" fill="#248256"/>
<path d="M14.25 7.125C14.25 7.125 14.6932 3.375 19.125 3.375C19.125 3.375 16.9091 5.25 16.9091 7.125H14.25Z" fill="#319C6A"/>
<path d="M15 7.125C15 7.125 14.5568 3.375 10.125 3.375C10.125 3.375 12.3409 5.25 12.3409 7.125H15Z" fill="#2E9163"/>
<path d="M20.625 12.75C20.625 9.43629 17.9387 6.75 14.625 6.75C11.3113 6.75 8.625 9.43629 8.625 12.75V15C8.625 18.3137 11.3113 21 14.625 21C17.9387 21 20.625 18.3137 20.625 15V12.75Z" fill="#F7B030"/>
<path d="M18.8808 14.9156L16.7592 16.973L14.6306 14.9067L16.7522 12.847L18.8808 14.9156Z" fill="#E09F2C"/>
<path d="M14.6307 14.9067L12.5025 16.973L10.3805 14.9152L12.5086 12.8461L14.6307 14.9067Z" fill="#E09F2C"/>
<path d="M14.5251 6.75095L12.5029 8.71641L11.4281 7.67204C12.356 7.08588 13.4277 6.76715 14.5251 6.75095Z" fill="#E09F2C"/>
<path d="M14.6297 10.7836L12.5086 12.8461L10.38 10.7798L12.503 8.7164L14.6297 10.7836Z" fill="#E09F2C"/>
<path d="M18.8817 10.7799L16.7522 12.847L14.6297 10.7836L16.7574 8.71548L18.8817 10.7799Z" fill="#E09F2C"/>
<path d="M17.827 7.67532L16.7574 8.71548L14.7366 6.75095C15.8321 6.7694 16.9013 7.08922 17.827 7.67532Z" fill="#E09F2C"/>
<path d="M10.38 10.7798L8.6311 12.48C8.67152 11.5455 8.93117 10.6336 9.38907 9.81796L10.38 10.7798Z" fill="#E09F2C"/>
<path d="M20.6184 12.4678L18.8817 10.7798L19.8647 9.82547C20.3183 10.6355 20.5764 11.5403 20.6184 12.4678Z" fill="#E09F2C"/>
<path d="M20.625 13.2244V15C20.6254 15.486 20.5667 15.9701 20.4502 16.4419L18.8808 14.9156L20.625 13.2244Z" fill="#E09F2C"/>
<path d="M10.3805 14.9152L8.80172 16.4503C8.68407 15.9759 8.62473 15.4888 8.625 15V13.2131L10.3805 14.9152Z" fill="#E09F2C"/>
<path d="M12.5025 16.973L10.2764 19.1344C9.56071 18.3825 9.05256 17.4576 8.8017 16.4503L10.3804 14.9152L12.5025 16.973Z" fill="#F7B030"/>
<path d="M18.9792 19.1283C18.419 19.719 17.7445 20.1896 16.9966 20.5114C16.2488 20.8332 15.4433 20.9994 14.6291 21C13.815 21.0006 13.0093 20.8355 12.261 20.5147C11.5127 20.194 10.8375 19.7243 10.2764 19.1344L12.5025 16.973L14.6306 19.0369L16.7592 16.973L18.9792 19.1283Z" fill="#E09F2C"/>
<path d="M16.3711 20.7244C16.3653 20.7308 16.3606 20.7381 16.357 20.7459C15.2264 21.085 14.0211 21.0847 12.8906 20.745V20.7244L14.6306 19.0369L16.3711 20.7244Z" fill="#F7B030"/>
<path d="M22.875 15.375C22.875 18.9994 19.0134 22.875 14.25 22.875C9.48656 22.875 5.625 18.9994 5.625 15.375H22.875Z" fill="#35A872"/>
<path d="M21.3595 15.375C21.1153 18.3422 18.0258 21.375 14.25 21.375C10.4742 21.375 7.38466 18.3422 7.14044 15.375H21.3595Z" fill="#D13330"/>
<path d="M19.5 16.875C19.5 16.9745 19.4605 17.0698 19.3902 17.1402C19.3198 17.2105 19.2245 17.25 19.125 17.25C19.0255 17.25 18.9302 17.2105 18.8598 17.1402C18.7895 17.0698 18.75 16.9745 18.75 16.875C18.75 16.6679 18.9179 16.125 19.125 16.125C19.3321 16.125 19.5 16.6679 19.5 16.875Z" fill="#5E3725"/>
<path d="M17.625 18.75C17.625 18.8495 17.5855 18.9448 17.5152 19.0152C17.4448 19.0855 17.3495 19.125 17.25 19.125C17.1505 19.125 17.0552 19.0855 16.9848 19.0152C16.9145 18.9448 16.875 18.8495 16.875 18.75C16.875 18.5429 17.0429 18 17.25 18C17.4571 18 17.625 18.5429 17.625 18.75Z" fill="#5E3725"/>
<path d="M15.75 17.625C15.75 17.7245 15.7105 17.8198 15.6402 17.8902C15.5698 17.9605 15.4745 18 15.375 18C15.2755 18 15.1802 17.9605 15.1098 17.8902C15.0395 17.8198 15 17.7245 15 17.625C15 17.4179 15.1679 16.875 15.375 16.875C15.5821 16.875 15.75 17.4179 15.75 17.625Z" fill="#5E3725"/>
<path d="M13.5 17.625C13.5 17.7245 13.4605 17.8198 13.3902 17.8902C13.3198 17.9605 13.2245 18 13.125 18C13.0255 18 12.9302 17.9605 12.8598 17.8902C12.7895 17.8198 12.75 17.7245 12.75 17.625C12.75 17.4179 12.9179 16.875 13.125 16.875C13.3321 16.875 13.5 17.4179 13.5 17.625Z" fill="#5E3725"/>
<path d="M14.625 19.875C14.625 19.9745 14.5855 20.0698 14.5152 20.1402C14.4448 20.2105 14.3495 20.25 14.25 20.25C14.1505 20.25 14.0552 20.2105 13.9848 20.1402C13.9145 20.0698 13.875 19.9745 13.875 19.875C13.875 19.6679 14.0429 19.125 14.25 19.125C14.4571 19.125 14.625 19.6679 14.625 19.875Z" fill="#5E3725"/>
<path d="M10.875 18.75C10.875 18.8495 10.9145 18.9448 10.9848 19.0152C11.0552 19.0855 11.1505 19.125 11.25 19.125C11.3495 19.125 11.4448 19.0855 11.5152 19.0152C11.5855 18.9448 11.625 18.8495 11.625 18.75C11.625 18.5429 11.4571 18 11.25 18C11.0429 18 10.875 18.5429 10.875 18.75Z" fill="#5E3725"/>
<path d="M8.62087 13.125C8.32181 13.125 7.54275 13.3291 7.22142 13.5703C6.97834 13.756 6.68091 13.8567 6.375 13.8567C6.06908 13.8567 5.77166 13.756 5.52857 13.5703C5.20729 13.3291 4.42818 13.125 4.12912 13.125C2.17336 13.125 0.851621 14.8864 1.17318 17.0466L1.40756 18.6205C1.54736 19.5737 1.8584 20.4938 2.32565 21.3363C2.99704 22.5394 4.28437 23.1211 5.51339 22.777L6.14062 22.5526C6.29212 22.4981 6.45787 22.4981 6.60937 22.5526L7.23661 22.777C8.46576 23.1211 9.75295 22.5394 10.4245 21.3363C10.8917 20.4938 11.2028 19.5737 11.3426 18.6205L11.577 17.0466C11.8984 14.8864 10.5766 13.125 8.62087 13.125Z" fill="#EB423F"/>
<path d="M6.375 15.75C6.27554 15.75 6.18016 15.7105 6.10983 15.6402C6.03951 15.5698 6 15.4744 6 15.375C6 15.3398 6.00108 14.502 6.09544 13.5113C6.2258 12.1426 6.4672 11.1856 6.813 10.667C6.86862 10.5853 6.95424 10.5289 7.05123 10.51C7.14822 10.4911 7.24874 10.5112 7.33096 10.566C7.41318 10.6209 7.47044 10.7059 7.49029 10.8027C7.51015 10.8995 7.491 11.0002 7.437 11.083C6.87403 11.9275 6.75 14.4676 6.75 15.375C6.75 15.4744 6.71049 15.5698 6.64017 15.6402C6.56984 15.7105 6.47446 15.75 6.375 15.75Z" fill="#5E3725"/>
<path d="M7.76519 14.7348C7.73036 14.7 7.68902 14.6724 7.64352 14.6535C7.59803 14.6347 7.54926 14.625 7.50001 14.625C7.45077 14.625 7.402 14.6347 7.3565 14.6535C7.311 14.6724 7.26966 14.7 7.23484 14.7348C7.23222 14.7375 6.94422 15 6.37501 15C5.80581 15 5.52264 14.7416 5.51087 14.7306L5.515 14.7347C5.48023 14.6995 5.43886 14.6716 5.39326 14.6525C5.34766 14.6334 5.29873 14.6235 5.2493 14.6234C5.19986 14.6233 5.15089 14.633 5.1052 14.6518C5.05951 14.6707 5.01801 14.6984 4.98307 14.7334C4.94814 14.7684 4.92047 14.8099 4.90165 14.8557C4.88283 14.9014 4.87323 14.9504 4.87342 14.9998C4.8736 15.0492 4.88355 15.0981 4.90271 15.1437C4.92186 15.1893 4.94984 15.2306 4.98503 15.2653C5.03533 15.3156 5.49583 15.75 6.37501 15.75C7.25495 15.75 7.71564 15.3148 7.76519 15.2652C7.80001 15.2303 7.82763 15.189 7.84648 15.1435C7.86533 15.098 7.87503 15.0492 7.87503 15C7.87503 14.9507 7.86533 14.902 7.84648 14.8565C7.82763 14.811 7.80001 14.7696 7.76519 14.7348Z" fill="#C7312E"/>
</svg>