<svg width="24" height="24" viewBox="0 0 24 24" fill="none" xmlns="http://www.w3.org/2000/svg">
<path d="M0.311829 18.2529C0.140442 18.2529 0 18.392 0 18.562V23.6911C0 23.861 0.140442 24 0.311829 24H5.4884C5.65997 24 5.80023 23.861 5.80023 23.6911V18.2529H0.311829Z" fill="#FB8276"/>
<path d="M10.4238 16.153C10.4238 15.323 10.6655 14.5677 11.1185 13.9451C10.3557 14.3031 9.50317 14.4137 8.68451 14.2775V16.3616C9.26331 16.4247 9.84924 16.4068 10.4238 16.3085V16.153Z" fill="#A2F9F9"/>
<path d="M17.5102 12.9653C16.8691 13.2698 16.1558 13.4388 15.4113 13.4388H13.9587C13.2339 13.4388 12.5484 13.3123 11.9346 13.0737C10.9823 13.7576 10.377 14.8204 10.377 16.153V16.8126L10.5705 16.832L10.5461 16.7615L10.5103 16.6664C10.4769 16.5786 10.48 16.4828 10.5187 16.3973C10.5573 16.3116 10.6273 16.246 10.7151 16.2127L10.8168 16.1744C10.8569 16.1592 10.8988 16.1516 10.9411 16.1516C11.0867 16.1516 11.2191 16.2431 11.2705 16.3793L11.6581 17.3928L11.6616 17.3976C11.7041 17.4582 11.7416 17.5228 11.7731 17.5897L11.7827 17.6098L11.8041 17.6151C12.1146 17.6937 12.4349 17.7334 12.756 17.7334C14.2366 17.7334 15.6136 16.8831 16.2642 15.5671C16.4229 15.2457 16.7455 15.0463 17.1061 15.0463C17.248 15.0463 17.3849 15.0776 17.5135 15.1397C17.7374 15.2481 17.905 15.4365 17.9854 15.6705C18.0654 15.9036 18.0491 16.1541 17.9396 16.3759C17.4554 17.3555 16.7042 18.173 15.767 18.7401C14.8548 19.2922 13.8098 19.584 12.7452 19.584C12.7452 19.584 12.7452 19.584 12.7451 19.584C12.3431 19.584 11.944 19.5412 11.553 19.4584V21.3549H12.381L12.3858 21.3133C12.442 20.8224 12.861 20.4523 13.3599 20.4523C13.7272 20.4523 14.061 20.6532 14.2308 20.9766L14.2722 21.0557L14.3137 20.9766C14.4835 20.6532 14.8171 20.4523 15.1846 20.4523C15.6835 20.4523 16.1023 20.8226 16.1587 21.3133L16.1636 21.3549H19.1975V16.1047C19.1975 14.7123 18.537 13.6306 17.5102 12.9653Z" fill="#48E5E1"/>
<path d="M10.5705 16.832L10.5461 16.7615L10.5103 16.6664C10.4769 16.5786 10.48 16.4828 10.5187 16.3973C10.5573 16.3116 10.6273 16.246 10.7151 16.2127L10.8168 16.1744C10.8569 16.1592 10.8988 16.1516 10.9411 16.1516C11.0867 16.1516 11.2191 16.2431 11.2705 16.3793L11.6581 17.3928L11.6616 17.3976C11.7041 17.4582 11.7416 17.5228 11.7731 17.5897L11.7827 17.6098L11.8041 17.6151C11.8229 17.6201 11.8422 17.6241 11.861 17.6287V16.153C11.861 14.9996 12.3148 14.0484 13.0541 13.37C12.6614 13.3099 12.2862 13.2103 11.9346 13.0737C10.9823 13.7576 10.377 14.8206 10.377 16.153V16.8126L10.5705 16.832Z" fill="#41CECA"/>
<path d="M14.2035 21.4239C14.2035 21.2754 14.2383 21.1351 14.2987 21.0092C14.1383 20.6534 13.7785 20.4055 13.3599 20.4055C12.8318 20.4055 12.3975 20.8002 12.3393 21.3078H11.553V23.6909C11.553 23.861 11.4126 24 11.2412 24H13.4301V23.9965C13.8186 23.9705 14.1473 23.7305 14.2983 23.3947C14.2381 23.2689 14.2035 23.129 14.2035 22.9816V21.4239Z" fill="#A2F9F9"/>
<path d="M15.1144 23.9965V24H19.2806C20.0308 24 20.6391 23.3974 20.6391 22.6538C20.6391 21.9106 20.0308 21.3078 19.2806 21.3078H16.2054C16.147 20.8002 15.7126 20.4055 15.1846 20.4055C14.6169 20.4055 14.1566 20.8614 14.1566 21.4239V22.9816C14.1566 23.5206 14.5796 23.9606 15.1144 23.9965Z" fill="#A2F9F9"/>
<path d="M15.6277 22.9816V21.4239C15.6277 21.1476 15.7394 20.8971 15.9197 20.7136C15.7332 20.5239 15.4731 20.4055 15.1846 20.4055C14.6169 20.4055 14.1566 20.8616 14.1566 21.4239V22.9816C14.1566 23.5206 14.5796 23.9608 15.1144 23.9965V24H16.5857V23.9965C16.0508 23.9606 15.6277 23.5206 15.6277 22.9816Z" fill="#91E0E0"/>
<path d="M15.4113 13.4388H13.9587C13.732 13.4388 13.5097 13.4255 13.2916 13.4013V13.4423C13.2916 14.0852 13.8177 14.6065 14.4664 14.6065C15.1154 14.6065 15.6414 14.0852 15.6414 13.4423V13.433C15.5649 13.4366 15.4883 13.4388 15.4113 13.4388Z" fill="#FFC987"/>
<path d="M20.3591 5.95532C20.3525 5.95532 20.3459 5.95587 20.3394 5.95587V5.26904C20.3394 5.21667 20.3383 5.16449 20.3366 5.11249C20.2319 5.19562 20.113 5.26172 19.9803 5.30878C19.6868 5.4126 19.4 5.46515 19.1283 5.46515C19.1283 5.46515 19.1283 5.46515 19.1281 5.46515C17.6523 5.46515 16.9845 3.91223 16.9779 3.89648L16.9336 3.79065L16.8911 3.89722C16.8831 3.91736 16.0735 5.91083 14.7217 5.91083C14.5734 5.91083 14.4214 5.88647 14.2703 5.83887C13.6293 5.6369 13.4174 5.14929 13.6404 4.38977L13.5551 4.35242C13.1396 5.04584 12.5023 5.87256 11.8257 5.87256C11.7466 5.87256 11.6677 5.86121 11.5908 5.83868C11.339 5.76508 11.1586 5.61823 11.055 5.40216C10.886 5.05005 10.9268 4.51428 11.1671 3.93237L11.0815 3.89429C10.5216 5.06854 9.9256 5.63928 9.25964 5.63928C9.18457 5.63928 9.10803 5.63159 9.03076 5.61639V8.57556C9.03076 11.7642 11.237 13.4857 13.9585 13.4857H15.4111C17.6964 13.4857 19.6174 11.9359 20.1753 9.83405C20.2355 9.8432 20.2969 9.84851 20.3591 9.84851C21.2031 9.84851 21.8871 8.97693 21.8871 7.90192C21.8871 6.8269 21.2031 5.95532 20.3591 5.95532Z" fill="#FFD5B3"/>
<path d="M10.509 8.57556V5.26904C10.509 5.12531 10.5156 4.98303 10.5276 4.84241C10.1301 5.37671 9.711 5.63928 9.25964 5.63928C9.18457 5.63928 9.10803 5.63159 9.03076 5.61639V8.57556C9.03076 11.7642 11.237 13.4857 13.9587 13.4857H15.4113C15.414 13.4857 15.4166 13.4855 15.4193 13.4855C12.7059 13.4782 10.509 11.7574 10.509 8.57556Z" fill="#E5BFA1"/>
<path d="M16.5236 8.50763C16.3293 8.50763 16.1721 8.35034 16.1721 8.15607V7.56189C16.1721 7.3678 16.3293 7.21033 16.5236 7.21033C16.7177 7.21033 16.8752 7.3678 16.8752 7.56189V8.15607C16.8752 8.35034 16.7177 8.50763 16.5236 8.50763Z" fill="#775436"/>
<path d="M11.1722 8.50763C10.9781 8.50763 10.8206 8.35034 10.8206 8.15607V7.56189C10.8206 7.3678 10.9781 7.21033 11.1722 7.21033C11.3665 7.21033 11.5237 7.3678 11.5237 7.56189V8.15607C11.5237 8.35034 11.3665 8.50763 11.1722 8.50763Z" fill="#775436"/>
<path d="M14.0826 9.02893H13.8477C13.5245 9.02893 13.2614 8.76288 13.2614 8.43604V7.97937C13.2614 7.7851 13.4187 7.62781 13.613 7.62781C13.8073 7.62781 13.9645 7.7851 13.9645 7.97937V8.32581H14.0826C14.2767 8.32581 14.4342 8.48328 14.4342 8.67737C14.4342 8.87164 14.2767 9.02893 14.0826 9.02893Z" fill="#775436"/>
<path d="M13.9296 11.9273C13.0151 11.9273 12.2712 11.1901 12.2712 10.2841C12.2712 10.1135 12.4109 9.97504 12.583 9.97504H15.2761C15.4484 9.97504 15.588 10.1135 15.588 10.2841C15.588 11.1903 14.844 11.9273 13.9296 11.9273Z" fill="#FB8276"/>
<path d="M13.7596 10.2841C13.7596 10.1135 13.8992 9.97522 14.0715 9.97522H12.583C12.4107 9.97522 12.2712 10.1135 12.2712 10.2841C12.2712 11.1903 13.0151 11.9273 13.9296 11.9273C14.1971 11.9273 14.4498 11.864 14.6737 11.7521C14.1323 11.4813 13.7596 10.9252 13.7596 10.2841Z" fill="#E1756A"/>
<path d="M15.3151 0H13.7439C10.7997 0 8.41315 2.37799 8.41315 5.31134V5.39081C8.51129 5.46606 8.62665 5.53198 8.76251 5.58563C9.89209 6.03351 10.6555 4.89697 11.1238 3.91461C10.775 4.75928 10.7866 5.65265 11.5778 5.88373C12.3409 6.10657 13.0737 5.24707 13.5954 4.37659C13.4167 4.98523 13.4561 5.63141 14.2562 5.88373C15.9399 6.41455 16.9349 3.91461 16.9349 3.91461C16.9349 3.91461 17.8531 6.11115 19.996 5.35291C20.2734 5.25458 20.4785 5.08612 20.6263 4.86786C20.3998 2.14215 18.1093 0 15.3151 0Z" fill="#F7931E"/>
<path d="M9.8855 5.39081V5.31134C9.8855 2.37799 12.2721 0 15.2162 0H13.7439C10.7997 0 8.41315 2.37799 8.41315 5.31134V5.39081C8.51129 5.46606 8.62665 5.53198 8.76251 5.58563C9.2276 5.77002 9.63043 5.68542 9.97632 5.45398C9.94482 5.43365 9.91406 5.41278 9.8855 5.39081Z" fill="#DE841B"/>
<path d="M7.51538 12.5526V12.1531C7.51538 11.7777 7.20813 11.4734 6.82928 11.4734H4.83362C4.45459 11.4734 4.14752 11.7777 4.14752 12.1531V12.5526H7.51538Z" fill="#89C947"/>
<path d="M5.64423 12.5526V12.1531C5.64423 11.7777 5.95129 11.4734 6.33014 11.4734H4.83344C4.45459 11.4734 4.14734 11.7777 4.14734 12.1531V12.5526H5.64423Z" fill="#7BB540"/>
<path d="M8.73157 17.944C8.73157 18.1139 8.59113 18.2529 8.41974 18.2529H3.24316C3.07159 18.2529 2.93134 18.1139 2.93134 17.944V12.8148C2.93134 12.6449 3.07159 12.5057 3.24316 12.5057H8.41974C8.59113 12.5057 8.73157 12.6449 8.73157 12.8148V17.944Z" fill="#D5E962"/>
<path d="M6.64969 16.7955C6.62149 16.7955 6.59311 16.7889 6.5671 16.7752L5.83139 16.3942L5.09567 16.7752C5.06967 16.7889 5.04129 16.7955 5.01309 16.7955C4.97628 16.7955 4.93985 16.7844 4.90872 16.762C4.85397 16.723 4.82669 16.6566 4.83822 16.5908L4.97866 15.7835L4.38339 15.2117C4.33505 15.1653 4.31765 15.0956 4.33853 15.0324C4.3594 14.9691 4.41488 14.9227 4.48172 14.913L5.30441 14.7955L5.67227 14.0609C5.70211 14.0012 5.764 13.9634 5.83139 13.9634C5.89895 13.9634 5.96066 14.0012 5.99069 14.0609L6.35855 14.7955L7.18106 14.913C7.24789 14.9227 7.30337 14.9691 7.32425 15.0324C7.3453 15.0958 7.32791 15.1653 7.27939 15.2117L6.68429 15.7835L6.82473 16.5908C6.83627 16.6566 6.8088 16.723 6.75424 16.762C6.72329 16.7844 6.68649 16.7955 6.64969 16.7955Z" fill="#89C947"/>
<path d="M1.14679 23.6909V18.5618C1.14679 18.3918 1.28705 18.2529 1.45862 18.2529H0.311829C0.140442 18.2529 0 18.3918 0 18.5618V23.6909C0 23.861 0.140442 24 0.311829 24H1.45862C1.28705 24 1.14679 23.861 1.14679 23.6909Z" fill="#E1756A"/>
<path d="M2.90002 22.4539C2.86121 22.4539 2.82404 22.4388 2.79657 22.4119L1.50018 21.1441C1.18597 20.8367 1.18597 20.337 1.50018 20.0297C1.65234 19.881 1.85468 19.799 2.06982 19.799C2.28497 19.799 2.4873 19.881 2.63947 20.0299L2.90002 20.2848L3.16077 20.0299C3.31293 19.881 3.51526 19.799 3.73041 19.799C3.94556 19.799 4.14789 19.881 4.30005 20.0297C4.61426 20.337 4.61426 20.8369 4.30005 21.1441L3.00366 22.4117C2.9762 22.4387 2.93903 22.4539 2.90002 22.4539Z" fill="#EF5050"/>
<path d="M11.044 19.327L11.0295 19.3224L11.0151 19.3273C10.8785 19.3733 10.736 19.3965 10.5917 19.3965C10.5469 19.3965 10.5015 19.3943 10.4568 19.3898L9.25671 19.2691C9.07965 19.2512 8.95001 19.0926 8.96777 18.9155L8.97784 18.8154C8.99451 18.6497 9.13239 18.5248 9.29865 18.5248C9.30945 18.5248 9.32043 18.5253 9.33142 18.5264L10.2449 18.6183L10.2609 18.4605L9.15619 18.3494C9.07965 18.3417 9.00989 18.3076 8.95697 18.2529H5.80023V23.6909C5.80023 23.861 5.94049 24 6.11206 24H11.2886C11.46 24 11.6003 23.861 11.6003 23.6909V19.4683C11.413 19.4302 11.2271 19.3837 11.044 19.327Z" fill="#FFC502"/>
<path d="M7.08929 23.6909V18.2529H5.80023V23.6911C5.80023 23.861 5.94049 24 6.11206 24H7.40112C7.22955 24 7.08929 23.861 7.08929 23.6909Z" fill="#E5B102"/>
<path d="M8.24835 22.4372C8.07678 22.4372 7.86639 22.3169 7.7807 22.1697L7.32861 21.394C7.24292 21.2468 7.24292 21.006 7.32861 20.8588L7.7807 20.0832C7.86639 19.936 8.07678 19.8157 8.24835 19.8157H9.15216C9.32373 19.8157 9.5343 19.936 9.62 20.0832L10.0719 20.8588C10.1578 21.006 10.1578 21.2468 10.0719 21.394L9.62 22.1697C9.5343 22.3169 9.32373 22.4372 9.15216 22.4372H8.24835Z" fill="#FCDB67"/>
<path d="M4.16986 17.944V12.8148C4.16986 12.6449 4.31012 12.5057 4.48169 12.5057H3.24316C3.07159 12.5057 2.93134 12.6449 2.93134 12.8148V17.944C2.93134 18.1139 3.07159 18.2529 3.24316 18.2529H4.48169C4.31012 18.2529 4.16986 18.1139 4.16986 17.944Z" fill="#BFD158"/>
<path d="M20.3284 9.02599C20.2033 9.02599 20.0823 8.95915 20.0187 8.84142C19.9264 8.67058 19.99 8.45744 20.1608 8.36497C20.5589 8.14983 20.3273 7.60124 20.3172 7.57799C20.2401 7.39983 20.3221 7.19292 20.5003 7.11583C20.6785 7.03874 20.8855 7.12077 20.9625 7.29893C20.9749 7.32732 21.0831 7.58623 21.0925 7.90703C21.1067 8.38548 20.8945 8.76781 20.495 8.98369C20.4421 9.01244 20.3848 9.02599 20.3284 9.02599Z" fill="#FFB98A"/>
<path d="M17.5338 15.0974C17.0479 14.8627 16.4606 15.0635 16.222 15.5462C15.3966 17.2161 13.4976 18.0253 11.7546 17.5547C11.8632 17.7689 11.9105 18.0095 11.8865 18.249C11.8328 18.7817 11.4543 19.2076 10.9528 19.3475C13.6597 20.2277 16.6902 19.0089 17.9815 16.3966C18.2201 15.9139 18.0196 15.3323 17.5338 15.0974Z" fill="#A2F9F9"/>
<path d="M8.92109 18.911L8.93134 18.8106C8.95166 18.6075 9.13294 18.4594 9.33619 18.4797L10.203 18.5669L10.2096 18.5024L9.15143 18.3959C8.94837 18.3756 8.80024 18.1943 8.82074 17.9912L8.83082 17.8909C8.85114 17.6878 9.03241 17.5397 9.23566 17.56L10.2936 17.6666L10.3002 17.6019L9.43323 17.5148C9.22999 17.4944 9.08185 17.3132 9.10236 17.1099L9.11243 17.0096C9.13294 16.8065 9.31421 16.6584 9.51728 16.6787L10.4998 16.7778L10.5022 16.778L10.4663 16.6829C10.3885 16.4767 10.4925 16.2466 10.6985 16.1688L10.8003 16.1303C11.0065 16.0525 11.2365 16.1565 11.3145 16.3627L11.6999 17.3705C11.8755 17.6204 11.9656 17.9293 11.9332 18.2536C11.8597 18.9818 11.1967 19.5114 10.452 19.4363L9.25196 19.3156C9.04889 19.2953 8.90076 19.114 8.92109 18.911Z" fill="#FFD5B3"/>
</svg>